G04 #@! TF.GenerationSoftware,KiCad,Pcbnew,(5.0.2)-1*
G04 #@! TF.CreationDate,2020-10-15T01:05:58-04:00*
G04 #@! TF.ProjectId,Sequencer,53657175-656e-4636-9572-2e6b69636164,TTGO V-2.8*
G04 #@! TF.SameCoordinates,Original*
G04 #@! TF.FileFunction,Copper,L2,Bot*
G04 #@! TF.FilePolarity,Positive*
%FSLAX46Y46*%
G04 Gerber Fmt 4.6, Leading zero omitted, Abs format (unit mm)*
G04 Created by KiCad (PCBNEW (5.0.2)-1) date 10/15/2020 1:05:58 AM*
%MOMM*%
%LPD*%
G01*
G04 APERTURE LIST*
G04 #@! TA.AperFunction,ComponentPad*
%ADD10R,1.700000X1.700000*%
G04 #@! TD*
G04 #@! TA.AperFunction,ComponentPad*
%ADD11O,1.700000X1.700000*%
G04 #@! TD*
G04 #@! TA.AperFunction,ComponentPad*
%ADD12O,1.400000X1.400000*%
G04 #@! TD*
G04 #@! TA.AperFunction,ComponentPad*
%ADD13C,1.400000*%
G04 #@! TD*
G04 #@! TA.AperFunction,ComponentPad*
%ADD14C,1.701800*%
G04 #@! TD*
G04 #@! TA.AperFunction,ComponentPad*
%ADD15R,1.800000X1.800000*%
G04 #@! TD*
G04 #@! TA.AperFunction,ComponentPad*
%ADD16C,1.800000*%
G04 #@! TD*
G04 #@! TA.AperFunction,ComponentPad*
%ADD17C,1.600000*%
G04 #@! TD*
G04 #@! TA.AperFunction,ComponentPad*
%ADD18O,1.600000X1.600000*%
G04 #@! TD*
G04 #@! TA.AperFunction,ComponentPad*
%ADD19C,5.080000*%
G04 #@! TD*
G04 #@! TA.AperFunction,ComponentPad*
%ADD20C,1.524000*%
G04 #@! TD*
G04 #@! TA.AperFunction,ComponentPad*
%ADD21R,1.524000X1.524000*%
G04 #@! TD*
G04 #@! TA.AperFunction,ViaPad*
%ADD22C,1.016000*%
G04 #@! TD*
G04 #@! TA.AperFunction,Conductor*
%ADD23C,0.508000*%
G04 #@! TD*
G04 #@! TA.AperFunction,Conductor*
%ADD24C,0.254000*%
G04 #@! TD*
G04 APERTURE END LIST*
D10*
G04 #@! TO.P,SW2,1*
G04 #@! TO.N,Net-(SW2-Pad1)*
X72390000Y-44450000D03*
D11*
G04 #@! TO.P,SW2,2*
G04 #@! TO.N,GND*
X72390000Y-46990000D03*
G04 #@! TD*
D12*
G04 #@! TO.P,FB2,2*
G04 #@! TO.N,Net-(FB2-Pad2)*
X43180000Y-71120000D03*
D13*
G04 #@! TO.P,FB2,1*
G04 #@! TO.N,/PREAMP_PWR*
X50800000Y-71120000D03*
G04 #@! TD*
G04 #@! TO.P,FB1,1*
G04 #@! TO.N,/SB-200_KEY*
X50800000Y-68580000D03*
D12*
G04 #@! TO.P,FB1,2*
G04 #@! TO.N,Net-(FB1-Pad2)*
X43180000Y-68580000D03*
G04 #@! TD*
D10*
G04 #@! TO.P,J5,1*
G04 #@! TO.N,GND*
X65405000Y-39370000D03*
G04 #@! TD*
D11*
G04 #@! TO.P,J3,2*
G04 #@! TO.N,GND*
X33020000Y-73660000D03*
D10*
G04 #@! TO.P,J3,1*
G04 #@! TO.N,Net-(FB2-Pad2)*
X33020000Y-71120000D03*
G04 #@! TD*
D14*
G04 #@! TO.P,K2,12*
G04 #@! TO.N,Net-(K2-Pad12)*
X69850000Y-64770000D03*
G04 #@! TO.P,K2,10*
G04 #@! TO.N,Net-(K2-Pad10)*
X69850000Y-69850000D03*
G04 #@! TO.P,K2,9*
G04 #@! TO.N,/PREAMP_PWR*
X69850000Y-72390000D03*
G04 #@! TO.P,K2,8*
G04 #@! TO.N,/+13V*
X69850000Y-74930000D03*
G04 #@! TO.P,K2,5*
X64770000Y-74930000D03*
G04 #@! TO.P,K2,4*
G04 #@! TO.N,/PREAMP_PWR*
X64770000Y-72390000D03*
G04 #@! TO.P,K2,3*
G04 #@! TO.N,Net-(K2-Pad3)*
X64770000Y-69850000D03*
G04 #@! TO.P,K2,1*
G04 #@! TO.N,/+5V*
X64770000Y-64770000D03*
G04 #@! TD*
D15*
G04 #@! TO.P,D3,1*
G04 #@! TO.N,GND*
X33020000Y-58420000D03*
D16*
G04 #@! TO.P,D3,2*
G04 #@! TO.N,Net-(D3-Pad2)*
X33020000Y-60960000D03*
G04 #@! TD*
D17*
G04 #@! TO.P,R5,1*
G04 #@! TO.N,Net-(D3-Pad2)*
X41910000Y-64770000D03*
D18*
G04 #@! TO.P,R5,2*
G04 #@! TO.N,/PREAMP_PWR*
X49530000Y-64770000D03*
G04 #@! TD*
D10*
G04 #@! TO.P,J2,1*
G04 #@! TO.N,Net-(FB1-Pad2)*
X33020000Y-68580000D03*
D11*
G04 #@! TO.P,J2,2*
G04 #@! TO.N,GND*
X33020000Y-66040000D03*
G04 #@! TD*
D10*
G04 #@! TO.P,J4,1*
G04 #@! TO.N,/TX_INH*
X45085000Y-35560000D03*
D11*
G04 #@! TO.P,J4,2*
G04 #@! TO.N,Net-(J1-Pad2)*
X47625000Y-35560000D03*
G04 #@! TO.P,J4,3*
G04 #@! TO.N,Net-(J1-Pad3)*
X50165000Y-35560000D03*
G04 #@! TO.P,J4,4*
G04 #@! TO.N,Net-(J1-Pad4)*
X52705000Y-35560000D03*
G04 #@! TO.P,J4,5*
G04 #@! TO.N,Net-(J1-Pad5)*
X55245000Y-35560000D03*
G04 #@! TO.P,J4,6*
G04 #@! TO.N,GND*
X57785000Y-35560000D03*
G04 #@! TO.P,J4,7*
G04 #@! TO.N,/PTT*
X60325000Y-35560000D03*
G04 #@! TO.P,J4,8*
G04 #@! TO.N,/+13V*
X62865000Y-35560000D03*
G04 #@! TD*
D19*
G04 #@! TO.P,H4,1*
G04 #@! TO.N,GND*
X99060000Y-33020000D03*
G04 #@! TD*
G04 #@! TO.P,H3,1*
G04 #@! TO.N,GND*
X29210000Y-80010000D03*
G04 #@! TD*
G04 #@! TO.P,H2,1*
G04 #@! TO.N,GND*
X99060000Y-80010000D03*
G04 #@! TD*
G04 #@! TO.P,H1,1*
G04 #@! TO.N,GND*
X29210000Y-33020000D03*
G04 #@! TD*
D20*
G04 #@! TO.P,U2,D12*
G04 #@! TO.N,Net-(U2-PadD12)*
X77470000Y-74930000D03*
G04 #@! TO.P,U2,D11*
G04 #@! TO.N,Net-(U2-PadD11)*
X77470000Y-72390000D03*
G04 #@! TO.P,U2,D10*
G04 #@! TO.N,Net-(U2-PadD10)*
X77470000Y-69850000D03*
G04 #@! TO.P,U2,D9*
G04 #@! TO.N,Net-(SW2-Pad1)*
X77470000Y-67310000D03*
G04 #@! TO.P,U2,D8*
G04 #@! TO.N,Net-(K2-Pad12)*
X77470000Y-64770000D03*
G04 #@! TO.P,U2,D7*
G04 #@! TO.N,Net-(K1-Pad12)*
X77470000Y-62230000D03*
G04 #@! TO.P,U2,D6*
G04 #@! TO.N,Net-(R4-Pad2)*
X77470000Y-59690000D03*
G04 #@! TO.P,U2,D5*
G04 #@! TO.N,Net-(R3-Pad2)*
X77470000Y-57150000D03*
G04 #@! TO.P,U2,D4*
G04 #@! TO.N,/TX_INH*
X77470000Y-54610000D03*
G04 #@! TO.P,U2,D3*
G04 #@! TO.N,Net-(U2-PadD3)*
X77470000Y-52070000D03*
G04 #@! TO.P,U2,D2*
G04 #@! TO.N,/TX_GROUND*
X77470000Y-49530000D03*
D21*
G04 #@! TO.P,U2,GND*
G04 #@! TO.N,GND*
X77470000Y-46990000D03*
D20*
G04 #@! TO.P,U2,RST_2*
G04 #@! TO.N,Net-(U2-PadRST_2)*
X77470000Y-44450000D03*
G04 #@! TO.P,U2,D0*
G04 #@! TO.N,Net-(U2-PadD0)*
X77470000Y-41910000D03*
G04 #@! TO.P,U2,D1*
G04 #@! TO.N,Net-(U2-PadD1)*
X77470000Y-39370000D03*
G04 #@! TO.P,U2,VIN*
G04 #@! TO.N,/+13V*
X92710000Y-39370000D03*
D21*
G04 #@! TO.P,U2,GND*
G04 #@! TO.N,GND*
X92710000Y-41910000D03*
D20*
G04 #@! TO.P,U2,RST_1*
G04 #@! TO.N,Net-(U2-PadRST_1)*
X92710000Y-44450000D03*
G04 #@! TO.P,U2,5V_1*
G04 #@! TO.N,/+5V*
X92710000Y-46990000D03*
G04 #@! TO.P,U2,A7*
G04 #@! TO.N,Net-(U2-PadA7)*
X92710000Y-49530000D03*
G04 #@! TO.P,U2,A6*
G04 #@! TO.N,Net-(U2-PadA6)*
X92710000Y-52070000D03*
G04 #@! TO.P,U2,A5*
G04 #@! TO.N,Net-(U2-PadA5)*
X92710000Y-54610000D03*
G04 #@! TO.P,U2,A4*
G04 #@! TO.N,Net-(U2-PadA4)*
X92710000Y-57150000D03*
G04 #@! TO.P,U2,A3*
G04 #@! TO.N,Net-(U2-PadA3)*
X92710000Y-59690000D03*
G04 #@! TO.P,U2,A2*
G04 #@! TO.N,Net-(U2-PadA2)*
X92710000Y-62230000D03*
G04 #@! TO.P,U2,A1*
G04 #@! TO.N,Net-(U2-PadA1)*
X92710000Y-64770000D03*
G04 #@! TO.P,U2,A0*
G04 #@! TO.N,Net-(U2-PadA0)*
X92710000Y-67310000D03*
G04 #@! TO.P,U2,AREF*
G04 #@! TO.N,Net-(U2-PadAREF)*
X92710000Y-69850000D03*
G04 #@! TO.P,U2,3V3*
G04 #@! TO.N,Net-(U2-Pad3V3)*
X92710000Y-72390000D03*
G04 #@! TO.P,U2,D13*
G04 #@! TO.N,Net-(U2-PadD13)*
X92710000Y-74930000D03*
G04 #@! TO.P,U2,RST_3*
G04 #@! TO.N,Net-(U2-PadRST_3)*
X82550000Y-36830000D03*
D21*
G04 #@! TO.P,U2,GND*
G04 #@! TO.N,GND*
X82550000Y-39370000D03*
D20*
G04 #@! TO.P,U2,SCK*
G04 #@! TO.N,Net-(U2-PadSCK)*
X85090000Y-36830000D03*
G04 #@! TO.P,U2,MOSI*
G04 #@! TO.N,Net-(U2-PadMOSI)*
X85090000Y-39370000D03*
G04 #@! TO.P,U2,MISO*
G04 #@! TO.N,Net-(U2-PadMISO)*
X87630000Y-36830000D03*
G04 #@! TO.P,U2,5V_2*
G04 #@! TO.N,Net-(U2-Pad5V_2)*
X87630000Y-39370000D03*
G04 #@! TD*
D14*
G04 #@! TO.P,K1,1*
G04 #@! TO.N,/+5V*
X54610000Y-62230000D03*
G04 #@! TO.P,K1,3*
G04 #@! TO.N,Net-(K1-Pad3)*
X54610000Y-67310000D03*
G04 #@! TO.P,K1,4*
G04 #@! TO.N,/SB-200_KEY*
X54610000Y-69850000D03*
G04 #@! TO.P,K1,5*
G04 #@! TO.N,GND*
X54610000Y-72390000D03*
G04 #@! TO.P,K1,8*
X59690000Y-72390000D03*
G04 #@! TO.P,K1,9*
G04 #@! TO.N,/SB-200_KEY*
X59690000Y-69850000D03*
G04 #@! TO.P,K1,10*
G04 #@! TO.N,Net-(K1-Pad10)*
X59690000Y-67310000D03*
G04 #@! TO.P,K1,12*
G04 #@! TO.N,Net-(K1-Pad12)*
X59690000Y-62230000D03*
G04 #@! TD*
G04 #@! TO.P,U1,6*
G04 #@! TO.N,/TX_GROUND*
X46863000Y-53721000D03*
G04 #@! TO.P,U1,3*
G04 #@! TO.N,Net-(U1-Pad3)*
X41783000Y-46101000D03*
G04 #@! TO.P,U1,5*
G04 #@! TO.N,GND*
X44323000Y-53721000D03*
G04 #@! TO.P,U1,2*
G04 #@! TO.N,/PTT*
X44323000Y-46101000D03*
G04 #@! TO.P,U1,4*
G04 #@! TO.N,/TX_GROUND*
X41783000Y-53721000D03*
G04 #@! TO.P,U1,1*
G04 #@! TO.N,Net-(R1-Pad1)*
X46863000Y-46101000D03*
G04 #@! TD*
D11*
G04 #@! TO.P,J1,8*
G04 #@! TO.N,/+13V*
X62865000Y-39370000D03*
G04 #@! TO.P,J1,7*
G04 #@! TO.N,/PTT*
X60325000Y-39370000D03*
G04 #@! TO.P,J1,6*
G04 #@! TO.N,GND*
X57785000Y-39370000D03*
G04 #@! TO.P,J1,5*
G04 #@! TO.N,Net-(J1-Pad5)*
X55245000Y-39370000D03*
G04 #@! TO.P,J1,4*
G04 #@! TO.N,Net-(J1-Pad4)*
X52705000Y-39370000D03*
G04 #@! TO.P,J1,3*
G04 #@! TO.N,Net-(J1-Pad3)*
X50165000Y-39370000D03*
G04 #@! TO.P,J1,2*
G04 #@! TO.N,Net-(J1-Pad2)*
X47625000Y-39370000D03*
D10*
G04 #@! TO.P,J1,1*
G04 #@! TO.N,/TX_INH*
X45085000Y-39370000D03*
G04 #@! TD*
D16*
G04 #@! TO.P,D1,2*
G04 #@! TO.N,/+5V*
X33020000Y-45720000D03*
D15*
G04 #@! TO.P,D1,1*
G04 #@! TO.N,Net-(D1-Pad1)*
X33020000Y-43180000D03*
G04 #@! TD*
G04 #@! TO.P,D2,1*
G04 #@! TO.N,Net-(D2-Pad1)*
X33020000Y-50800000D03*
D16*
G04 #@! TO.P,D2,2*
G04 #@! TO.N,/+5V*
X33020000Y-53340000D03*
G04 #@! TD*
D18*
G04 #@! TO.P,R2,2*
G04 #@! TO.N,/+5V*
X49530000Y-59055000D03*
D17*
G04 #@! TO.P,R2,1*
G04 #@! TO.N,/TX_GROUND*
X41910000Y-59055000D03*
G04 #@! TD*
G04 #@! TO.P,R3,1*
G04 #@! TO.N,Net-(D1-Pad1)*
X66040000Y-55245000D03*
D18*
G04 #@! TO.P,R3,2*
G04 #@! TO.N,Net-(R3-Pad2)*
X73660000Y-55245000D03*
G04 #@! TD*
G04 #@! TO.P,R4,2*
G04 #@! TO.N,Net-(R4-Pad2)*
X73660000Y-59690000D03*
D17*
G04 #@! TO.P,R4,1*
G04 #@! TO.N,Net-(D2-Pad1)*
X66040000Y-59690000D03*
G04 #@! TD*
G04 #@! TO.P,R1,1*
G04 #@! TO.N,Net-(R1-Pad1)*
X55118000Y-46228000D03*
D18*
G04 #@! TO.P,R1,2*
G04 #@! TO.N,/+13V*
X62738000Y-46228000D03*
G04 #@! TD*
D22*
G04 #@! TO.N,Net-(D2-Pad1)*
X52705000Y-55245000D03*
G04 #@! TD*
D23*
G04 #@! TO.N,/TX_GROUND*
X41783000Y-53721000D02*
X41783000Y-58928000D01*
X41783000Y-58928000D02*
X41910000Y-59055000D01*
G04 #@! TO.N,/+5V*
X33020000Y-53340000D02*
X34290000Y-53340000D01*
X34290000Y-53340000D02*
X35560000Y-52070000D01*
X35560000Y-52070000D02*
X35560000Y-46990000D01*
X35560000Y-46990000D02*
X34290000Y-45720000D01*
X34290000Y-45720000D02*
X33020000Y-45720000D01*
G04 #@! TO.N,/TX_INH*
X45085001Y-40728001D02*
X47486200Y-43129200D01*
X45085000Y-39370000D02*
X45085001Y-40728001D01*
X57697001Y-53340001D02*
X76327001Y-53340001D01*
X47486200Y-43129200D02*
X57697001Y-53340001D01*
X76327001Y-53340001D02*
X77482700Y-54495700D01*
G04 #@! TO.N,/+13V*
X92608402Y-39370000D02*
X92456000Y-39370000D01*
G04 #@! TO.N,Net-(D2-Pad1)*
X66040000Y-59690000D02*
X57150000Y-59690000D01*
X57150000Y-59690000D02*
X52705000Y-55245000D01*
X52705000Y-55245000D02*
X52705000Y-55245000D01*
G04 #@! TO.N,Net-(D1-Pad1)*
X64897011Y-54102011D02*
X66040000Y-55245000D01*
X52832011Y-54102011D02*
X64897011Y-54102011D01*
X48260000Y-49530000D02*
X52832011Y-54102011D01*
X48260000Y-49530000D02*
X41910000Y-49530000D01*
X41910000Y-49530000D02*
X35560000Y-43180000D01*
X35560000Y-43180000D02*
X33020000Y-43180000D01*
G04 #@! TO.N,Net-(SW2-Pad1)*
X80010000Y-46990000D02*
X80010000Y-64770000D01*
X80010000Y-64770000D02*
X77470000Y-67310000D01*
X73748000Y-44450000D02*
X75018000Y-45720000D01*
X72390000Y-44450000D02*
X73748000Y-44450000D01*
X78638402Y-45720000D02*
X79908402Y-46990000D01*
X75018000Y-45720000D02*
X78638402Y-45720000D01*
G04 #@! TO.N,Net-(FB1-Pad2)*
X33020000Y-68580000D02*
X43180000Y-68580000D01*
G04 #@! TO.N,Net-(FB2-Pad2)*
X33020000Y-71120000D02*
X43180000Y-71120000D01*
G04 #@! TD*
D24*
G04 #@! TO.N,GND*
G36*
X27411583Y-30328315D02*
X27411431Y-30328416D01*
X27124862Y-30755256D01*
X29210000Y-32840395D01*
X31295138Y-30755256D01*
X31008569Y-30328416D01*
X30022645Y-29920000D01*
X98247419Y-29920000D01*
X97261583Y-30328315D01*
X97261431Y-30328416D01*
X96974862Y-30755256D01*
X99060000Y-32840395D01*
X101145138Y-30755256D01*
X100858569Y-30328416D01*
X99872645Y-29920000D01*
X102160000Y-29920000D01*
X102160000Y-32207420D01*
X101751685Y-31221583D01*
X101751584Y-31221431D01*
X101324744Y-30934862D01*
X99239605Y-33020000D01*
X101324744Y-35105138D01*
X101751584Y-34818569D01*
X102160000Y-33832645D01*
X102160001Y-79197422D01*
X101751685Y-78211583D01*
X101751584Y-78211431D01*
X101324744Y-77924862D01*
X99239605Y-80010000D01*
X101324744Y-82095138D01*
X101751584Y-81808569D01*
X102160001Y-80822643D01*
X102160001Y-83110000D01*
X99872581Y-83110000D01*
X100858417Y-82701685D01*
X100858569Y-82701584D01*
X101145138Y-82274744D01*
X99060000Y-80189605D01*
X96974862Y-82274744D01*
X97261431Y-82701584D01*
X98247355Y-83110000D01*
X30022581Y-83110000D01*
X31008417Y-82701685D01*
X31008569Y-82701584D01*
X31295138Y-82274744D01*
X29210000Y-80189605D01*
X27124862Y-82274744D01*
X27411431Y-82701584D01*
X28397355Y-83110000D01*
X26110000Y-83110000D01*
X26110000Y-80822581D01*
X26518315Y-81808417D01*
X26518416Y-81808569D01*
X26945256Y-82095138D01*
X29030395Y-80010000D01*
X29389605Y-80010000D01*
X31474744Y-82095138D01*
X31901584Y-81808569D01*
X32384982Y-80641637D01*
X32384982Y-80641457D01*
X95884982Y-80641457D01*
X96368315Y-81808417D01*
X96368416Y-81808569D01*
X96795256Y-82095138D01*
X98880395Y-80010000D01*
X96795256Y-77924862D01*
X96368416Y-78211431D01*
X95885018Y-79378363D01*
X95884982Y-80641457D01*
X32384982Y-80641457D01*
X32385018Y-79378543D01*
X31901685Y-78211583D01*
X31901584Y-78211431D01*
X31474744Y-77924862D01*
X29389605Y-80010000D01*
X29030395Y-80010000D01*
X26945256Y-77924862D01*
X26518416Y-78211431D01*
X26110000Y-79197355D01*
X26110000Y-77745256D01*
X27124862Y-77745256D01*
X29210000Y-79830395D01*
X31295138Y-77745256D01*
X96974862Y-77745256D01*
X99060000Y-79830395D01*
X101145138Y-77745256D01*
X100858569Y-77318416D01*
X99691637Y-76835018D01*
X98428543Y-76834982D01*
X97261583Y-77318315D01*
X97261431Y-77318416D01*
X96974862Y-77745256D01*
X31295138Y-77745256D01*
X31008569Y-77318416D01*
X29841637Y-76835018D01*
X28578543Y-76834982D01*
X27411583Y-77318315D01*
X27411431Y-77318416D01*
X27124862Y-77745256D01*
X26110000Y-77745256D01*
X26110000Y-74016890D01*
X31578524Y-74016890D01*
X31748355Y-74426924D01*
X32138642Y-74855183D01*
X32663108Y-75101486D01*
X32893000Y-74980819D01*
X32893000Y-73787000D01*
X33147000Y-73787000D01*
X33147000Y-74980819D01*
X33376892Y-75101486D01*
X33901358Y-74855183D01*
X34291645Y-74426924D01*
X34461476Y-74016890D01*
X34340155Y-73787000D01*
X33147000Y-73787000D01*
X32893000Y-73787000D01*
X31699845Y-73787000D01*
X31578524Y-74016890D01*
X26110000Y-74016890D01*
X26110000Y-67730000D01*
X31522560Y-67730000D01*
X31522560Y-69430000D01*
X31571843Y-69677765D01*
X31686928Y-69850000D01*
X31571843Y-70022235D01*
X31522560Y-70270000D01*
X31522560Y-71970000D01*
X31571843Y-72217765D01*
X31712191Y-72427809D01*
X31922235Y-72568157D01*
X32025708Y-72588739D01*
X31748355Y-72893076D01*
X31578524Y-73303110D01*
X31699845Y-73533000D01*
X32893000Y-73533000D01*
X32893000Y-73513000D01*
X33147000Y-73513000D01*
X33147000Y-73533000D01*
X34340155Y-73533000D01*
X34392078Y-73434610D01*
X53744995Y-73434610D01*
X53825378Y-73686004D01*
X54381063Y-73887614D01*
X54971602Y-73861225D01*
X55394622Y-73686004D01*
X55475005Y-73434610D01*
X58824995Y-73434610D01*
X58905378Y-73686004D01*
X59461063Y-73887614D01*
X60051602Y-73861225D01*
X60474622Y-73686004D01*
X60555005Y-73434610D01*
X59690000Y-72569605D01*
X58824995Y-73434610D01*
X55475005Y-73434610D01*
X54610000Y-72569605D01*
X53744995Y-73434610D01*
X34392078Y-73434610D01*
X34461476Y-73303110D01*
X34291645Y-72893076D01*
X34014292Y-72588739D01*
X34117765Y-72568157D01*
X34327809Y-72427809D01*
X34468157Y-72217765D01*
X34509682Y-72009000D01*
X42168421Y-72009000D01*
X42217519Y-72082481D01*
X42659109Y-72377542D01*
X43048515Y-72455000D01*
X43311485Y-72455000D01*
X43700891Y-72377542D01*
X44142481Y-72082481D01*
X44437542Y-71640891D01*
X44541154Y-71120000D01*
X44437542Y-70599109D01*
X44142481Y-70157519D01*
X43700891Y-69862458D01*
X43638261Y-69850000D01*
X43700891Y-69837542D01*
X44142481Y-69542481D01*
X44437542Y-69100891D01*
X44541154Y-68580000D01*
X44488334Y-68314452D01*
X49465000Y-68314452D01*
X49465000Y-68845548D01*
X49668242Y-69336217D01*
X50043783Y-69711758D01*
X50377528Y-69850000D01*
X50043783Y-69988242D01*
X49668242Y-70363783D01*
X49465000Y-70854452D01*
X49465000Y-71385548D01*
X49668242Y-71876217D01*
X50043783Y-72251758D01*
X50534452Y-72455000D01*
X51065548Y-72455000D01*
X51556217Y-72251758D01*
X51646912Y-72161063D01*
X53112386Y-72161063D01*
X53138775Y-72751602D01*
X53313996Y-73174622D01*
X53565390Y-73255005D01*
X54430395Y-72390000D01*
X54789605Y-72390000D01*
X55654610Y-73255005D01*
X55906004Y-73174622D01*
X56107614Y-72618937D01*
X56087154Y-72161063D01*
X58192386Y-72161063D01*
X58218775Y-72751602D01*
X58393996Y-73174622D01*
X58645390Y-73255005D01*
X59510395Y-72390000D01*
X59869605Y-72390000D01*
X60734610Y-73255005D01*
X60986004Y-73174622D01*
X61187614Y-72618937D01*
X61161225Y-72028398D01*
X60986004Y-71605378D01*
X60734610Y-71524995D01*
X59869605Y-72390000D01*
X59510395Y-72390000D01*
X58645390Y-71524995D01*
X58393996Y-71605378D01*
X58192386Y-72161063D01*
X56087154Y-72161063D01*
X56081225Y-72028398D01*
X55906004Y-71605378D01*
X55654610Y-71524995D01*
X54789605Y-72390000D01*
X54430395Y-72390000D01*
X53565390Y-71524995D01*
X53313996Y-71605378D01*
X53112386Y-72161063D01*
X51646912Y-72161063D01*
X51931758Y-71876217D01*
X52135000Y-71385548D01*
X52135000Y-70854452D01*
X51931758Y-70363783D01*
X51556217Y-69988242D01*
X51222472Y-69850000D01*
X51556217Y-69711758D01*
X51931758Y-69336217D01*
X52135000Y-68845548D01*
X52135000Y-68314452D01*
X51931758Y-67823783D01*
X51556217Y-67448242D01*
X51065548Y-67245000D01*
X50534452Y-67245000D01*
X50043783Y-67448242D01*
X49668242Y-67823783D01*
X49465000Y-68314452D01*
X44488334Y-68314452D01*
X44437542Y-68059109D01*
X44142481Y-67617519D01*
X43700891Y-67322458D01*
X43311485Y-67245000D01*
X43048515Y-67245000D01*
X42659109Y-67322458D01*
X42217519Y-67617519D01*
X42168421Y-67691000D01*
X34509682Y-67691000D01*
X34468157Y-67482235D01*
X34327809Y-67272191D01*
X34117765Y-67131843D01*
X34014292Y-67111261D01*
X34102532Y-67014436D01*
X53124100Y-67014436D01*
X53124100Y-67605564D01*
X53350314Y-68151695D01*
X53768305Y-68569686D01*
X53793205Y-68580000D01*
X53768305Y-68590314D01*
X53350314Y-69008305D01*
X53124100Y-69554436D01*
X53124100Y-70145564D01*
X53350314Y-70691695D01*
X53768305Y-71109686D01*
X53814273Y-71128726D01*
X53744995Y-71345390D01*
X54610000Y-72210395D01*
X55475005Y-71345390D01*
X55405727Y-71128726D01*
X55451695Y-71109686D01*
X55869686Y-70691695D01*
X56095900Y-70145564D01*
X56095900Y-69554436D01*
X55869686Y-69008305D01*
X55451695Y-68590314D01*
X55426795Y-68580000D01*
X55451695Y-68569686D01*
X55869686Y-68151695D01*
X56095900Y-67605564D01*
X56095900Y-67014436D01*
X58204100Y-67014436D01*
X58204100Y-67605564D01*
X58430314Y-68151695D01*
X58848305Y-68569686D01*
X58873205Y-68580000D01*
X58848305Y-68590314D01*
X58430314Y-69008305D01*
X58204100Y-69554436D01*
X58204100Y-70145564D01*
X58430314Y-70691695D01*
X58848305Y-71109686D01*
X58894273Y-71128726D01*
X58824995Y-71345390D01*
X59690000Y-72210395D01*
X60555005Y-71345390D01*
X60485727Y-71128726D01*
X60531695Y-71109686D01*
X60949686Y-70691695D01*
X61175900Y-70145564D01*
X61175900Y-69554436D01*
X63284100Y-69554436D01*
X63284100Y-70145564D01*
X63510314Y-70691695D01*
X63928305Y-71109686D01*
X63953205Y-71120000D01*
X63928305Y-71130314D01*
X63510314Y-71548305D01*
X63284100Y-72094436D01*
X63284100Y-72685564D01*
X63510314Y-73231695D01*
X63928305Y-73649686D01*
X63953205Y-73660000D01*
X63928305Y-73670314D01*
X63510314Y-74088305D01*
X63284100Y-74634436D01*
X63284100Y-75225564D01*
X63510314Y-75771695D01*
X63928305Y-76189686D01*
X64474436Y-76415900D01*
X65065564Y-76415900D01*
X65611695Y-76189686D01*
X66029686Y-75771695D01*
X66255900Y-75225564D01*
X66255900Y-74634436D01*
X66029686Y-74088305D01*
X65611695Y-73670314D01*
X65586795Y-73660000D01*
X65611695Y-73649686D01*
X66029686Y-73231695D01*
X66255900Y-72685564D01*
X66255900Y-72094436D01*
X66029686Y-71548305D01*
X65611695Y-71130314D01*
X65586795Y-71120000D01*
X65611695Y-71109686D01*
X66029686Y-70691695D01*
X66255900Y-70145564D01*
X66255900Y-69554436D01*
X68364100Y-69554436D01*
X68364100Y-70145564D01*
X68590314Y-70691695D01*
X69008305Y-71109686D01*
X69033205Y-71120000D01*
X69008305Y-71130314D01*
X68590314Y-71548305D01*
X68364100Y-72094436D01*
X68364100Y-72685564D01*
X68590314Y-73231695D01*
X69008305Y-73649686D01*
X69033205Y-73660000D01*
X69008305Y-73670314D01*
X68590314Y-74088305D01*
X68364100Y-74634436D01*
X68364100Y-75225564D01*
X68590314Y-75771695D01*
X69008305Y-76189686D01*
X69554436Y-76415900D01*
X70145564Y-76415900D01*
X70691695Y-76189686D01*
X71109686Y-75771695D01*
X71335900Y-75225564D01*
X71335900Y-74634436D01*
X71109686Y-74088305D01*
X70691695Y-73670314D01*
X70666795Y-73660000D01*
X70691695Y-73649686D01*
X71109686Y-73231695D01*
X71335900Y-72685564D01*
X71335900Y-72094436D01*
X71109686Y-71548305D01*
X70691695Y-71130314D01*
X70666795Y-71120000D01*
X70691695Y-71109686D01*
X71109686Y-70691695D01*
X71335900Y-70145564D01*
X71335900Y-69554436D01*
X71109686Y-69008305D01*
X70691695Y-68590314D01*
X70145564Y-68364100D01*
X69554436Y-68364100D01*
X69008305Y-68590314D01*
X68590314Y-69008305D01*
X68364100Y-69554436D01*
X66255900Y-69554436D01*
X66029686Y-69008305D01*
X65611695Y-68590314D01*
X65065564Y-68364100D01*
X64474436Y-68364100D01*
X63928305Y-68590314D01*
X63510314Y-69008305D01*
X63284100Y-69554436D01*
X61175900Y-69554436D01*
X60949686Y-69008305D01*
X60531695Y-68590314D01*
X60506795Y-68580000D01*
X60531695Y-68569686D01*
X60949686Y-68151695D01*
X61175900Y-67605564D01*
X61175900Y-67014436D01*
X60949686Y-66468305D01*
X60531695Y-66050314D01*
X59985564Y-65824100D01*
X59394436Y-65824100D01*
X58848305Y-66050314D01*
X58430314Y-66468305D01*
X58204100Y-67014436D01*
X56095900Y-67014436D01*
X55869686Y-66468305D01*
X55451695Y-66050314D01*
X54905564Y-65824100D01*
X54314436Y-65824100D01*
X53768305Y-66050314D01*
X53350314Y-66468305D01*
X53124100Y-67014436D01*
X34102532Y-67014436D01*
X34291645Y-66806924D01*
X34461476Y-66396890D01*
X34340155Y-66167000D01*
X33147000Y-66167000D01*
X33147000Y-66187000D01*
X32893000Y-66187000D01*
X32893000Y-66167000D01*
X31699845Y-66167000D01*
X31578524Y-66396890D01*
X31748355Y-66806924D01*
X32025708Y-67111261D01*
X31922235Y-67131843D01*
X31712191Y-67272191D01*
X31571843Y-67482235D01*
X31522560Y-67730000D01*
X26110000Y-67730000D01*
X26110000Y-65683110D01*
X31578524Y-65683110D01*
X31699845Y-65913000D01*
X32893000Y-65913000D01*
X32893000Y-64719181D01*
X33147000Y-64719181D01*
X33147000Y-65913000D01*
X34340155Y-65913000D01*
X34461476Y-65683110D01*
X34291645Y-65273076D01*
X33901358Y-64844817D01*
X33376892Y-64598514D01*
X33147000Y-64719181D01*
X32893000Y-64719181D01*
X32663108Y-64598514D01*
X32138642Y-64844817D01*
X31748355Y-65273076D01*
X31578524Y-65683110D01*
X26110000Y-65683110D01*
X26110000Y-64484561D01*
X40475000Y-64484561D01*
X40475000Y-65055439D01*
X40693466Y-65582862D01*
X41097138Y-65986534D01*
X41624561Y-66205000D01*
X42195439Y-66205000D01*
X42722862Y-65986534D01*
X43126534Y-65582862D01*
X43345000Y-65055439D01*
X43345000Y-64770000D01*
X48066887Y-64770000D01*
X48178260Y-65329909D01*
X48495423Y-65804577D01*
X48970091Y-66121740D01*
X49388667Y-66205000D01*
X49671333Y-66205000D01*
X50089909Y-66121740D01*
X50564577Y-65804577D01*
X50881740Y-65329909D01*
X50993113Y-64770000D01*
X50934322Y-64474436D01*
X63284100Y-64474436D01*
X63284100Y-65065564D01*
X63510314Y-65611695D01*
X63928305Y-66029686D01*
X64474436Y-66255900D01*
X65065564Y-66255900D01*
X65611695Y-66029686D01*
X66029686Y-65611695D01*
X66255900Y-65065564D01*
X66255900Y-64474436D01*
X68364100Y-64474436D01*
X68364100Y-65065564D01*
X68590314Y-65611695D01*
X69008305Y-66029686D01*
X69554436Y-66255900D01*
X70145564Y-66255900D01*
X70691695Y-66029686D01*
X71109686Y-65611695D01*
X71335900Y-65065564D01*
X71335900Y-64474436D01*
X71109686Y-63928305D01*
X70691695Y-63510314D01*
X70145564Y-63284100D01*
X69554436Y-63284100D01*
X69008305Y-63510314D01*
X68590314Y-63928305D01*
X68364100Y-64474436D01*
X66255900Y-64474436D01*
X66029686Y-63928305D01*
X65611695Y-63510314D01*
X65065564Y-63284100D01*
X64474436Y-63284100D01*
X63928305Y-63510314D01*
X63510314Y-63928305D01*
X63284100Y-64474436D01*
X50934322Y-64474436D01*
X50881740Y-64210091D01*
X50564577Y-63735423D01*
X50089909Y-63418260D01*
X49671333Y-63335000D01*
X49388667Y-63335000D01*
X48970091Y-63418260D01*
X48495423Y-63735423D01*
X48178260Y-64210091D01*
X48066887Y-64770000D01*
X43345000Y-64770000D01*
X43345000Y-64484561D01*
X43126534Y-63957138D01*
X42722862Y-63553466D01*
X42195439Y-63335000D01*
X41624561Y-63335000D01*
X41097138Y-63553466D01*
X40693466Y-63957138D01*
X40475000Y-64484561D01*
X26110000Y-64484561D01*
X26110000Y-58705750D01*
X31485000Y-58705750D01*
X31485000Y-59446309D01*
X31581673Y-59679698D01*
X31760301Y-59858327D01*
X31895044Y-59914139D01*
X31718690Y-60090493D01*
X31485000Y-60654670D01*
X31485000Y-61265330D01*
X31718690Y-61829507D01*
X32150493Y-62261310D01*
X32714670Y-62495000D01*
X33325330Y-62495000D01*
X33889507Y-62261310D01*
X34216381Y-61934436D01*
X53124100Y-61934436D01*
X53124100Y-62525564D01*
X53350314Y-63071695D01*
X53768305Y-63489686D01*
X54314436Y-63715900D01*
X54905564Y-63715900D01*
X55451695Y-63489686D01*
X55869686Y-63071695D01*
X56095900Y-62525564D01*
X56095900Y-61934436D01*
X58204100Y-61934436D01*
X58204100Y-62525564D01*
X58430314Y-63071695D01*
X58848305Y-63489686D01*
X59394436Y-63715900D01*
X59985564Y-63715900D01*
X60531695Y-63489686D01*
X60949686Y-63071695D01*
X61175900Y-62525564D01*
X61175900Y-61934436D01*
X60949686Y-61388305D01*
X60531695Y-60970314D01*
X59985564Y-60744100D01*
X59394436Y-60744100D01*
X58848305Y-60970314D01*
X58430314Y-61388305D01*
X58204100Y-61934436D01*
X56095900Y-61934436D01*
X55869686Y-61388305D01*
X55451695Y-60970314D01*
X54905564Y-60744100D01*
X54314436Y-60744100D01*
X53768305Y-60970314D01*
X53350314Y-61388305D01*
X53124100Y-61934436D01*
X34216381Y-61934436D01*
X34321310Y-61829507D01*
X34555000Y-61265330D01*
X34555000Y-60654670D01*
X34321310Y-60090493D01*
X34144956Y-59914139D01*
X34279699Y-59858327D01*
X34458327Y-59679698D01*
X34555000Y-59446309D01*
X34555000Y-58705750D01*
X34396250Y-58547000D01*
X33147000Y-58547000D01*
X33147000Y-58567000D01*
X32893000Y-58567000D01*
X32893000Y-58547000D01*
X31643750Y-58547000D01*
X31485000Y-58705750D01*
X26110000Y-58705750D01*
X26110000Y-57393691D01*
X31485000Y-57393691D01*
X31485000Y-58134250D01*
X31643750Y-58293000D01*
X32893000Y-58293000D01*
X32893000Y-57043750D01*
X33147000Y-57043750D01*
X33147000Y-58293000D01*
X34396250Y-58293000D01*
X34555000Y-58134250D01*
X34555000Y-57393691D01*
X34458327Y-57160302D01*
X34279699Y-56981673D01*
X34046310Y-56885000D01*
X33305750Y-56885000D01*
X33147000Y-57043750D01*
X32893000Y-57043750D01*
X32734250Y-56885000D01*
X31993690Y-56885000D01*
X31760301Y-56981673D01*
X31581673Y-57160302D01*
X31485000Y-57393691D01*
X26110000Y-57393691D01*
X26110000Y-42280000D01*
X31472560Y-42280000D01*
X31472560Y-44080000D01*
X31521843Y-44327765D01*
X31662191Y-44537809D01*
X31872235Y-44678157D01*
X31887908Y-44681275D01*
X31718690Y-44850493D01*
X31485000Y-45414670D01*
X31485000Y-46025330D01*
X31718690Y-46589507D01*
X32150493Y-47021310D01*
X32714670Y-47255000D01*
X33325330Y-47255000D01*
X33889507Y-47021310D01*
X34111791Y-46799026D01*
X34671001Y-47358237D01*
X34671000Y-51701764D01*
X34541288Y-51831476D01*
X34567440Y-51700000D01*
X34567440Y-49900000D01*
X34518157Y-49652235D01*
X34377809Y-49442191D01*
X34167765Y-49301843D01*
X33920000Y-49252560D01*
X32120000Y-49252560D01*
X31872235Y-49301843D01*
X31662191Y-49442191D01*
X31521843Y-49652235D01*
X31472560Y-49900000D01*
X31472560Y-51700000D01*
X31521843Y-51947765D01*
X31662191Y-52157809D01*
X31872235Y-52298157D01*
X31887908Y-52301275D01*
X31718690Y-52470493D01*
X31485000Y-53034670D01*
X31485000Y-53645330D01*
X31718690Y-54209507D01*
X32150493Y-54641310D01*
X32714670Y-54875000D01*
X33325330Y-54875000D01*
X33889507Y-54641310D01*
X34285330Y-54245487D01*
X34290000Y-54246416D01*
X34377555Y-54229000D01*
X34377556Y-54229000D01*
X34636870Y-54177419D01*
X34930933Y-53980933D01*
X34980531Y-53906704D01*
X35461799Y-53425436D01*
X40297100Y-53425436D01*
X40297100Y-54016564D01*
X40523314Y-54562695D01*
X40894000Y-54933381D01*
X40894001Y-58041603D01*
X40693466Y-58242138D01*
X40475000Y-58769561D01*
X40475000Y-59340439D01*
X40693466Y-59867862D01*
X41097138Y-60271534D01*
X41624561Y-60490000D01*
X42195439Y-60490000D01*
X42722862Y-60271534D01*
X43126534Y-59867862D01*
X43345000Y-59340439D01*
X43345000Y-59055000D01*
X48066887Y-59055000D01*
X48178260Y-59614909D01*
X48495423Y-60089577D01*
X48970091Y-60406740D01*
X49388667Y-60490000D01*
X49671333Y-60490000D01*
X50089909Y-60406740D01*
X50564577Y-60089577D01*
X50881740Y-59614909D01*
X50993113Y-59055000D01*
X50881740Y-58495091D01*
X50564577Y-58020423D01*
X50089909Y-57703260D01*
X49671333Y-57620000D01*
X49388667Y-57620000D01*
X48970091Y-57703260D01*
X48495423Y-58020423D01*
X48178260Y-58495091D01*
X48066887Y-59055000D01*
X43345000Y-59055000D01*
X43345000Y-58769561D01*
X43126534Y-58242138D01*
X42722862Y-57838466D01*
X42672000Y-57817398D01*
X42672000Y-54933381D01*
X42839771Y-54765610D01*
X43457995Y-54765610D01*
X43538378Y-55017004D01*
X44094063Y-55218614D01*
X44684602Y-55192225D01*
X45107622Y-55017004D01*
X45188005Y-54765610D01*
X44323000Y-53900605D01*
X43457995Y-54765610D01*
X42839771Y-54765610D01*
X43042686Y-54562695D01*
X43061726Y-54516727D01*
X43278390Y-54586005D01*
X44143395Y-53721000D01*
X44502605Y-53721000D01*
X45367610Y-54586005D01*
X45584274Y-54516727D01*
X45603314Y-54562695D01*
X46021305Y-54980686D01*
X46567436Y-55206900D01*
X47158564Y-55206900D01*
X47704695Y-54980686D01*
X48122686Y-54562695D01*
X48348900Y-54016564D01*
X48348900Y-53425436D01*
X48122686Y-52879305D01*
X47704695Y-52461314D01*
X47158564Y-52235100D01*
X46567436Y-52235100D01*
X46021305Y-52461314D01*
X45603314Y-52879305D01*
X45584274Y-52925273D01*
X45367610Y-52855995D01*
X44502605Y-53721000D01*
X44143395Y-53721000D01*
X43278390Y-52855995D01*
X43061726Y-52925273D01*
X43042686Y-52879305D01*
X42839771Y-52676390D01*
X43457995Y-52676390D01*
X44323000Y-53541395D01*
X45188005Y-52676390D01*
X45107622Y-52424996D01*
X44551937Y-52223386D01*
X43961398Y-52249775D01*
X43538378Y-52424996D01*
X43457995Y-52676390D01*
X42839771Y-52676390D01*
X42624695Y-52461314D01*
X42078564Y-52235100D01*
X41487436Y-52235100D01*
X40941305Y-52461314D01*
X40523314Y-52879305D01*
X40297100Y-53425436D01*
X35461799Y-53425436D01*
X36126707Y-52760529D01*
X36200933Y-52710933D01*
X36397419Y-52416870D01*
X36449000Y-52157556D01*
X36449000Y-52157552D01*
X36466415Y-52070001D01*
X36449000Y-51982450D01*
X36449000Y-47077550D01*
X36466415Y-46989999D01*
X36449000Y-46902448D01*
X36449000Y-46902444D01*
X36397419Y-46643130D01*
X36200933Y-46349067D01*
X36126707Y-46299471D01*
X34980531Y-45153296D01*
X34930933Y-45079067D01*
X34636870Y-44882581D01*
X34377556Y-44831000D01*
X34377555Y-44831000D01*
X34290000Y-44813584D01*
X34285330Y-44814513D01*
X34152092Y-44681275D01*
X34167765Y-44678157D01*
X34377809Y-44537809D01*
X34518157Y-44327765D01*
X34567440Y-44080000D01*
X34567440Y-44069000D01*
X35191765Y-44069000D01*
X41219470Y-50096706D01*
X41269067Y-50170933D01*
X41563130Y-50367419D01*
X41822444Y-50419000D01*
X41909999Y-50436416D01*
X41997554Y-50419000D01*
X47891765Y-50419000D01*
X51903159Y-54430394D01*
X51736011Y-54597542D01*
X51562000Y-55017643D01*
X51562000Y-55472357D01*
X51736011Y-55892458D01*
X52057542Y-56213989D01*
X52477643Y-56388000D01*
X52590765Y-56388000D01*
X56459471Y-60256707D01*
X56509067Y-60330933D01*
X56803130Y-60527419D01*
X57062444Y-60579000D01*
X57062448Y-60579000D01*
X57149999Y-60596415D01*
X57237550Y-60579000D01*
X64899604Y-60579000D01*
X65227138Y-60906534D01*
X65754561Y-61125000D01*
X66325439Y-61125000D01*
X66852862Y-60906534D01*
X67256534Y-60502862D01*
X67475000Y-59975439D01*
X67475000Y-59690000D01*
X72196887Y-59690000D01*
X72308260Y-60249909D01*
X72625423Y-60724577D01*
X73100091Y-61041740D01*
X73518667Y-61125000D01*
X73801333Y-61125000D01*
X74219909Y-61041740D01*
X74694577Y-60724577D01*
X75011740Y-60249909D01*
X75123113Y-59690000D01*
X75011740Y-59130091D01*
X74694577Y-58655423D01*
X74219909Y-58338260D01*
X73801333Y-58255000D01*
X73518667Y-58255000D01*
X73100091Y-58338260D01*
X72625423Y-58655423D01*
X72308260Y-59130091D01*
X72196887Y-59690000D01*
X67475000Y-59690000D01*
X67475000Y-59404561D01*
X67256534Y-58877138D01*
X66852862Y-58473466D01*
X66325439Y-58255000D01*
X65754561Y-58255000D01*
X65227138Y-58473466D01*
X64899604Y-58801000D01*
X57518236Y-58801000D01*
X53848000Y-55130765D01*
X53848000Y-55017643D01*
X53836969Y-54991011D01*
X64528776Y-54991011D01*
X64605000Y-55067235D01*
X64605000Y-55530439D01*
X64823466Y-56057862D01*
X65227138Y-56461534D01*
X65754561Y-56680000D01*
X66325439Y-56680000D01*
X66852862Y-56461534D01*
X67256534Y-56057862D01*
X67475000Y-55530439D01*
X67475000Y-54959561D01*
X67256534Y-54432138D01*
X67053397Y-54229001D01*
X72613010Y-54229001D01*
X72308260Y-54685091D01*
X72196887Y-55245000D01*
X72308260Y-55804909D01*
X72625423Y-56279577D01*
X73100091Y-56596740D01*
X73518667Y-56680000D01*
X73801333Y-56680000D01*
X74219909Y-56596740D01*
X74694577Y-56279577D01*
X75011740Y-55804909D01*
X75123113Y-55245000D01*
X75011740Y-54685091D01*
X74706990Y-54229001D01*
X75958766Y-54229001D01*
X76073000Y-54343235D01*
X76073000Y-54887881D01*
X76285680Y-55401337D01*
X76678663Y-55794320D01*
X76885513Y-55880000D01*
X76678663Y-55965680D01*
X76285680Y-56358663D01*
X76073000Y-56872119D01*
X76073000Y-57427881D01*
X76285680Y-57941337D01*
X76678663Y-58334320D01*
X76885513Y-58420000D01*
X76678663Y-58505680D01*
X76285680Y-58898663D01*
X76073000Y-59412119D01*
X76073000Y-59967881D01*
X76285680Y-60481337D01*
X76678663Y-60874320D01*
X76885513Y-60960000D01*
X76678663Y-61045680D01*
X76285680Y-61438663D01*
X76073000Y-61952119D01*
X76073000Y-62507881D01*
X76285680Y-63021337D01*
X76678663Y-63414320D01*
X76885513Y-63500000D01*
X76678663Y-63585680D01*
X76285680Y-63978663D01*
X76073000Y-64492119D01*
X76073000Y-65047881D01*
X76285680Y-65561337D01*
X76678663Y-65954320D01*
X76885513Y-66040000D01*
X76678663Y-66125680D01*
X76285680Y-66518663D01*
X76073000Y-67032119D01*
X76073000Y-67587881D01*
X76285680Y-68101337D01*
X76678663Y-68494320D01*
X76885513Y-68580000D01*
X76678663Y-68665680D01*
X76285680Y-69058663D01*
X76073000Y-69572119D01*
X76073000Y-70127881D01*
X76285680Y-70641337D01*
X76678663Y-71034320D01*
X76885513Y-71120000D01*
X76678663Y-71205680D01*
X76285680Y-71598663D01*
X76073000Y-72112119D01*
X76073000Y-72667881D01*
X76285680Y-73181337D01*
X76678663Y-73574320D01*
X76885513Y-73660000D01*
X76678663Y-73745680D01*
X76285680Y-74138663D01*
X76073000Y-74652119D01*
X76073000Y-75207881D01*
X76285680Y-75721337D01*
X76678663Y-76114320D01*
X77192119Y-76327000D01*
X77747881Y-76327000D01*
X78261337Y-76114320D01*
X78654320Y-75721337D01*
X78867000Y-75207881D01*
X78867000Y-74652119D01*
X78654320Y-74138663D01*
X78261337Y-73745680D01*
X78054487Y-73660000D01*
X78261337Y-73574320D01*
X78654320Y-73181337D01*
X78867000Y-72667881D01*
X78867000Y-72112119D01*
X78654320Y-71598663D01*
X78261337Y-71205680D01*
X78054487Y-71120000D01*
X78261337Y-71034320D01*
X78654320Y-70641337D01*
X78867000Y-70127881D01*
X78867000Y-69572119D01*
X78654320Y-69058663D01*
X78261337Y-68665680D01*
X78054487Y-68580000D01*
X78261337Y-68494320D01*
X78654320Y-68101337D01*
X78867000Y-67587881D01*
X78867000Y-67170235D01*
X80576707Y-65460529D01*
X80650933Y-65410933D01*
X80847419Y-65116870D01*
X80899000Y-64857556D01*
X80899000Y-64857552D01*
X80916415Y-64770001D01*
X80899000Y-64682450D01*
X80899000Y-46902444D01*
X80847419Y-46643130D01*
X80650933Y-46349067D01*
X80356869Y-46152581D01*
X80321105Y-46145467D01*
X79328933Y-45153296D01*
X79279335Y-45079067D01*
X78985272Y-44882581D01*
X78816802Y-44849070D01*
X78867000Y-44727881D01*
X78867000Y-44172119D01*
X78654320Y-43658663D01*
X78261337Y-43265680D01*
X78054487Y-43180000D01*
X78261337Y-43094320D01*
X78654320Y-42701337D01*
X78863740Y-42195750D01*
X91313000Y-42195750D01*
X91313000Y-42798309D01*
X91409673Y-43031698D01*
X91588301Y-43210327D01*
X91821690Y-43307000D01*
X91877343Y-43307000D01*
X91525680Y-43658663D01*
X91313000Y-44172119D01*
X91313000Y-44727881D01*
X91525680Y-45241337D01*
X91918663Y-45634320D01*
X92125513Y-45720000D01*
X91918663Y-45805680D01*
X91525680Y-46198663D01*
X91313000Y-46712119D01*
X91313000Y-47267881D01*
X91525680Y-47781337D01*
X91918663Y-48174320D01*
X92125513Y-48260000D01*
X91918663Y-48345680D01*
X91525680Y-48738663D01*
X91313000Y-49252119D01*
X91313000Y-49807881D01*
X91525680Y-50321337D01*
X91918663Y-50714320D01*
X92125513Y-50800000D01*
X91918663Y-50885680D01*
X91525680Y-51278663D01*
X91313000Y-51792119D01*
X91313000Y-52347881D01*
X91525680Y-52861337D01*
X91918663Y-53254320D01*
X92125513Y-53340000D01*
X91918663Y-53425680D01*
X91525680Y-53818663D01*
X91313000Y-54332119D01*
X91313000Y-54887881D01*
X91525680Y-55401337D01*
X91918663Y-55794320D01*
X92125513Y-55880000D01*
X91918663Y-55965680D01*
X91525680Y-56358663D01*
X91313000Y-56872119D01*
X91313000Y-57427881D01*
X91525680Y-57941337D01*
X91918663Y-58334320D01*
X92125513Y-58420000D01*
X91918663Y-58505680D01*
X91525680Y-58898663D01*
X91313000Y-59412119D01*
X91313000Y-59967881D01*
X91525680Y-60481337D01*
X91918663Y-60874320D01*
X92125513Y-60960000D01*
X91918663Y-61045680D01*
X91525680Y-61438663D01*
X91313000Y-61952119D01*
X91313000Y-62507881D01*
X91525680Y-63021337D01*
X91918663Y-63414320D01*
X92125513Y-63500000D01*
X91918663Y-63585680D01*
X91525680Y-63978663D01*
X91313000Y-64492119D01*
X91313000Y-65047881D01*
X91525680Y-65561337D01*
X91918663Y-65954320D01*
X92125513Y-66040000D01*
X91918663Y-66125680D01*
X91525680Y-66518663D01*
X91313000Y-67032119D01*
X91313000Y-67587881D01*
X91525680Y-68101337D01*
X91918663Y-68494320D01*
X92125513Y-68580000D01*
X91918663Y-68665680D01*
X91525680Y-69058663D01*
X91313000Y-69572119D01*
X91313000Y-70127881D01*
X91525680Y-70641337D01*
X91918663Y-71034320D01*
X92125513Y-71120000D01*
X91918663Y-71205680D01*
X91525680Y-71598663D01*
X91313000Y-72112119D01*
X91313000Y-72667881D01*
X91525680Y-73181337D01*
X91918663Y-73574320D01*
X92125513Y-73660000D01*
X91918663Y-73745680D01*
X91525680Y-74138663D01*
X91313000Y-74652119D01*
X91313000Y-75207881D01*
X91525680Y-75721337D01*
X91918663Y-76114320D01*
X92432119Y-76327000D01*
X92987881Y-76327000D01*
X93501337Y-76114320D01*
X93894320Y-75721337D01*
X94107000Y-75207881D01*
X94107000Y-74652119D01*
X93894320Y-74138663D01*
X93501337Y-73745680D01*
X93294487Y-73660000D01*
X93501337Y-73574320D01*
X93894320Y-73181337D01*
X94107000Y-72667881D01*
X94107000Y-72112119D01*
X93894320Y-71598663D01*
X93501337Y-71205680D01*
X93294487Y-71120000D01*
X93501337Y-71034320D01*
X93894320Y-70641337D01*
X94107000Y-70127881D01*
X94107000Y-69572119D01*
X93894320Y-69058663D01*
X93501337Y-68665680D01*
X93294487Y-68580000D01*
X93501337Y-68494320D01*
X93894320Y-68101337D01*
X94107000Y-67587881D01*
X94107000Y-67032119D01*
X93894320Y-66518663D01*
X93501337Y-66125680D01*
X93294487Y-66040000D01*
X93501337Y-65954320D01*
X93894320Y-65561337D01*
X94107000Y-65047881D01*
X94107000Y-64492119D01*
X93894320Y-63978663D01*
X93501337Y-63585680D01*
X93294487Y-63500000D01*
X93501337Y-63414320D01*
X93894320Y-63021337D01*
X94107000Y-62507881D01*
X94107000Y-61952119D01*
X93894320Y-61438663D01*
X93501337Y-61045680D01*
X93294487Y-60960000D01*
X93501337Y-60874320D01*
X93894320Y-60481337D01*
X94107000Y-59967881D01*
X94107000Y-59412119D01*
X93894320Y-58898663D01*
X93501337Y-58505680D01*
X93294487Y-58420000D01*
X93501337Y-58334320D01*
X93894320Y-57941337D01*
X94107000Y-57427881D01*
X94107000Y-56872119D01*
X93894320Y-56358663D01*
X93501337Y-55965680D01*
X93294487Y-55880000D01*
X93501337Y-55794320D01*
X93894320Y-55401337D01*
X94107000Y-54887881D01*
X94107000Y-54332119D01*
X93894320Y-53818663D01*
X93501337Y-53425680D01*
X93294487Y-53340000D01*
X93501337Y-53254320D01*
X93894320Y-52861337D01*
X94107000Y-52347881D01*
X94107000Y-51792119D01*
X93894320Y-51278663D01*
X93501337Y-50885680D01*
X93294487Y-50800000D01*
X93501337Y-50714320D01*
X93894320Y-50321337D01*
X94107000Y-49807881D01*
X94107000Y-49252119D01*
X93894320Y-48738663D01*
X93501337Y-48345680D01*
X93294487Y-48260000D01*
X93501337Y-48174320D01*
X93894320Y-47781337D01*
X94107000Y-47267881D01*
X94107000Y-46712119D01*
X93894320Y-46198663D01*
X93501337Y-45805680D01*
X93294487Y-45720000D01*
X93501337Y-45634320D01*
X93894320Y-45241337D01*
X94107000Y-44727881D01*
X94107000Y-44172119D01*
X93894320Y-43658663D01*
X93542657Y-43307000D01*
X93598310Y-43307000D01*
X93831699Y-43210327D01*
X94010327Y-43031698D01*
X94107000Y-42798309D01*
X94107000Y-42195750D01*
X93948250Y-42037000D01*
X92837000Y-42037000D01*
X92837000Y-42057000D01*
X92583000Y-42057000D01*
X92583000Y-42037000D01*
X91471750Y-42037000D01*
X91313000Y-42195750D01*
X78863740Y-42195750D01*
X78867000Y-42187881D01*
X78867000Y-41632119D01*
X78654320Y-41118663D01*
X78261337Y-40725680D01*
X78054487Y-40640000D01*
X78261337Y-40554320D01*
X78654320Y-40161337D01*
X78863740Y-39655750D01*
X81153000Y-39655750D01*
X81153000Y-40258309D01*
X81249673Y-40491698D01*
X81428301Y-40670327D01*
X81661690Y-40767000D01*
X82264250Y-40767000D01*
X82423000Y-40608250D01*
X82423000Y-39497000D01*
X81311750Y-39497000D01*
X81153000Y-39655750D01*
X78863740Y-39655750D01*
X78867000Y-39647881D01*
X78867000Y-39092119D01*
X78654320Y-38578663D01*
X78261337Y-38185680D01*
X77747881Y-37973000D01*
X77192119Y-37973000D01*
X76678663Y-38185680D01*
X76285680Y-38578663D01*
X76073000Y-39092119D01*
X76073000Y-39647881D01*
X76285680Y-40161337D01*
X76678663Y-40554320D01*
X76885513Y-40640000D01*
X76678663Y-40725680D01*
X76285680Y-41118663D01*
X76073000Y-41632119D01*
X76073000Y-42187881D01*
X76285680Y-42701337D01*
X76678663Y-43094320D01*
X76885513Y-43180000D01*
X76678663Y-43265680D01*
X76285680Y-43658663D01*
X76073000Y-44172119D01*
X76073000Y-44727881D01*
X76115713Y-44831000D01*
X75386236Y-44831000D01*
X74438531Y-43883296D01*
X74388933Y-43809067D01*
X74094870Y-43612581D01*
X73881500Y-43570139D01*
X73838157Y-43352235D01*
X73697809Y-43142191D01*
X73487765Y-43001843D01*
X73240000Y-42952560D01*
X71540000Y-42952560D01*
X71292235Y-43001843D01*
X71082191Y-43142191D01*
X70941843Y-43352235D01*
X70892560Y-43600000D01*
X70892560Y-45300000D01*
X70941843Y-45547765D01*
X71082191Y-45757809D01*
X71292235Y-45898157D01*
X71395708Y-45918739D01*
X71118355Y-46223076D01*
X70948524Y-46633110D01*
X71069845Y-46863000D01*
X72263000Y-46863000D01*
X72263000Y-46843000D01*
X72517000Y-46843000D01*
X72517000Y-46863000D01*
X73710155Y-46863000D01*
X73831476Y-46633110D01*
X73661645Y-46223076D01*
X73384292Y-45918739D01*
X73487765Y-45898157D01*
X73697809Y-45757809D01*
X73738170Y-45697405D01*
X74327470Y-46286706D01*
X74377067Y-46360933D01*
X74671130Y-46557419D01*
X74930444Y-46609000D01*
X74930448Y-46609000D01*
X75017999Y-46626415D01*
X75105550Y-46609000D01*
X76073000Y-46609000D01*
X76073000Y-46704250D01*
X76231750Y-46863000D01*
X77343000Y-46863000D01*
X77343000Y-46843000D01*
X77597000Y-46843000D01*
X77597000Y-46863000D01*
X77617000Y-46863000D01*
X77617000Y-47117000D01*
X77597000Y-47117000D01*
X77597000Y-47137000D01*
X77343000Y-47137000D01*
X77343000Y-47117000D01*
X76231750Y-47117000D01*
X76073000Y-47275750D01*
X76073000Y-47878309D01*
X76169673Y-48111698D01*
X76348301Y-48290327D01*
X76581690Y-48387000D01*
X76637343Y-48387000D01*
X76285680Y-48738663D01*
X76073000Y-49252119D01*
X76073000Y-49807881D01*
X76285680Y-50321337D01*
X76678663Y-50714320D01*
X76885513Y-50800000D01*
X76678663Y-50885680D01*
X76285680Y-51278663D01*
X76073000Y-51792119D01*
X76073000Y-52347881D01*
X76115714Y-52451001D01*
X58065237Y-52451001D01*
X51556797Y-45942561D01*
X53683000Y-45942561D01*
X53683000Y-46513439D01*
X53901466Y-47040862D01*
X54305138Y-47444534D01*
X54832561Y-47663000D01*
X55403439Y-47663000D01*
X55930862Y-47444534D01*
X56334534Y-47040862D01*
X56553000Y-46513439D01*
X56553000Y-46228000D01*
X61274887Y-46228000D01*
X61386260Y-46787909D01*
X61703423Y-47262577D01*
X62178091Y-47579740D01*
X62596667Y-47663000D01*
X62879333Y-47663000D01*
X63297909Y-47579740D01*
X63646393Y-47346890D01*
X70948524Y-47346890D01*
X71118355Y-47756924D01*
X71508642Y-48185183D01*
X72033108Y-48431486D01*
X72263000Y-48310819D01*
X72263000Y-47117000D01*
X72517000Y-47117000D01*
X72517000Y-48310819D01*
X72746892Y-48431486D01*
X73271358Y-48185183D01*
X73661645Y-47756924D01*
X73831476Y-47346890D01*
X73710155Y-47117000D01*
X72517000Y-47117000D01*
X72263000Y-47117000D01*
X71069845Y-47117000D01*
X70948524Y-47346890D01*
X63646393Y-47346890D01*
X63772577Y-47262577D01*
X64089740Y-46787909D01*
X64201113Y-46228000D01*
X64089740Y-45668091D01*
X63772577Y-45193423D01*
X63297909Y-44876260D01*
X62879333Y-44793000D01*
X62596667Y-44793000D01*
X62178091Y-44876260D01*
X61703423Y-45193423D01*
X61386260Y-45668091D01*
X61274887Y-46228000D01*
X56553000Y-46228000D01*
X56553000Y-45942561D01*
X56334534Y-45415138D01*
X55930862Y-45011466D01*
X55403439Y-44793000D01*
X54832561Y-44793000D01*
X54305138Y-45011466D01*
X53901466Y-45415138D01*
X53683000Y-45942561D01*
X51556797Y-45942561D01*
X48176731Y-42562496D01*
X48176729Y-42562493D01*
X46332405Y-40718170D01*
X46392809Y-40677809D01*
X46533157Y-40467765D01*
X46542184Y-40422381D01*
X46554375Y-40440625D01*
X47045582Y-40768839D01*
X47478744Y-40855000D01*
X47771256Y-40855000D01*
X48204418Y-40768839D01*
X48695625Y-40440625D01*
X48895000Y-40142239D01*
X49094375Y-40440625D01*
X49585582Y-40768839D01*
X50018744Y-40855000D01*
X50311256Y-40855000D01*
X50744418Y-40768839D01*
X51235625Y-40440625D01*
X51435000Y-40142239D01*
X51634375Y-40440625D01*
X52125582Y-40768839D01*
X52558744Y-40855000D01*
X52851256Y-40855000D01*
X53284418Y-40768839D01*
X53775625Y-40440625D01*
X53975000Y-40142239D01*
X54174375Y-40440625D01*
X54665582Y-40768839D01*
X55098744Y-40855000D01*
X55391256Y-40855000D01*
X55824418Y-40768839D01*
X56315625Y-40440625D01*
X56528843Y-40121522D01*
X56589817Y-40251358D01*
X57018076Y-40641645D01*
X57428110Y-40811476D01*
X57658000Y-40690155D01*
X57658000Y-39497000D01*
X57638000Y-39497000D01*
X57638000Y-39243000D01*
X57658000Y-39243000D01*
X57658000Y-38049845D01*
X57912000Y-38049845D01*
X57912000Y-39243000D01*
X57932000Y-39243000D01*
X57932000Y-39497000D01*
X57912000Y-39497000D01*
X57912000Y-40690155D01*
X58141890Y-40811476D01*
X58551924Y-40641645D01*
X58980183Y-40251358D01*
X59041157Y-40121522D01*
X59254375Y-40440625D01*
X59745582Y-40768839D01*
X60178744Y-40855000D01*
X60471256Y-40855000D01*
X60904418Y-40768839D01*
X61395625Y-40440625D01*
X61595000Y-40142239D01*
X61794375Y-40440625D01*
X62285582Y-40768839D01*
X62718744Y-40855000D01*
X63011256Y-40855000D01*
X63444418Y-40768839D01*
X63935625Y-40440625D01*
X63950096Y-40418968D01*
X64016673Y-40579699D01*
X64195302Y-40758327D01*
X64428691Y-40855000D01*
X65119250Y-40855000D01*
X65278000Y-40696250D01*
X65278000Y-39497000D01*
X65532000Y-39497000D01*
X65532000Y-40696250D01*
X65690750Y-40855000D01*
X66381309Y-40855000D01*
X66614698Y-40758327D01*
X66793327Y-40579699D01*
X66890000Y-40346310D01*
X66890000Y-39655750D01*
X66731250Y-39497000D01*
X65532000Y-39497000D01*
X65278000Y-39497000D01*
X65258000Y-39497000D01*
X65258000Y-39243000D01*
X65278000Y-39243000D01*
X65278000Y-38043750D01*
X65532000Y-38043750D01*
X65532000Y-39243000D01*
X66731250Y-39243000D01*
X66890000Y-39084250D01*
X66890000Y-38393690D01*
X66793327Y-38160301D01*
X66614698Y-37981673D01*
X66381309Y-37885000D01*
X65690750Y-37885000D01*
X65532000Y-38043750D01*
X65278000Y-38043750D01*
X65119250Y-37885000D01*
X64428691Y-37885000D01*
X64195302Y-37981673D01*
X64016673Y-38160301D01*
X63950096Y-38321032D01*
X63935625Y-38299375D01*
X63444418Y-37971161D01*
X63011256Y-37885000D01*
X62718744Y-37885000D01*
X62285582Y-37971161D01*
X61794375Y-38299375D01*
X61595000Y-38597761D01*
X61395625Y-38299375D01*
X60904418Y-37971161D01*
X60471256Y-37885000D01*
X60178744Y-37885000D01*
X59745582Y-37971161D01*
X59254375Y-38299375D01*
X59041157Y-38618478D01*
X58980183Y-38488642D01*
X58551924Y-38098355D01*
X58141890Y-37928524D01*
X57912000Y-38049845D01*
X57658000Y-38049845D01*
X57428110Y-37928524D01*
X57018076Y-38098355D01*
X56589817Y-38488642D01*
X56528843Y-38618478D01*
X56315625Y-38299375D01*
X55824418Y-37971161D01*
X55391256Y-37885000D01*
X55098744Y-37885000D01*
X54665582Y-37971161D01*
X54174375Y-38299375D01*
X53975000Y-38597761D01*
X53775625Y-38299375D01*
X53284418Y-37971161D01*
X52851256Y-37885000D01*
X52558744Y-37885000D01*
X52125582Y-37971161D01*
X51634375Y-38299375D01*
X51435000Y-38597761D01*
X51235625Y-38299375D01*
X50744418Y-37971161D01*
X50311256Y-37885000D01*
X50018744Y-37885000D01*
X49585582Y-37971161D01*
X49094375Y-38299375D01*
X48895000Y-38597761D01*
X48695625Y-38299375D01*
X48204418Y-37971161D01*
X47771256Y-37885000D01*
X47478744Y-37885000D01*
X47045582Y-37971161D01*
X46554375Y-38299375D01*
X46542184Y-38317619D01*
X46533157Y-38272235D01*
X46392809Y-38062191D01*
X46182765Y-37921843D01*
X45935000Y-37872560D01*
X44235000Y-37872560D01*
X43987235Y-37921843D01*
X43777191Y-38062191D01*
X43636843Y-38272235D01*
X43587560Y-38520000D01*
X43587560Y-40220000D01*
X43636843Y-40467765D01*
X43777191Y-40677809D01*
X43987235Y-40818157D01*
X44205140Y-40861501D01*
X44206322Y-40867440D01*
X44247583Y-41074871D01*
X44444069Y-41368934D01*
X44518295Y-41418530D01*
X46919493Y-43819729D01*
X46919496Y-43819731D01*
X56312775Y-53213011D01*
X53200247Y-53213011D01*
X48950531Y-48963296D01*
X48900933Y-48889067D01*
X48606870Y-48692581D01*
X48347556Y-48641000D01*
X48347555Y-48641000D01*
X48260000Y-48623584D01*
X48172445Y-48641000D01*
X42278236Y-48641000D01*
X41037956Y-47400720D01*
X41487436Y-47586900D01*
X42078564Y-47586900D01*
X42624695Y-47360686D01*
X43042686Y-46942695D01*
X43053000Y-46917795D01*
X43063314Y-46942695D01*
X43481305Y-47360686D01*
X44027436Y-47586900D01*
X44618564Y-47586900D01*
X45164695Y-47360686D01*
X45582686Y-46942695D01*
X45593000Y-46917795D01*
X45603314Y-46942695D01*
X46021305Y-47360686D01*
X46567436Y-47586900D01*
X47158564Y-47586900D01*
X47704695Y-47360686D01*
X48122686Y-46942695D01*
X48348900Y-46396564D01*
X48348900Y-45805436D01*
X48122686Y-45259305D01*
X47704695Y-44841314D01*
X47158564Y-44615100D01*
X46567436Y-44615100D01*
X46021305Y-44841314D01*
X45603314Y-45259305D01*
X45593000Y-45284205D01*
X45582686Y-45259305D01*
X45164695Y-44841314D01*
X44618564Y-44615100D01*
X44027436Y-44615100D01*
X43481305Y-44841314D01*
X43063314Y-45259305D01*
X43053000Y-45284205D01*
X43042686Y-45259305D01*
X42624695Y-44841314D01*
X42078564Y-44615100D01*
X41487436Y-44615100D01*
X40941305Y-44841314D01*
X40523314Y-45259305D01*
X40297100Y-45805436D01*
X40297100Y-46396564D01*
X40483280Y-46846045D01*
X36250531Y-42613296D01*
X36200933Y-42539067D01*
X35906870Y-42342581D01*
X35647556Y-42291000D01*
X35647555Y-42291000D01*
X35560000Y-42273584D01*
X35472445Y-42291000D01*
X34567440Y-42291000D01*
X34567440Y-42280000D01*
X34518157Y-42032235D01*
X34377809Y-41822191D01*
X34167765Y-41681843D01*
X33920000Y-41632560D01*
X32120000Y-41632560D01*
X31872235Y-41681843D01*
X31662191Y-41822191D01*
X31521843Y-42032235D01*
X31472560Y-42280000D01*
X26110000Y-42280000D01*
X26110000Y-35284744D01*
X27124862Y-35284744D01*
X27411431Y-35711584D01*
X28578363Y-36194982D01*
X29841457Y-36195018D01*
X31008417Y-35711685D01*
X31008569Y-35711584D01*
X31295138Y-35284744D01*
X29210000Y-33199605D01*
X27124862Y-35284744D01*
X26110000Y-35284744D01*
X26110000Y-33832581D01*
X26518315Y-34818417D01*
X26518416Y-34818569D01*
X26945256Y-35105138D01*
X29030395Y-33020000D01*
X29389605Y-33020000D01*
X31474744Y-35105138D01*
X31901584Y-34818569D01*
X31946558Y-34710000D01*
X43587560Y-34710000D01*
X43587560Y-36410000D01*
X43636843Y-36657765D01*
X43777191Y-36867809D01*
X43987235Y-37008157D01*
X44235000Y-37057440D01*
X45935000Y-37057440D01*
X46182765Y-37008157D01*
X46392809Y-36867809D01*
X46533157Y-36657765D01*
X46542184Y-36612381D01*
X46554375Y-36630625D01*
X47045582Y-36958839D01*
X47478744Y-37045000D01*
X47771256Y-37045000D01*
X48204418Y-36958839D01*
X48695625Y-36630625D01*
X48895000Y-36332239D01*
X49094375Y-36630625D01*
X49585582Y-36958839D01*
X50018744Y-37045000D01*
X50311256Y-37045000D01*
X50744418Y-36958839D01*
X51235625Y-36630625D01*
X51435000Y-36332239D01*
X51634375Y-36630625D01*
X52125582Y-36958839D01*
X52558744Y-37045000D01*
X52851256Y-37045000D01*
X53284418Y-36958839D01*
X53775625Y-36630625D01*
X53975000Y-36332239D01*
X54174375Y-36630625D01*
X54665582Y-36958839D01*
X55098744Y-37045000D01*
X55391256Y-37045000D01*
X55824418Y-36958839D01*
X56315625Y-36630625D01*
X56528843Y-36311522D01*
X56589817Y-36441358D01*
X57018076Y-36831645D01*
X57428110Y-37001476D01*
X57658000Y-36880155D01*
X57658000Y-35687000D01*
X57638000Y-35687000D01*
X57638000Y-35433000D01*
X57658000Y-35433000D01*
X57658000Y-34239845D01*
X57912000Y-34239845D01*
X57912000Y-35433000D01*
X57932000Y-35433000D01*
X57932000Y-35687000D01*
X57912000Y-35687000D01*
X57912000Y-36880155D01*
X58141890Y-37001476D01*
X58551924Y-36831645D01*
X58980183Y-36441358D01*
X59041157Y-36311522D01*
X59254375Y-36630625D01*
X59745582Y-36958839D01*
X60178744Y-37045000D01*
X60471256Y-37045000D01*
X60904418Y-36958839D01*
X61395625Y-36630625D01*
X61595000Y-36332239D01*
X61794375Y-36630625D01*
X62285582Y-36958839D01*
X62718744Y-37045000D01*
X63011256Y-37045000D01*
X63444418Y-36958839D01*
X63935625Y-36630625D01*
X63988081Y-36552119D01*
X81153000Y-36552119D01*
X81153000Y-37107881D01*
X81365680Y-37621337D01*
X81717343Y-37973000D01*
X81661690Y-37973000D01*
X81428301Y-38069673D01*
X81249673Y-38248302D01*
X81153000Y-38481691D01*
X81153000Y-39084250D01*
X81311750Y-39243000D01*
X82423000Y-39243000D01*
X82423000Y-39223000D01*
X82677000Y-39223000D01*
X82677000Y-39243000D01*
X82697000Y-39243000D01*
X82697000Y-39497000D01*
X82677000Y-39497000D01*
X82677000Y-40608250D01*
X82835750Y-40767000D01*
X83438310Y-40767000D01*
X83671699Y-40670327D01*
X83850327Y-40491698D01*
X83947000Y-40258309D01*
X83947000Y-40202657D01*
X84298663Y-40554320D01*
X84812119Y-40767000D01*
X85367881Y-40767000D01*
X85881337Y-40554320D01*
X86274320Y-40161337D01*
X86360000Y-39954487D01*
X86445680Y-40161337D01*
X86838663Y-40554320D01*
X87352119Y-40767000D01*
X87907881Y-40767000D01*
X88421337Y-40554320D01*
X88814320Y-40161337D01*
X89027000Y-39647881D01*
X89027000Y-39092119D01*
X91313000Y-39092119D01*
X91313000Y-39647881D01*
X91525680Y-40161337D01*
X91877343Y-40513000D01*
X91821690Y-40513000D01*
X91588301Y-40609673D01*
X91409673Y-40788302D01*
X91313000Y-41021691D01*
X91313000Y-41624250D01*
X91471750Y-41783000D01*
X92583000Y-41783000D01*
X92583000Y-41763000D01*
X92837000Y-41763000D01*
X92837000Y-41783000D01*
X93948250Y-41783000D01*
X94107000Y-41624250D01*
X94107000Y-41021691D01*
X94010327Y-40788302D01*
X93831699Y-40609673D01*
X93598310Y-40513000D01*
X93542657Y-40513000D01*
X93894320Y-40161337D01*
X94107000Y-39647881D01*
X94107000Y-39092119D01*
X93894320Y-38578663D01*
X93501337Y-38185680D01*
X92987881Y-37973000D01*
X92432119Y-37973000D01*
X91918663Y-38185680D01*
X91525680Y-38578663D01*
X91313000Y-39092119D01*
X89027000Y-39092119D01*
X88814320Y-38578663D01*
X88421337Y-38185680D01*
X88214487Y-38100000D01*
X88421337Y-38014320D01*
X88814320Y-37621337D01*
X89027000Y-37107881D01*
X89027000Y-36552119D01*
X88814320Y-36038663D01*
X88421337Y-35645680D01*
X87907881Y-35433000D01*
X87352119Y-35433000D01*
X86838663Y-35645680D01*
X86445680Y-36038663D01*
X86360000Y-36245513D01*
X86274320Y-36038663D01*
X85881337Y-35645680D01*
X85367881Y-35433000D01*
X84812119Y-35433000D01*
X84298663Y-35645680D01*
X83905680Y-36038663D01*
X83820000Y-36245513D01*
X83734320Y-36038663D01*
X83341337Y-35645680D01*
X82827881Y-35433000D01*
X82272119Y-35433000D01*
X81758663Y-35645680D01*
X81365680Y-36038663D01*
X81153000Y-36552119D01*
X63988081Y-36552119D01*
X64263839Y-36139418D01*
X64379092Y-35560000D01*
X64324341Y-35284744D01*
X96974862Y-35284744D01*
X97261431Y-35711584D01*
X98428363Y-36194982D01*
X99691457Y-36195018D01*
X100858417Y-35711685D01*
X100858569Y-35711584D01*
X101145138Y-35284744D01*
X99060000Y-33199605D01*
X96974862Y-35284744D01*
X64324341Y-35284744D01*
X64263839Y-34980582D01*
X63935625Y-34489375D01*
X63444418Y-34161161D01*
X63011256Y-34075000D01*
X62718744Y-34075000D01*
X62285582Y-34161161D01*
X61794375Y-34489375D01*
X61595000Y-34787761D01*
X61395625Y-34489375D01*
X60904418Y-34161161D01*
X60471256Y-34075000D01*
X60178744Y-34075000D01*
X59745582Y-34161161D01*
X59254375Y-34489375D01*
X59041157Y-34808478D01*
X58980183Y-34678642D01*
X58551924Y-34288355D01*
X58141890Y-34118524D01*
X57912000Y-34239845D01*
X57658000Y-34239845D01*
X57428110Y-34118524D01*
X57018076Y-34288355D01*
X56589817Y-34678642D01*
X56528843Y-34808478D01*
X56315625Y-34489375D01*
X55824418Y-34161161D01*
X55391256Y-34075000D01*
X55098744Y-34075000D01*
X54665582Y-34161161D01*
X54174375Y-34489375D01*
X53975000Y-34787761D01*
X53775625Y-34489375D01*
X53284418Y-34161161D01*
X52851256Y-34075000D01*
X52558744Y-34075000D01*
X52125582Y-34161161D01*
X51634375Y-34489375D01*
X51435000Y-34787761D01*
X51235625Y-34489375D01*
X50744418Y-34161161D01*
X50311256Y-34075000D01*
X50018744Y-34075000D01*
X49585582Y-34161161D01*
X49094375Y-34489375D01*
X48895000Y-34787761D01*
X48695625Y-34489375D01*
X48204418Y-34161161D01*
X47771256Y-34075000D01*
X47478744Y-34075000D01*
X47045582Y-34161161D01*
X46554375Y-34489375D01*
X46542184Y-34507619D01*
X46533157Y-34462235D01*
X46392809Y-34252191D01*
X46182765Y-34111843D01*
X45935000Y-34062560D01*
X44235000Y-34062560D01*
X43987235Y-34111843D01*
X43777191Y-34252191D01*
X43636843Y-34462235D01*
X43587560Y-34710000D01*
X31946558Y-34710000D01*
X32384982Y-33651637D01*
X32384982Y-33651457D01*
X95884982Y-33651457D01*
X96368315Y-34818417D01*
X96368416Y-34818569D01*
X96795256Y-35105138D01*
X98880395Y-33020000D01*
X96795256Y-30934862D01*
X96368416Y-31221431D01*
X95885018Y-32388363D01*
X95884982Y-33651457D01*
X32384982Y-33651457D01*
X32385018Y-32388543D01*
X31901685Y-31221583D01*
X31901584Y-31221431D01*
X31474744Y-30934862D01*
X29389605Y-33020000D01*
X29030395Y-33020000D01*
X26945256Y-30934862D01*
X26518416Y-31221431D01*
X26110000Y-32207355D01*
X26110000Y-29920000D01*
X28397419Y-29920000D01*
X27411583Y-30328315D01*
X27411583Y-30328315D01*
G37*
X27411583Y-30328315D02*
X27411431Y-30328416D01*
X27124862Y-30755256D01*
X29210000Y-32840395D01*
X31295138Y-30755256D01*
X31008569Y-30328416D01*
X30022645Y-29920000D01*
X98247419Y-29920000D01*
X97261583Y-30328315D01*
X97261431Y-30328416D01*
X96974862Y-30755256D01*
X99060000Y-32840395D01*
X101145138Y-30755256D01*
X100858569Y-30328416D01*
X99872645Y-29920000D01*
X102160000Y-29920000D01*
X102160000Y-32207420D01*
X101751685Y-31221583D01*
X101751584Y-31221431D01*
X101324744Y-30934862D01*
X99239605Y-33020000D01*
X101324744Y-35105138D01*
X101751584Y-34818569D01*
X102160000Y-33832645D01*
X102160001Y-79197422D01*
X101751685Y-78211583D01*
X101751584Y-78211431D01*
X101324744Y-77924862D01*
X99239605Y-80010000D01*
X101324744Y-82095138D01*
X101751584Y-81808569D01*
X102160001Y-80822643D01*
X102160001Y-83110000D01*
X99872581Y-83110000D01*
X100858417Y-82701685D01*
X100858569Y-82701584D01*
X101145138Y-82274744D01*
X99060000Y-80189605D01*
X96974862Y-82274744D01*
X97261431Y-82701584D01*
X98247355Y-83110000D01*
X30022581Y-83110000D01*
X31008417Y-82701685D01*
X31008569Y-82701584D01*
X31295138Y-82274744D01*
X29210000Y-80189605D01*
X27124862Y-82274744D01*
X27411431Y-82701584D01*
X28397355Y-83110000D01*
X26110000Y-83110000D01*
X26110000Y-80822581D01*
X26518315Y-81808417D01*
X26518416Y-81808569D01*
X26945256Y-82095138D01*
X29030395Y-80010000D01*
X29389605Y-80010000D01*
X31474744Y-82095138D01*
X31901584Y-81808569D01*
X32384982Y-80641637D01*
X32384982Y-80641457D01*
X95884982Y-80641457D01*
X96368315Y-81808417D01*
X96368416Y-81808569D01*
X96795256Y-82095138D01*
X98880395Y-80010000D01*
X96795256Y-77924862D01*
X96368416Y-78211431D01*
X95885018Y-79378363D01*
X95884982Y-80641457D01*
X32384982Y-80641457D01*
X32385018Y-79378543D01*
X31901685Y-78211583D01*
X31901584Y-78211431D01*
X31474744Y-77924862D01*
X29389605Y-80010000D01*
X29030395Y-80010000D01*
X26945256Y-77924862D01*
X26518416Y-78211431D01*
X26110000Y-79197355D01*
X26110000Y-77745256D01*
X27124862Y-77745256D01*
X29210000Y-79830395D01*
X31295138Y-77745256D01*
X96974862Y-77745256D01*
X99060000Y-79830395D01*
X101145138Y-77745256D01*
X100858569Y-77318416D01*
X99691637Y-76835018D01*
X98428543Y-76834982D01*
X97261583Y-77318315D01*
X97261431Y-77318416D01*
X96974862Y-77745256D01*
X31295138Y-77745256D01*
X31008569Y-77318416D01*
X29841637Y-76835018D01*
X28578543Y-76834982D01*
X27411583Y-77318315D01*
X27411431Y-77318416D01*
X27124862Y-77745256D01*
X26110000Y-77745256D01*
X26110000Y-74016890D01*
X31578524Y-74016890D01*
X31748355Y-74426924D01*
X32138642Y-74855183D01*
X32663108Y-75101486D01*
X32893000Y-74980819D01*
X32893000Y-73787000D01*
X33147000Y-73787000D01*
X33147000Y-74980819D01*
X33376892Y-75101486D01*
X33901358Y-74855183D01*
X34291645Y-74426924D01*
X34461476Y-74016890D01*
X34340155Y-73787000D01*
X33147000Y-73787000D01*
X32893000Y-73787000D01*
X31699845Y-73787000D01*
X31578524Y-74016890D01*
X26110000Y-74016890D01*
X26110000Y-67730000D01*
X31522560Y-67730000D01*
X31522560Y-69430000D01*
X31571843Y-69677765D01*
X31686928Y-69850000D01*
X31571843Y-70022235D01*
X31522560Y-70270000D01*
X31522560Y-71970000D01*
X31571843Y-72217765D01*
X31712191Y-72427809D01*
X31922235Y-72568157D01*
X32025708Y-72588739D01*
X31748355Y-72893076D01*
X31578524Y-73303110D01*
X31699845Y-73533000D01*
X32893000Y-73533000D01*
X32893000Y-73513000D01*
X33147000Y-73513000D01*
X33147000Y-73533000D01*
X34340155Y-73533000D01*
X34392078Y-73434610D01*
X53744995Y-73434610D01*
X53825378Y-73686004D01*
X54381063Y-73887614D01*
X54971602Y-73861225D01*
X55394622Y-73686004D01*
X55475005Y-73434610D01*
X58824995Y-73434610D01*
X58905378Y-73686004D01*
X59461063Y-73887614D01*
X60051602Y-73861225D01*
X60474622Y-73686004D01*
X60555005Y-73434610D01*
X59690000Y-72569605D01*
X58824995Y-73434610D01*
X55475005Y-73434610D01*
X54610000Y-72569605D01*
X53744995Y-73434610D01*
X34392078Y-73434610D01*
X34461476Y-73303110D01*
X34291645Y-72893076D01*
X34014292Y-72588739D01*
X34117765Y-72568157D01*
X34327809Y-72427809D01*
X34468157Y-72217765D01*
X34509682Y-72009000D01*
X42168421Y-72009000D01*
X42217519Y-72082481D01*
X42659109Y-72377542D01*
X43048515Y-72455000D01*
X43311485Y-72455000D01*
X43700891Y-72377542D01*
X44142481Y-72082481D01*
X44437542Y-71640891D01*
X44541154Y-71120000D01*
X44437542Y-70599109D01*
X44142481Y-70157519D01*
X43700891Y-69862458D01*
X43638261Y-69850000D01*
X43700891Y-69837542D01*
X44142481Y-69542481D01*
X44437542Y-69100891D01*
X44541154Y-68580000D01*
X44488334Y-68314452D01*
X49465000Y-68314452D01*
X49465000Y-68845548D01*
X49668242Y-69336217D01*
X50043783Y-69711758D01*
X50377528Y-69850000D01*
X50043783Y-69988242D01*
X49668242Y-70363783D01*
X49465000Y-70854452D01*
X49465000Y-71385548D01*
X49668242Y-71876217D01*
X50043783Y-72251758D01*
X50534452Y-72455000D01*
X51065548Y-72455000D01*
X51556217Y-72251758D01*
X51646912Y-72161063D01*
X53112386Y-72161063D01*
X53138775Y-72751602D01*
X53313996Y-73174622D01*
X53565390Y-73255005D01*
X54430395Y-72390000D01*
X54789605Y-72390000D01*
X55654610Y-73255005D01*
X55906004Y-73174622D01*
X56107614Y-72618937D01*
X56087154Y-72161063D01*
X58192386Y-72161063D01*
X58218775Y-72751602D01*
X58393996Y-73174622D01*
X58645390Y-73255005D01*
X59510395Y-72390000D01*
X59869605Y-72390000D01*
X60734610Y-73255005D01*
X60986004Y-73174622D01*
X61187614Y-72618937D01*
X61161225Y-72028398D01*
X60986004Y-71605378D01*
X60734610Y-71524995D01*
X59869605Y-72390000D01*
X59510395Y-72390000D01*
X58645390Y-71524995D01*
X58393996Y-71605378D01*
X58192386Y-72161063D01*
X56087154Y-72161063D01*
X56081225Y-72028398D01*
X55906004Y-71605378D01*
X55654610Y-71524995D01*
X54789605Y-72390000D01*
X54430395Y-72390000D01*
X53565390Y-71524995D01*
X53313996Y-71605378D01*
X53112386Y-72161063D01*
X51646912Y-72161063D01*
X51931758Y-71876217D01*
X52135000Y-71385548D01*
X52135000Y-70854452D01*
X51931758Y-70363783D01*
X51556217Y-69988242D01*
X51222472Y-69850000D01*
X51556217Y-69711758D01*
X51931758Y-69336217D01*
X52135000Y-68845548D01*
X52135000Y-68314452D01*
X51931758Y-67823783D01*
X51556217Y-67448242D01*
X51065548Y-67245000D01*
X50534452Y-67245000D01*
X50043783Y-67448242D01*
X49668242Y-67823783D01*
X49465000Y-68314452D01*
X44488334Y-68314452D01*
X44437542Y-68059109D01*
X44142481Y-67617519D01*
X43700891Y-67322458D01*
X43311485Y-67245000D01*
X43048515Y-67245000D01*
X42659109Y-67322458D01*
X42217519Y-67617519D01*
X42168421Y-67691000D01*
X34509682Y-67691000D01*
X34468157Y-67482235D01*
X34327809Y-67272191D01*
X34117765Y-67131843D01*
X34014292Y-67111261D01*
X34102532Y-67014436D01*
X53124100Y-67014436D01*
X53124100Y-67605564D01*
X53350314Y-68151695D01*
X53768305Y-68569686D01*
X53793205Y-68580000D01*
X53768305Y-68590314D01*
X53350314Y-69008305D01*
X53124100Y-69554436D01*
X53124100Y-70145564D01*
X53350314Y-70691695D01*
X53768305Y-71109686D01*
X53814273Y-71128726D01*
X53744995Y-71345390D01*
X54610000Y-72210395D01*
X55475005Y-71345390D01*
X55405727Y-71128726D01*
X55451695Y-71109686D01*
X55869686Y-70691695D01*
X56095900Y-70145564D01*
X56095900Y-69554436D01*
X55869686Y-69008305D01*
X55451695Y-68590314D01*
X55426795Y-68580000D01*
X55451695Y-68569686D01*
X55869686Y-68151695D01*
X56095900Y-67605564D01*
X56095900Y-67014436D01*
X58204100Y-67014436D01*
X58204100Y-67605564D01*
X58430314Y-68151695D01*
X58848305Y-68569686D01*
X58873205Y-68580000D01*
X58848305Y-68590314D01*
X58430314Y-69008305D01*
X58204100Y-69554436D01*
X58204100Y-70145564D01*
X58430314Y-70691695D01*
X58848305Y-71109686D01*
X58894273Y-71128726D01*
X58824995Y-71345390D01*
X59690000Y-72210395D01*
X60555005Y-71345390D01*
X60485727Y-71128726D01*
X60531695Y-71109686D01*
X60949686Y-70691695D01*
X61175900Y-70145564D01*
X61175900Y-69554436D01*
X63284100Y-69554436D01*
X63284100Y-70145564D01*
X63510314Y-70691695D01*
X63928305Y-71109686D01*
X63953205Y-71120000D01*
X63928305Y-71130314D01*
X63510314Y-71548305D01*
X63284100Y-72094436D01*
X63284100Y-72685564D01*
X63510314Y-73231695D01*
X63928305Y-73649686D01*
X63953205Y-73660000D01*
X63928305Y-73670314D01*
X63510314Y-74088305D01*
X63284100Y-74634436D01*
X63284100Y-75225564D01*
X63510314Y-75771695D01*
X63928305Y-76189686D01*
X64474436Y-76415900D01*
X65065564Y-76415900D01*
X65611695Y-76189686D01*
X66029686Y-75771695D01*
X66255900Y-75225564D01*
X66255900Y-74634436D01*
X66029686Y-74088305D01*
X65611695Y-73670314D01*
X65586795Y-73660000D01*
X65611695Y-73649686D01*
X66029686Y-73231695D01*
X66255900Y-72685564D01*
X66255900Y-72094436D01*
X66029686Y-71548305D01*
X65611695Y-71130314D01*
X65586795Y-71120000D01*
X65611695Y-71109686D01*
X66029686Y-70691695D01*
X66255900Y-70145564D01*
X66255900Y-69554436D01*
X68364100Y-69554436D01*
X68364100Y-70145564D01*
X68590314Y-70691695D01*
X69008305Y-71109686D01*
X69033205Y-71120000D01*
X69008305Y-71130314D01*
X68590314Y-71548305D01*
X68364100Y-72094436D01*
X68364100Y-72685564D01*
X68590314Y-73231695D01*
X69008305Y-73649686D01*
X69033205Y-73660000D01*
X69008305Y-73670314D01*
X68590314Y-74088305D01*
X68364100Y-74634436D01*
X68364100Y-75225564D01*
X68590314Y-75771695D01*
X69008305Y-76189686D01*
X69554436Y-76415900D01*
X70145564Y-76415900D01*
X70691695Y-76189686D01*
X71109686Y-75771695D01*
X71335900Y-75225564D01*
X71335900Y-74634436D01*
X71109686Y-74088305D01*
X70691695Y-73670314D01*
X70666795Y-73660000D01*
X70691695Y-73649686D01*
X71109686Y-73231695D01*
X71335900Y-72685564D01*
X71335900Y-72094436D01*
X71109686Y-71548305D01*
X70691695Y-71130314D01*
X70666795Y-71120000D01*
X70691695Y-71109686D01*
X71109686Y-70691695D01*
X71335900Y-70145564D01*
X71335900Y-69554436D01*
X71109686Y-69008305D01*
X70691695Y-68590314D01*
X70145564Y-68364100D01*
X69554436Y-68364100D01*
X69008305Y-68590314D01*
X68590314Y-69008305D01*
X68364100Y-69554436D01*
X66255900Y-69554436D01*
X66029686Y-69008305D01*
X65611695Y-68590314D01*
X65065564Y-68364100D01*
X64474436Y-68364100D01*
X63928305Y-68590314D01*
X63510314Y-69008305D01*
X63284100Y-69554436D01*
X61175900Y-69554436D01*
X60949686Y-69008305D01*
X60531695Y-68590314D01*
X60506795Y-68580000D01*
X60531695Y-68569686D01*
X60949686Y-68151695D01*
X61175900Y-67605564D01*
X61175900Y-67014436D01*
X60949686Y-66468305D01*
X60531695Y-66050314D01*
X59985564Y-65824100D01*
X59394436Y-65824100D01*
X58848305Y-66050314D01*
X58430314Y-66468305D01*
X58204100Y-67014436D01*
X56095900Y-67014436D01*
X55869686Y-66468305D01*
X55451695Y-66050314D01*
X54905564Y-65824100D01*
X54314436Y-65824100D01*
X53768305Y-66050314D01*
X53350314Y-66468305D01*
X53124100Y-67014436D01*
X34102532Y-67014436D01*
X34291645Y-66806924D01*
X34461476Y-66396890D01*
X34340155Y-66167000D01*
X33147000Y-66167000D01*
X33147000Y-66187000D01*
X32893000Y-66187000D01*
X32893000Y-66167000D01*
X31699845Y-66167000D01*
X31578524Y-66396890D01*
X31748355Y-66806924D01*
X32025708Y-67111261D01*
X31922235Y-67131843D01*
X31712191Y-67272191D01*
X31571843Y-67482235D01*
X31522560Y-67730000D01*
X26110000Y-67730000D01*
X26110000Y-65683110D01*
X31578524Y-65683110D01*
X31699845Y-65913000D01*
X32893000Y-65913000D01*
X32893000Y-64719181D01*
X33147000Y-64719181D01*
X33147000Y-65913000D01*
X34340155Y-65913000D01*
X34461476Y-65683110D01*
X34291645Y-65273076D01*
X33901358Y-64844817D01*
X33376892Y-64598514D01*
X33147000Y-64719181D01*
X32893000Y-64719181D01*
X32663108Y-64598514D01*
X32138642Y-64844817D01*
X31748355Y-65273076D01*
X31578524Y-65683110D01*
X26110000Y-65683110D01*
X26110000Y-64484561D01*
X40475000Y-64484561D01*
X40475000Y-65055439D01*
X40693466Y-65582862D01*
X41097138Y-65986534D01*
X41624561Y-66205000D01*
X42195439Y-66205000D01*
X42722862Y-65986534D01*
X43126534Y-65582862D01*
X43345000Y-65055439D01*
X43345000Y-64770000D01*
X48066887Y-64770000D01*
X48178260Y-65329909D01*
X48495423Y-65804577D01*
X48970091Y-66121740D01*
X49388667Y-66205000D01*
X49671333Y-66205000D01*
X50089909Y-66121740D01*
X50564577Y-65804577D01*
X50881740Y-65329909D01*
X50993113Y-64770000D01*
X50934322Y-64474436D01*
X63284100Y-64474436D01*
X63284100Y-65065564D01*
X63510314Y-65611695D01*
X63928305Y-66029686D01*
X64474436Y-66255900D01*
X65065564Y-66255900D01*
X65611695Y-66029686D01*
X66029686Y-65611695D01*
X66255900Y-65065564D01*
X66255900Y-64474436D01*
X68364100Y-64474436D01*
X68364100Y-65065564D01*
X68590314Y-65611695D01*
X69008305Y-66029686D01*
X69554436Y-66255900D01*
X70145564Y-66255900D01*
X70691695Y-66029686D01*
X71109686Y-65611695D01*
X71335900Y-65065564D01*
X71335900Y-64474436D01*
X71109686Y-63928305D01*
X70691695Y-63510314D01*
X70145564Y-63284100D01*
X69554436Y-63284100D01*
X69008305Y-63510314D01*
X68590314Y-63928305D01*
X68364100Y-64474436D01*
X66255900Y-64474436D01*
X66029686Y-63928305D01*
X65611695Y-63510314D01*
X65065564Y-63284100D01*
X64474436Y-63284100D01*
X63928305Y-63510314D01*
X63510314Y-63928305D01*
X63284100Y-64474436D01*
X50934322Y-64474436D01*
X50881740Y-64210091D01*
X50564577Y-63735423D01*
X50089909Y-63418260D01*
X49671333Y-63335000D01*
X49388667Y-63335000D01*
X48970091Y-63418260D01*
X48495423Y-63735423D01*
X48178260Y-64210091D01*
X48066887Y-64770000D01*
X43345000Y-64770000D01*
X43345000Y-64484561D01*
X43126534Y-63957138D01*
X42722862Y-63553466D01*
X42195439Y-63335000D01*
X41624561Y-63335000D01*
X41097138Y-63553466D01*
X40693466Y-63957138D01*
X40475000Y-64484561D01*
X26110000Y-64484561D01*
X26110000Y-58705750D01*
X31485000Y-58705750D01*
X31485000Y-59446309D01*
X31581673Y-59679698D01*
X31760301Y-59858327D01*
X31895044Y-59914139D01*
X31718690Y-60090493D01*
X31485000Y-60654670D01*
X31485000Y-61265330D01*
X31718690Y-61829507D01*
X32150493Y-62261310D01*
X32714670Y-62495000D01*
X33325330Y-62495000D01*
X33889507Y-62261310D01*
X34216381Y-61934436D01*
X53124100Y-61934436D01*
X53124100Y-62525564D01*
X53350314Y-63071695D01*
X53768305Y-63489686D01*
X54314436Y-63715900D01*
X54905564Y-63715900D01*
X55451695Y-63489686D01*
X55869686Y-63071695D01*
X56095900Y-62525564D01*
X56095900Y-61934436D01*
X58204100Y-61934436D01*
X58204100Y-62525564D01*
X58430314Y-63071695D01*
X58848305Y-63489686D01*
X59394436Y-63715900D01*
X59985564Y-63715900D01*
X60531695Y-63489686D01*
X60949686Y-63071695D01*
X61175900Y-62525564D01*
X61175900Y-61934436D01*
X60949686Y-61388305D01*
X60531695Y-60970314D01*
X59985564Y-60744100D01*
X59394436Y-60744100D01*
X58848305Y-60970314D01*
X58430314Y-61388305D01*
X58204100Y-61934436D01*
X56095900Y-61934436D01*
X55869686Y-61388305D01*
X55451695Y-60970314D01*
X54905564Y-60744100D01*
X54314436Y-60744100D01*
X53768305Y-60970314D01*
X53350314Y-61388305D01*
X53124100Y-61934436D01*
X34216381Y-61934436D01*
X34321310Y-61829507D01*
X34555000Y-61265330D01*
X34555000Y-60654670D01*
X34321310Y-60090493D01*
X34144956Y-59914139D01*
X34279699Y-59858327D01*
X34458327Y-59679698D01*
X34555000Y-59446309D01*
X34555000Y-58705750D01*
X34396250Y-58547000D01*
X33147000Y-58547000D01*
X33147000Y-58567000D01*
X32893000Y-58567000D01*
X32893000Y-58547000D01*
X31643750Y-58547000D01*
X31485000Y-58705750D01*
X26110000Y-58705750D01*
X26110000Y-57393691D01*
X31485000Y-57393691D01*
X31485000Y-58134250D01*
X31643750Y-58293000D01*
X32893000Y-58293000D01*
X32893000Y-57043750D01*
X33147000Y-57043750D01*
X33147000Y-58293000D01*
X34396250Y-58293000D01*
X34555000Y-58134250D01*
X34555000Y-57393691D01*
X34458327Y-57160302D01*
X34279699Y-56981673D01*
X34046310Y-56885000D01*
X33305750Y-56885000D01*
X33147000Y-57043750D01*
X32893000Y-57043750D01*
X32734250Y-56885000D01*
X31993690Y-56885000D01*
X31760301Y-56981673D01*
X31581673Y-57160302D01*
X31485000Y-57393691D01*
X26110000Y-57393691D01*
X26110000Y-42280000D01*
X31472560Y-42280000D01*
X31472560Y-44080000D01*
X31521843Y-44327765D01*
X31662191Y-44537809D01*
X31872235Y-44678157D01*
X31887908Y-44681275D01*
X31718690Y-44850493D01*
X31485000Y-45414670D01*
X31485000Y-46025330D01*
X31718690Y-46589507D01*
X32150493Y-47021310D01*
X32714670Y-47255000D01*
X33325330Y-47255000D01*
X33889507Y-47021310D01*
X34111791Y-46799026D01*
X34671001Y-47358237D01*
X34671000Y-51701764D01*
X34541288Y-51831476D01*
X34567440Y-51700000D01*
X34567440Y-49900000D01*
X34518157Y-49652235D01*
X34377809Y-49442191D01*
X34167765Y-49301843D01*
X33920000Y-49252560D01*
X32120000Y-49252560D01*
X31872235Y-49301843D01*
X31662191Y-49442191D01*
X31521843Y-49652235D01*
X31472560Y-49900000D01*
X31472560Y-51700000D01*
X31521843Y-51947765D01*
X31662191Y-52157809D01*
X31872235Y-52298157D01*
X31887908Y-52301275D01*
X31718690Y-52470493D01*
X31485000Y-53034670D01*
X31485000Y-53645330D01*
X31718690Y-54209507D01*
X32150493Y-54641310D01*
X32714670Y-54875000D01*
X33325330Y-54875000D01*
X33889507Y-54641310D01*
X34285330Y-54245487D01*
X34290000Y-54246416D01*
X34377555Y-54229000D01*
X34377556Y-54229000D01*
X34636870Y-54177419D01*
X34930933Y-53980933D01*
X34980531Y-53906704D01*
X35461799Y-53425436D01*
X40297100Y-53425436D01*
X40297100Y-54016564D01*
X40523314Y-54562695D01*
X40894000Y-54933381D01*
X40894001Y-58041603D01*
X40693466Y-58242138D01*
X40475000Y-58769561D01*
X40475000Y-59340439D01*
X40693466Y-59867862D01*
X41097138Y-60271534D01*
X41624561Y-60490000D01*
X42195439Y-60490000D01*
X42722862Y-60271534D01*
X43126534Y-59867862D01*
X43345000Y-59340439D01*
X43345000Y-59055000D01*
X48066887Y-59055000D01*
X48178260Y-59614909D01*
X48495423Y-60089577D01*
X48970091Y-60406740D01*
X49388667Y-60490000D01*
X49671333Y-60490000D01*
X50089909Y-60406740D01*
X50564577Y-60089577D01*
X50881740Y-59614909D01*
X50993113Y-59055000D01*
X50881740Y-58495091D01*
X50564577Y-58020423D01*
X50089909Y-57703260D01*
X49671333Y-57620000D01*
X49388667Y-57620000D01*
X48970091Y-57703260D01*
X48495423Y-58020423D01*
X48178260Y-58495091D01*
X48066887Y-59055000D01*
X43345000Y-59055000D01*
X43345000Y-58769561D01*
X43126534Y-58242138D01*
X42722862Y-57838466D01*
X42672000Y-57817398D01*
X42672000Y-54933381D01*
X42839771Y-54765610D01*
X43457995Y-54765610D01*
X43538378Y-55017004D01*
X44094063Y-55218614D01*
X44684602Y-55192225D01*
X45107622Y-55017004D01*
X45188005Y-54765610D01*
X44323000Y-53900605D01*
X43457995Y-54765610D01*
X42839771Y-54765610D01*
X43042686Y-54562695D01*
X43061726Y-54516727D01*
X43278390Y-54586005D01*
X44143395Y-53721000D01*
X44502605Y-53721000D01*
X45367610Y-54586005D01*
X45584274Y-54516727D01*
X45603314Y-54562695D01*
X46021305Y-54980686D01*
X46567436Y-55206900D01*
X47158564Y-55206900D01*
X47704695Y-54980686D01*
X48122686Y-54562695D01*
X48348900Y-54016564D01*
X48348900Y-53425436D01*
X48122686Y-52879305D01*
X47704695Y-52461314D01*
X47158564Y-52235100D01*
X46567436Y-52235100D01*
X46021305Y-52461314D01*
X45603314Y-52879305D01*
X45584274Y-52925273D01*
X45367610Y-52855995D01*
X44502605Y-53721000D01*
X44143395Y-53721000D01*
X43278390Y-52855995D01*
X43061726Y-52925273D01*
X43042686Y-52879305D01*
X42839771Y-52676390D01*
X43457995Y-52676390D01*
X44323000Y-53541395D01*
X45188005Y-52676390D01*
X45107622Y-52424996D01*
X44551937Y-52223386D01*
X43961398Y-52249775D01*
X43538378Y-52424996D01*
X43457995Y-52676390D01*
X42839771Y-52676390D01*
X42624695Y-52461314D01*
X42078564Y-52235100D01*
X41487436Y-52235100D01*
X40941305Y-52461314D01*
X40523314Y-52879305D01*
X40297100Y-53425436D01*
X35461799Y-53425436D01*
X36126707Y-52760529D01*
X36200933Y-52710933D01*
X36397419Y-52416870D01*
X36449000Y-52157556D01*
X36449000Y-52157552D01*
X36466415Y-52070001D01*
X36449000Y-51982450D01*
X36449000Y-47077550D01*
X36466415Y-46989999D01*
X36449000Y-46902448D01*
X36449000Y-46902444D01*
X36397419Y-46643130D01*
X36200933Y-46349067D01*
X36126707Y-46299471D01*
X34980531Y-45153296D01*
X34930933Y-45079067D01*
X34636870Y-44882581D01*
X34377556Y-44831000D01*
X34377555Y-44831000D01*
X34290000Y-44813584D01*
X34285330Y-44814513D01*
X34152092Y-44681275D01*
X34167765Y-44678157D01*
X34377809Y-44537809D01*
X34518157Y-44327765D01*
X34567440Y-44080000D01*
X34567440Y-44069000D01*
X35191765Y-44069000D01*
X41219470Y-50096706D01*
X41269067Y-50170933D01*
X41563130Y-50367419D01*
X41822444Y-50419000D01*
X41909999Y-50436416D01*
X41997554Y-50419000D01*
X47891765Y-50419000D01*
X51903159Y-54430394D01*
X51736011Y-54597542D01*
X51562000Y-55017643D01*
X51562000Y-55472357D01*
X51736011Y-55892458D01*
X52057542Y-56213989D01*
X52477643Y-56388000D01*
X52590765Y-56388000D01*
X56459471Y-60256707D01*
X56509067Y-60330933D01*
X56803130Y-60527419D01*
X57062444Y-60579000D01*
X57062448Y-60579000D01*
X57149999Y-60596415D01*
X57237550Y-60579000D01*
X64899604Y-60579000D01*
X65227138Y-60906534D01*
X65754561Y-61125000D01*
X66325439Y-61125000D01*
X66852862Y-60906534D01*
X67256534Y-60502862D01*
X67475000Y-59975439D01*
X67475000Y-59690000D01*
X72196887Y-59690000D01*
X72308260Y-60249909D01*
X72625423Y-60724577D01*
X73100091Y-61041740D01*
X73518667Y-61125000D01*
X73801333Y-61125000D01*
X74219909Y-61041740D01*
X74694577Y-60724577D01*
X75011740Y-60249909D01*
X75123113Y-59690000D01*
X75011740Y-59130091D01*
X74694577Y-58655423D01*
X74219909Y-58338260D01*
X73801333Y-58255000D01*
X73518667Y-58255000D01*
X73100091Y-58338260D01*
X72625423Y-58655423D01*
X72308260Y-59130091D01*
X72196887Y-59690000D01*
X67475000Y-59690000D01*
X67475000Y-59404561D01*
X67256534Y-58877138D01*
X66852862Y-58473466D01*
X66325439Y-58255000D01*
X65754561Y-58255000D01*
X65227138Y-58473466D01*
X64899604Y-58801000D01*
X57518236Y-58801000D01*
X53848000Y-55130765D01*
X53848000Y-55017643D01*
X53836969Y-54991011D01*
X64528776Y-54991011D01*
X64605000Y-55067235D01*
X64605000Y-55530439D01*
X64823466Y-56057862D01*
X65227138Y-56461534D01*
X65754561Y-56680000D01*
X66325439Y-56680000D01*
X66852862Y-56461534D01*
X67256534Y-56057862D01*
X67475000Y-55530439D01*
X67475000Y-54959561D01*
X67256534Y-54432138D01*
X67053397Y-54229001D01*
X72613010Y-54229001D01*
X72308260Y-54685091D01*
X72196887Y-55245000D01*
X72308260Y-55804909D01*
X72625423Y-56279577D01*
X73100091Y-56596740D01*
X73518667Y-56680000D01*
X73801333Y-56680000D01*
X74219909Y-56596740D01*
X74694577Y-56279577D01*
X75011740Y-55804909D01*
X75123113Y-55245000D01*
X75011740Y-54685091D01*
X74706990Y-54229001D01*
X75958766Y-54229001D01*
X76073000Y-54343235D01*
X76073000Y-54887881D01*
X76285680Y-55401337D01*
X76678663Y-55794320D01*
X76885513Y-55880000D01*
X76678663Y-55965680D01*
X76285680Y-56358663D01*
X76073000Y-56872119D01*
X76073000Y-57427881D01*
X76285680Y-57941337D01*
X76678663Y-58334320D01*
X76885513Y-58420000D01*
X76678663Y-58505680D01*
X76285680Y-58898663D01*
X76073000Y-59412119D01*
X76073000Y-59967881D01*
X76285680Y-60481337D01*
X76678663Y-60874320D01*
X76885513Y-60960000D01*
X76678663Y-61045680D01*
X76285680Y-61438663D01*
X76073000Y-61952119D01*
X76073000Y-62507881D01*
X76285680Y-63021337D01*
X76678663Y-63414320D01*
X76885513Y-63500000D01*
X76678663Y-63585680D01*
X76285680Y-63978663D01*
X76073000Y-64492119D01*
X76073000Y-65047881D01*
X76285680Y-65561337D01*
X76678663Y-65954320D01*
X76885513Y-66040000D01*
X76678663Y-66125680D01*
X76285680Y-66518663D01*
X76073000Y-67032119D01*
X76073000Y-67587881D01*
X76285680Y-68101337D01*
X76678663Y-68494320D01*
X76885513Y-68580000D01*
X76678663Y-68665680D01*
X76285680Y-69058663D01*
X76073000Y-69572119D01*
X76073000Y-70127881D01*
X76285680Y-70641337D01*
X76678663Y-71034320D01*
X76885513Y-71120000D01*
X76678663Y-71205680D01*
X76285680Y-71598663D01*
X76073000Y-72112119D01*
X76073000Y-72667881D01*
X76285680Y-73181337D01*
X76678663Y-73574320D01*
X76885513Y-73660000D01*
X76678663Y-73745680D01*
X76285680Y-74138663D01*
X76073000Y-74652119D01*
X76073000Y-75207881D01*
X76285680Y-75721337D01*
X76678663Y-76114320D01*
X77192119Y-76327000D01*
X77747881Y-76327000D01*
X78261337Y-76114320D01*
X78654320Y-75721337D01*
X78867000Y-75207881D01*
X78867000Y-74652119D01*
X78654320Y-74138663D01*
X78261337Y-73745680D01*
X78054487Y-73660000D01*
X78261337Y-73574320D01*
X78654320Y-73181337D01*
X78867000Y-72667881D01*
X78867000Y-72112119D01*
X78654320Y-71598663D01*
X78261337Y-71205680D01*
X78054487Y-71120000D01*
X78261337Y-71034320D01*
X78654320Y-70641337D01*
X78867000Y-70127881D01*
X78867000Y-69572119D01*
X78654320Y-69058663D01*
X78261337Y-68665680D01*
X78054487Y-68580000D01*
X78261337Y-68494320D01*
X78654320Y-68101337D01*
X78867000Y-67587881D01*
X78867000Y-67170235D01*
X80576707Y-65460529D01*
X80650933Y-65410933D01*
X80847419Y-65116870D01*
X80899000Y-64857556D01*
X80899000Y-64857552D01*
X80916415Y-64770001D01*
X80899000Y-64682450D01*
X80899000Y-46902444D01*
X80847419Y-46643130D01*
X80650933Y-46349067D01*
X80356869Y-46152581D01*
X80321105Y-46145467D01*
X79328933Y-45153296D01*
X79279335Y-45079067D01*
X78985272Y-44882581D01*
X78816802Y-44849070D01*
X78867000Y-44727881D01*
X78867000Y-44172119D01*
X78654320Y-43658663D01*
X78261337Y-43265680D01*
X78054487Y-43180000D01*
X78261337Y-43094320D01*
X78654320Y-42701337D01*
X78863740Y-42195750D01*
X91313000Y-42195750D01*
X91313000Y-42798309D01*
X91409673Y-43031698D01*
X91588301Y-43210327D01*
X91821690Y-43307000D01*
X91877343Y-43307000D01*
X91525680Y-43658663D01*
X91313000Y-44172119D01*
X91313000Y-44727881D01*
X91525680Y-45241337D01*
X91918663Y-45634320D01*
X92125513Y-45720000D01*
X91918663Y-45805680D01*
X91525680Y-46198663D01*
X91313000Y-46712119D01*
X91313000Y-47267881D01*
X91525680Y-47781337D01*
X91918663Y-48174320D01*
X92125513Y-48260000D01*
X91918663Y-48345680D01*
X91525680Y-48738663D01*
X91313000Y-49252119D01*
X91313000Y-49807881D01*
X91525680Y-50321337D01*
X91918663Y-50714320D01*
X92125513Y-50800000D01*
X91918663Y-50885680D01*
X91525680Y-51278663D01*
X91313000Y-51792119D01*
X91313000Y-52347881D01*
X91525680Y-52861337D01*
X91918663Y-53254320D01*
X92125513Y-53340000D01*
X91918663Y-53425680D01*
X91525680Y-53818663D01*
X91313000Y-54332119D01*
X91313000Y-54887881D01*
X91525680Y-55401337D01*
X91918663Y-55794320D01*
X92125513Y-55880000D01*
X91918663Y-55965680D01*
X91525680Y-56358663D01*
X91313000Y-56872119D01*
X91313000Y-57427881D01*
X91525680Y-57941337D01*
X91918663Y-58334320D01*
X92125513Y-58420000D01*
X91918663Y-58505680D01*
X91525680Y-58898663D01*
X91313000Y-59412119D01*
X91313000Y-59967881D01*
X91525680Y-60481337D01*
X91918663Y-60874320D01*
X92125513Y-60960000D01*
X91918663Y-61045680D01*
X91525680Y-61438663D01*
X91313000Y-61952119D01*
X91313000Y-62507881D01*
X91525680Y-63021337D01*
X91918663Y-63414320D01*
X92125513Y-63500000D01*
X91918663Y-63585680D01*
X91525680Y-63978663D01*
X91313000Y-64492119D01*
X91313000Y-65047881D01*
X91525680Y-65561337D01*
X91918663Y-65954320D01*
X92125513Y-66040000D01*
X91918663Y-66125680D01*
X91525680Y-66518663D01*
X91313000Y-67032119D01*
X91313000Y-67587881D01*
X91525680Y-68101337D01*
X91918663Y-68494320D01*
X92125513Y-68580000D01*
X91918663Y-68665680D01*
X91525680Y-69058663D01*
X91313000Y-69572119D01*
X91313000Y-70127881D01*
X91525680Y-70641337D01*
X91918663Y-71034320D01*
X92125513Y-71120000D01*
X91918663Y-71205680D01*
X91525680Y-71598663D01*
X91313000Y-72112119D01*
X91313000Y-72667881D01*
X91525680Y-73181337D01*
X91918663Y-73574320D01*
X92125513Y-73660000D01*
X91918663Y-73745680D01*
X91525680Y-74138663D01*
X91313000Y-74652119D01*
X91313000Y-75207881D01*
X91525680Y-75721337D01*
X91918663Y-76114320D01*
X92432119Y-76327000D01*
X92987881Y-76327000D01*
X93501337Y-76114320D01*
X93894320Y-75721337D01*
X94107000Y-75207881D01*
X94107000Y-74652119D01*
X93894320Y-74138663D01*
X93501337Y-73745680D01*
X93294487Y-73660000D01*
X93501337Y-73574320D01*
X93894320Y-73181337D01*
X94107000Y-72667881D01*
X94107000Y-72112119D01*
X93894320Y-71598663D01*
X93501337Y-71205680D01*
X93294487Y-71120000D01*
X93501337Y-71034320D01*
X93894320Y-70641337D01*
X94107000Y-70127881D01*
X94107000Y-69572119D01*
X93894320Y-69058663D01*
X93501337Y-68665680D01*
X93294487Y-68580000D01*
X93501337Y-68494320D01*
X93894320Y-68101337D01*
X94107000Y-67587881D01*
X94107000Y-67032119D01*
X93894320Y-66518663D01*
X93501337Y-66125680D01*
X93294487Y-66040000D01*
X93501337Y-65954320D01*
X93894320Y-65561337D01*
X94107000Y-65047881D01*
X94107000Y-64492119D01*
X93894320Y-63978663D01*
X93501337Y-63585680D01*
X93294487Y-63500000D01*
X93501337Y-63414320D01*
X93894320Y-63021337D01*
X94107000Y-62507881D01*
X94107000Y-61952119D01*
X93894320Y-61438663D01*
X93501337Y-61045680D01*
X93294487Y-60960000D01*
X93501337Y-60874320D01*
X93894320Y-60481337D01*
X94107000Y-59967881D01*
X94107000Y-59412119D01*
X93894320Y-58898663D01*
X93501337Y-58505680D01*
X93294487Y-58420000D01*
X93501337Y-58334320D01*
X93894320Y-57941337D01*
X94107000Y-57427881D01*
X94107000Y-56872119D01*
X93894320Y-56358663D01*
X93501337Y-55965680D01*
X93294487Y-55880000D01*
X93501337Y-55794320D01*
X93894320Y-55401337D01*
X94107000Y-54887881D01*
X94107000Y-54332119D01*
X93894320Y-53818663D01*
X93501337Y-53425680D01*
X93294487Y-53340000D01*
X93501337Y-53254320D01*
X93894320Y-52861337D01*
X94107000Y-52347881D01*
X94107000Y-51792119D01*
X93894320Y-51278663D01*
X93501337Y-50885680D01*
X93294487Y-50800000D01*
X93501337Y-50714320D01*
X93894320Y-50321337D01*
X94107000Y-49807881D01*
X94107000Y-49252119D01*
X93894320Y-48738663D01*
X93501337Y-48345680D01*
X93294487Y-48260000D01*
X93501337Y-48174320D01*
X93894320Y-47781337D01*
X94107000Y-47267881D01*
X94107000Y-46712119D01*
X93894320Y-46198663D01*
X93501337Y-45805680D01*
X93294487Y-45720000D01*
X93501337Y-45634320D01*
X93894320Y-45241337D01*
X94107000Y-44727881D01*
X94107000Y-44172119D01*
X93894320Y-43658663D01*
X93542657Y-43307000D01*
X93598310Y-43307000D01*
X93831699Y-43210327D01*
X94010327Y-43031698D01*
X94107000Y-42798309D01*
X94107000Y-42195750D01*
X93948250Y-42037000D01*
X92837000Y-42037000D01*
X92837000Y-42057000D01*
X92583000Y-42057000D01*
X92583000Y-42037000D01*
X91471750Y-42037000D01*
X91313000Y-42195750D01*
X78863740Y-42195750D01*
X78867000Y-42187881D01*
X78867000Y-41632119D01*
X78654320Y-41118663D01*
X78261337Y-40725680D01*
X78054487Y-40640000D01*
X78261337Y-40554320D01*
X78654320Y-40161337D01*
X78863740Y-39655750D01*
X81153000Y-39655750D01*
X81153000Y-40258309D01*
X81249673Y-40491698D01*
X81428301Y-40670327D01*
X81661690Y-40767000D01*
X82264250Y-40767000D01*
X82423000Y-40608250D01*
X82423000Y-39497000D01*
X81311750Y-39497000D01*
X81153000Y-39655750D01*
X78863740Y-39655750D01*
X78867000Y-39647881D01*
X78867000Y-39092119D01*
X78654320Y-38578663D01*
X78261337Y-38185680D01*
X77747881Y-37973000D01*
X77192119Y-37973000D01*
X76678663Y-38185680D01*
X76285680Y-38578663D01*
X76073000Y-39092119D01*
X76073000Y-39647881D01*
X76285680Y-40161337D01*
X76678663Y-40554320D01*
X76885513Y-40640000D01*
X76678663Y-40725680D01*
X76285680Y-41118663D01*
X76073000Y-41632119D01*
X76073000Y-42187881D01*
X76285680Y-42701337D01*
X76678663Y-43094320D01*
X76885513Y-43180000D01*
X76678663Y-43265680D01*
X76285680Y-43658663D01*
X76073000Y-44172119D01*
X76073000Y-44727881D01*
X76115713Y-44831000D01*
X75386236Y-44831000D01*
X74438531Y-43883296D01*
X74388933Y-43809067D01*
X74094870Y-43612581D01*
X73881500Y-43570139D01*
X73838157Y-43352235D01*
X73697809Y-43142191D01*
X73487765Y-43001843D01*
X73240000Y-42952560D01*
X71540000Y-42952560D01*
X71292235Y-43001843D01*
X71082191Y-43142191D01*
X70941843Y-43352235D01*
X70892560Y-43600000D01*
X70892560Y-45300000D01*
X70941843Y-45547765D01*
X71082191Y-45757809D01*
X71292235Y-45898157D01*
X71395708Y-45918739D01*
X71118355Y-46223076D01*
X70948524Y-46633110D01*
X71069845Y-46863000D01*
X72263000Y-46863000D01*
X72263000Y-46843000D01*
X72517000Y-46843000D01*
X72517000Y-46863000D01*
X73710155Y-46863000D01*
X73831476Y-46633110D01*
X73661645Y-46223076D01*
X73384292Y-45918739D01*
X73487765Y-45898157D01*
X73697809Y-45757809D01*
X73738170Y-45697405D01*
X74327470Y-46286706D01*
X74377067Y-46360933D01*
X74671130Y-46557419D01*
X74930444Y-46609000D01*
X74930448Y-46609000D01*
X75017999Y-46626415D01*
X75105550Y-46609000D01*
X76073000Y-46609000D01*
X76073000Y-46704250D01*
X76231750Y-46863000D01*
X77343000Y-46863000D01*
X77343000Y-46843000D01*
X77597000Y-46843000D01*
X77597000Y-46863000D01*
X77617000Y-46863000D01*
X77617000Y-47117000D01*
X77597000Y-47117000D01*
X77597000Y-47137000D01*
X77343000Y-47137000D01*
X77343000Y-47117000D01*
X76231750Y-47117000D01*
X76073000Y-47275750D01*
X76073000Y-47878309D01*
X76169673Y-48111698D01*
X76348301Y-48290327D01*
X76581690Y-48387000D01*
X76637343Y-48387000D01*
X76285680Y-48738663D01*
X76073000Y-49252119D01*
X76073000Y-49807881D01*
X76285680Y-50321337D01*
X76678663Y-50714320D01*
X76885513Y-50800000D01*
X76678663Y-50885680D01*
X76285680Y-51278663D01*
X76073000Y-51792119D01*
X76073000Y-52347881D01*
X76115714Y-52451001D01*
X58065237Y-52451001D01*
X51556797Y-45942561D01*
X53683000Y-45942561D01*
X53683000Y-46513439D01*
X53901466Y-47040862D01*
X54305138Y-47444534D01*
X54832561Y-47663000D01*
X55403439Y-47663000D01*
X55930862Y-47444534D01*
X56334534Y-47040862D01*
X56553000Y-46513439D01*
X56553000Y-46228000D01*
X61274887Y-46228000D01*
X61386260Y-46787909D01*
X61703423Y-47262577D01*
X62178091Y-47579740D01*
X62596667Y-47663000D01*
X62879333Y-47663000D01*
X63297909Y-47579740D01*
X63646393Y-47346890D01*
X70948524Y-47346890D01*
X71118355Y-47756924D01*
X71508642Y-48185183D01*
X72033108Y-48431486D01*
X72263000Y-48310819D01*
X72263000Y-47117000D01*
X72517000Y-47117000D01*
X72517000Y-48310819D01*
X72746892Y-48431486D01*
X73271358Y-48185183D01*
X73661645Y-47756924D01*
X73831476Y-47346890D01*
X73710155Y-47117000D01*
X72517000Y-47117000D01*
X72263000Y-47117000D01*
X71069845Y-47117000D01*
X70948524Y-47346890D01*
X63646393Y-47346890D01*
X63772577Y-47262577D01*
X64089740Y-46787909D01*
X64201113Y-46228000D01*
X64089740Y-45668091D01*
X63772577Y-45193423D01*
X63297909Y-44876260D01*
X62879333Y-44793000D01*
X62596667Y-44793000D01*
X62178091Y-44876260D01*
X61703423Y-45193423D01*
X61386260Y-45668091D01*
X61274887Y-46228000D01*
X56553000Y-46228000D01*
X56553000Y-45942561D01*
X56334534Y-45415138D01*
X55930862Y-45011466D01*
X55403439Y-44793000D01*
X54832561Y-44793000D01*
X54305138Y-45011466D01*
X53901466Y-45415138D01*
X53683000Y-45942561D01*
X51556797Y-45942561D01*
X48176731Y-42562496D01*
X48176729Y-42562493D01*
X46332405Y-40718170D01*
X46392809Y-40677809D01*
X46533157Y-40467765D01*
X46542184Y-40422381D01*
X46554375Y-40440625D01*
X47045582Y-40768839D01*
X47478744Y-40855000D01*
X47771256Y-40855000D01*
X48204418Y-40768839D01*
X48695625Y-40440625D01*
X48895000Y-40142239D01*
X49094375Y-40440625D01*
X49585582Y-40768839D01*
X50018744Y-40855000D01*
X50311256Y-40855000D01*
X50744418Y-40768839D01*
X51235625Y-40440625D01*
X51435000Y-40142239D01*
X51634375Y-40440625D01*
X52125582Y-40768839D01*
X52558744Y-40855000D01*
X52851256Y-40855000D01*
X53284418Y-40768839D01*
X53775625Y-40440625D01*
X53975000Y-40142239D01*
X54174375Y-40440625D01*
X54665582Y-40768839D01*
X55098744Y-40855000D01*
X55391256Y-40855000D01*
X55824418Y-40768839D01*
X56315625Y-40440625D01*
X56528843Y-40121522D01*
X56589817Y-40251358D01*
X57018076Y-40641645D01*
X57428110Y-40811476D01*
X57658000Y-40690155D01*
X57658000Y-39497000D01*
X57638000Y-39497000D01*
X57638000Y-39243000D01*
X57658000Y-39243000D01*
X57658000Y-38049845D01*
X57912000Y-38049845D01*
X57912000Y-39243000D01*
X57932000Y-39243000D01*
X57932000Y-39497000D01*
X57912000Y-39497000D01*
X57912000Y-40690155D01*
X58141890Y-40811476D01*
X58551924Y-40641645D01*
X58980183Y-40251358D01*
X59041157Y-40121522D01*
X59254375Y-40440625D01*
X59745582Y-40768839D01*
X60178744Y-40855000D01*
X60471256Y-40855000D01*
X60904418Y-40768839D01*
X61395625Y-40440625D01*
X61595000Y-40142239D01*
X61794375Y-40440625D01*
X62285582Y-40768839D01*
X62718744Y-40855000D01*
X63011256Y-40855000D01*
X63444418Y-40768839D01*
X63935625Y-40440625D01*
X63950096Y-40418968D01*
X64016673Y-40579699D01*
X64195302Y-40758327D01*
X64428691Y-40855000D01*
X65119250Y-40855000D01*
X65278000Y-40696250D01*
X65278000Y-39497000D01*
X65532000Y-39497000D01*
X65532000Y-40696250D01*
X65690750Y-40855000D01*
X66381309Y-40855000D01*
X66614698Y-40758327D01*
X66793327Y-40579699D01*
X66890000Y-40346310D01*
X66890000Y-39655750D01*
X66731250Y-39497000D01*
X65532000Y-39497000D01*
X65278000Y-39497000D01*
X65258000Y-39497000D01*
X65258000Y-39243000D01*
X65278000Y-39243000D01*
X65278000Y-38043750D01*
X65532000Y-38043750D01*
X65532000Y-39243000D01*
X66731250Y-39243000D01*
X66890000Y-39084250D01*
X66890000Y-38393690D01*
X66793327Y-38160301D01*
X66614698Y-37981673D01*
X66381309Y-37885000D01*
X65690750Y-37885000D01*
X65532000Y-38043750D01*
X65278000Y-38043750D01*
X65119250Y-37885000D01*
X64428691Y-37885000D01*
X64195302Y-37981673D01*
X64016673Y-38160301D01*
X63950096Y-38321032D01*
X63935625Y-38299375D01*
X63444418Y-37971161D01*
X63011256Y-37885000D01*
X62718744Y-37885000D01*
X62285582Y-37971161D01*
X61794375Y-38299375D01*
X61595000Y-38597761D01*
X61395625Y-38299375D01*
X60904418Y-37971161D01*
X60471256Y-37885000D01*
X60178744Y-37885000D01*
X59745582Y-37971161D01*
X59254375Y-38299375D01*
X59041157Y-38618478D01*
X58980183Y-38488642D01*
X58551924Y-38098355D01*
X58141890Y-37928524D01*
X57912000Y-38049845D01*
X57658000Y-38049845D01*
X57428110Y-37928524D01*
X57018076Y-38098355D01*
X56589817Y-38488642D01*
X56528843Y-38618478D01*
X56315625Y-38299375D01*
X55824418Y-37971161D01*
X55391256Y-37885000D01*
X55098744Y-37885000D01*
X54665582Y-37971161D01*
X54174375Y-38299375D01*
X53975000Y-38597761D01*
X53775625Y-38299375D01*
X53284418Y-37971161D01*
X52851256Y-37885000D01*
X52558744Y-37885000D01*
X52125582Y-37971161D01*
X51634375Y-38299375D01*
X51435000Y-38597761D01*
X51235625Y-38299375D01*
X50744418Y-37971161D01*
X50311256Y-37885000D01*
X50018744Y-37885000D01*
X49585582Y-37971161D01*
X49094375Y-38299375D01*
X48895000Y-38597761D01*
X48695625Y-38299375D01*
X48204418Y-37971161D01*
X47771256Y-37885000D01*
X47478744Y-37885000D01*
X47045582Y-37971161D01*
X46554375Y-38299375D01*
X46542184Y-38317619D01*
X46533157Y-38272235D01*
X46392809Y-38062191D01*
X46182765Y-37921843D01*
X45935000Y-37872560D01*
X44235000Y-37872560D01*
X43987235Y-37921843D01*
X43777191Y-38062191D01*
X43636843Y-38272235D01*
X43587560Y-38520000D01*
X43587560Y-40220000D01*
X43636843Y-40467765D01*
X43777191Y-40677809D01*
X43987235Y-40818157D01*
X44205140Y-40861501D01*
X44206322Y-40867440D01*
X44247583Y-41074871D01*
X44444069Y-41368934D01*
X44518295Y-41418530D01*
X46919493Y-43819729D01*
X46919496Y-43819731D01*
X56312775Y-53213011D01*
X53200247Y-53213011D01*
X48950531Y-48963296D01*
X48900933Y-48889067D01*
X48606870Y-48692581D01*
X48347556Y-48641000D01*
X48347555Y-48641000D01*
X48260000Y-48623584D01*
X48172445Y-48641000D01*
X42278236Y-48641000D01*
X41037956Y-47400720D01*
X41487436Y-47586900D01*
X42078564Y-47586900D01*
X42624695Y-47360686D01*
X43042686Y-46942695D01*
X43053000Y-46917795D01*
X43063314Y-46942695D01*
X43481305Y-47360686D01*
X44027436Y-47586900D01*
X44618564Y-47586900D01*
X45164695Y-47360686D01*
X45582686Y-46942695D01*
X45593000Y-46917795D01*
X45603314Y-46942695D01*
X46021305Y-47360686D01*
X46567436Y-47586900D01*
X47158564Y-47586900D01*
X47704695Y-47360686D01*
X48122686Y-46942695D01*
X48348900Y-46396564D01*
X48348900Y-45805436D01*
X48122686Y-45259305D01*
X47704695Y-44841314D01*
X47158564Y-44615100D01*
X46567436Y-44615100D01*
X46021305Y-44841314D01*
X45603314Y-45259305D01*
X45593000Y-45284205D01*
X45582686Y-45259305D01*
X45164695Y-44841314D01*
X44618564Y-44615100D01*
X44027436Y-44615100D01*
X43481305Y-44841314D01*
X43063314Y-45259305D01*
X43053000Y-45284205D01*
X43042686Y-45259305D01*
X42624695Y-44841314D01*
X42078564Y-44615100D01*
X41487436Y-44615100D01*
X40941305Y-44841314D01*
X40523314Y-45259305D01*
X40297100Y-45805436D01*
X40297100Y-46396564D01*
X40483280Y-46846045D01*
X36250531Y-42613296D01*
X36200933Y-42539067D01*
X35906870Y-42342581D01*
X35647556Y-42291000D01*
X35647555Y-42291000D01*
X35560000Y-42273584D01*
X35472445Y-42291000D01*
X34567440Y-42291000D01*
X34567440Y-42280000D01*
X34518157Y-42032235D01*
X34377809Y-41822191D01*
X34167765Y-41681843D01*
X33920000Y-41632560D01*
X32120000Y-41632560D01*
X31872235Y-41681843D01*
X31662191Y-41822191D01*
X31521843Y-42032235D01*
X31472560Y-42280000D01*
X26110000Y-42280000D01*
X26110000Y-35284744D01*
X27124862Y-35284744D01*
X27411431Y-35711584D01*
X28578363Y-36194982D01*
X29841457Y-36195018D01*
X31008417Y-35711685D01*
X31008569Y-35711584D01*
X31295138Y-35284744D01*
X29210000Y-33199605D01*
X27124862Y-35284744D01*
X26110000Y-35284744D01*
X26110000Y-33832581D01*
X26518315Y-34818417D01*
X26518416Y-34818569D01*
X26945256Y-35105138D01*
X29030395Y-33020000D01*
X29389605Y-33020000D01*
X31474744Y-35105138D01*
X31901584Y-34818569D01*
X31946558Y-34710000D01*
X43587560Y-34710000D01*
X43587560Y-36410000D01*
X43636843Y-36657765D01*
X43777191Y-36867809D01*
X43987235Y-37008157D01*
X44235000Y-37057440D01*
X45935000Y-37057440D01*
X46182765Y-37008157D01*
X46392809Y-36867809D01*
X46533157Y-36657765D01*
X46542184Y-36612381D01*
X46554375Y-36630625D01*
X47045582Y-36958839D01*
X47478744Y-37045000D01*
X47771256Y-37045000D01*
X48204418Y-36958839D01*
X48695625Y-36630625D01*
X48895000Y-36332239D01*
X49094375Y-36630625D01*
X49585582Y-36958839D01*
X50018744Y-37045000D01*
X50311256Y-37045000D01*
X50744418Y-36958839D01*
X51235625Y-36630625D01*
X51435000Y-36332239D01*
X51634375Y-36630625D01*
X52125582Y-36958839D01*
X52558744Y-37045000D01*
X52851256Y-37045000D01*
X53284418Y-36958839D01*
X53775625Y-36630625D01*
X53975000Y-36332239D01*
X54174375Y-36630625D01*
X54665582Y-36958839D01*
X55098744Y-37045000D01*
X55391256Y-37045000D01*
X55824418Y-36958839D01*
X56315625Y-36630625D01*
X56528843Y-36311522D01*
X56589817Y-36441358D01*
X57018076Y-36831645D01*
X57428110Y-37001476D01*
X57658000Y-36880155D01*
X57658000Y-35687000D01*
X57638000Y-35687000D01*
X57638000Y-35433000D01*
X57658000Y-35433000D01*
X57658000Y-34239845D01*
X57912000Y-34239845D01*
X57912000Y-35433000D01*
X57932000Y-35433000D01*
X57932000Y-35687000D01*
X57912000Y-35687000D01*
X57912000Y-36880155D01*
X58141890Y-37001476D01*
X58551924Y-36831645D01*
X58980183Y-36441358D01*
X59041157Y-36311522D01*
X59254375Y-36630625D01*
X59745582Y-36958839D01*
X60178744Y-37045000D01*
X60471256Y-37045000D01*
X60904418Y-36958839D01*
X61395625Y-36630625D01*
X61595000Y-36332239D01*
X61794375Y-36630625D01*
X62285582Y-36958839D01*
X62718744Y-37045000D01*
X63011256Y-37045000D01*
X63444418Y-36958839D01*
X63935625Y-36630625D01*
X63988081Y-36552119D01*
X81153000Y-36552119D01*
X81153000Y-37107881D01*
X81365680Y-37621337D01*
X81717343Y-37973000D01*
X81661690Y-37973000D01*
X81428301Y-38069673D01*
X81249673Y-38248302D01*
X81153000Y-38481691D01*
X81153000Y-39084250D01*
X81311750Y-39243000D01*
X82423000Y-39243000D01*
X82423000Y-39223000D01*
X82677000Y-39223000D01*
X82677000Y-39243000D01*
X82697000Y-39243000D01*
X82697000Y-39497000D01*
X82677000Y-39497000D01*
X82677000Y-40608250D01*
X82835750Y-40767000D01*
X83438310Y-40767000D01*
X83671699Y-40670327D01*
X83850327Y-40491698D01*
X83947000Y-40258309D01*
X83947000Y-40202657D01*
X84298663Y-40554320D01*
X84812119Y-40767000D01*
X85367881Y-40767000D01*
X85881337Y-40554320D01*
X86274320Y-40161337D01*
X86360000Y-39954487D01*
X86445680Y-40161337D01*
X86838663Y-40554320D01*
X87352119Y-40767000D01*
X87907881Y-40767000D01*
X88421337Y-40554320D01*
X88814320Y-40161337D01*
X89027000Y-39647881D01*
X89027000Y-39092119D01*
X91313000Y-39092119D01*
X91313000Y-39647881D01*
X91525680Y-40161337D01*
X91877343Y-40513000D01*
X91821690Y-40513000D01*
X91588301Y-40609673D01*
X91409673Y-40788302D01*
X91313000Y-41021691D01*
X91313000Y-41624250D01*
X91471750Y-41783000D01*
X92583000Y-41783000D01*
X92583000Y-41763000D01*
X92837000Y-41763000D01*
X92837000Y-41783000D01*
X93948250Y-41783000D01*
X94107000Y-41624250D01*
X94107000Y-41021691D01*
X94010327Y-40788302D01*
X93831699Y-40609673D01*
X93598310Y-40513000D01*
X93542657Y-40513000D01*
X93894320Y-40161337D01*
X94107000Y-39647881D01*
X94107000Y-39092119D01*
X93894320Y-38578663D01*
X93501337Y-38185680D01*
X92987881Y-37973000D01*
X92432119Y-37973000D01*
X91918663Y-38185680D01*
X91525680Y-38578663D01*
X91313000Y-39092119D01*
X89027000Y-39092119D01*
X88814320Y-38578663D01*
X88421337Y-38185680D01*
X88214487Y-38100000D01*
X88421337Y-38014320D01*
X88814320Y-37621337D01*
X89027000Y-37107881D01*
X89027000Y-36552119D01*
X88814320Y-36038663D01*
X88421337Y-35645680D01*
X87907881Y-35433000D01*
X87352119Y-35433000D01*
X86838663Y-35645680D01*
X86445680Y-36038663D01*
X86360000Y-36245513D01*
X86274320Y-36038663D01*
X85881337Y-35645680D01*
X85367881Y-35433000D01*
X84812119Y-35433000D01*
X84298663Y-35645680D01*
X83905680Y-36038663D01*
X83820000Y-36245513D01*
X83734320Y-36038663D01*
X83341337Y-35645680D01*
X82827881Y-35433000D01*
X82272119Y-35433000D01*
X81758663Y-35645680D01*
X81365680Y-36038663D01*
X81153000Y-36552119D01*
X63988081Y-36552119D01*
X64263839Y-36139418D01*
X64379092Y-35560000D01*
X64324341Y-35284744D01*
X96974862Y-35284744D01*
X97261431Y-35711584D01*
X98428363Y-36194982D01*
X99691457Y-36195018D01*
X100858417Y-35711685D01*
X100858569Y-35711584D01*
X101145138Y-35284744D01*
X99060000Y-33199605D01*
X96974862Y-35284744D01*
X64324341Y-35284744D01*
X64263839Y-34980582D01*
X63935625Y-34489375D01*
X63444418Y-34161161D01*
X63011256Y-34075000D01*
X62718744Y-34075000D01*
X62285582Y-34161161D01*
X61794375Y-34489375D01*
X61595000Y-34787761D01*
X61395625Y-34489375D01*
X60904418Y-34161161D01*
X60471256Y-34075000D01*
X60178744Y-34075000D01*
X59745582Y-34161161D01*
X59254375Y-34489375D01*
X59041157Y-34808478D01*
X58980183Y-34678642D01*
X58551924Y-34288355D01*
X58141890Y-34118524D01*
X57912000Y-34239845D01*
X57658000Y-34239845D01*
X57428110Y-34118524D01*
X57018076Y-34288355D01*
X56589817Y-34678642D01*
X56528843Y-34808478D01*
X56315625Y-34489375D01*
X55824418Y-34161161D01*
X55391256Y-34075000D01*
X55098744Y-34075000D01*
X54665582Y-34161161D01*
X54174375Y-34489375D01*
X53975000Y-34787761D01*
X53775625Y-34489375D01*
X53284418Y-34161161D01*
X52851256Y-34075000D01*
X52558744Y-34075000D01*
X52125582Y-34161161D01*
X51634375Y-34489375D01*
X51435000Y-34787761D01*
X51235625Y-34489375D01*
X50744418Y-34161161D01*
X50311256Y-34075000D01*
X50018744Y-34075000D01*
X49585582Y-34161161D01*
X49094375Y-34489375D01*
X48895000Y-34787761D01*
X48695625Y-34489375D01*
X48204418Y-34161161D01*
X47771256Y-34075000D01*
X47478744Y-34075000D01*
X47045582Y-34161161D01*
X46554375Y-34489375D01*
X46542184Y-34507619D01*
X46533157Y-34462235D01*
X46392809Y-34252191D01*
X46182765Y-34111843D01*
X45935000Y-34062560D01*
X44235000Y-34062560D01*
X43987235Y-34111843D01*
X43777191Y-34252191D01*
X43636843Y-34462235D01*
X43587560Y-34710000D01*
X31946558Y-34710000D01*
X32384982Y-33651637D01*
X32384982Y-33651457D01*
X95884982Y-33651457D01*
X96368315Y-34818417D01*
X96368416Y-34818569D01*
X96795256Y-35105138D01*
X98880395Y-33020000D01*
X96795256Y-30934862D01*
X96368416Y-31221431D01*
X95885018Y-32388363D01*
X95884982Y-33651457D01*
X32384982Y-33651457D01*
X32385018Y-32388543D01*
X31901685Y-31221583D01*
X31901584Y-31221431D01*
X31474744Y-30934862D01*
X29389605Y-33020000D01*
X29030395Y-33020000D01*
X26945256Y-30934862D01*
X26518416Y-31221431D01*
X26110000Y-32207355D01*
X26110000Y-29920000D01*
X28397419Y-29920000D01*
X27411583Y-30328315D01*
G04 #@! TD*
M02*
