G04 #@! TF.GenerationSoftware,KiCad,Pcbnew,(5.0.2)-1*
G04 #@! TF.CreationDate,2020-10-15T01:05:58-04:00*
G04 #@! TF.ProjectId,Sequencer,53657175-656e-4636-9572-2e6b69636164,TTGO V-2.8*
G04 #@! TF.SameCoordinates,Original*
G04 #@! TF.FileFunction,Soldermask,Top*
G04 #@! TF.FilePolarity,Negative*
%FSLAX46Y46*%
G04 Gerber Fmt 4.6, Leading zero omitted, Abs format (unit mm)*
G04 Created by KiCad (PCBNEW (5.0.2)-1) date 10/15/2020 1:05:58 AM*
%MOMM*%
%LPD*%
G01*
G04 APERTURE LIST*
%ADD10C,0.100000*%
G04 APERTURE END LIST*
D10*
G36*
X99648908Y-77485380D02*
X99815767Y-77518570D01*
X100287299Y-77713885D01*
X100708803Y-77995526D01*
X100711669Y-77997441D01*
X101072559Y-78358331D01*
X101072561Y-78358334D01*
X101356115Y-78782701D01*
X101551430Y-79254233D01*
X101651000Y-79754809D01*
X101651000Y-80265191D01*
X101551430Y-80765767D01*
X101356115Y-81237299D01*
X101074474Y-81658803D01*
X101072559Y-81661669D01*
X100711669Y-82022559D01*
X100711666Y-82022561D01*
X100287299Y-82306115D01*
X99815767Y-82501430D01*
X99648908Y-82534620D01*
X99315193Y-82601000D01*
X98804807Y-82601000D01*
X98471092Y-82534620D01*
X98304233Y-82501430D01*
X97832701Y-82306115D01*
X97408334Y-82022561D01*
X97408331Y-82022559D01*
X97047441Y-81661669D01*
X97045526Y-81658803D01*
X96763885Y-81237299D01*
X96568570Y-80765767D01*
X96469000Y-80265191D01*
X96469000Y-79754809D01*
X96568570Y-79254233D01*
X96763885Y-78782701D01*
X97047439Y-78358334D01*
X97047441Y-78358331D01*
X97408331Y-77997441D01*
X97411197Y-77995526D01*
X97832701Y-77713885D01*
X98304233Y-77518570D01*
X98471092Y-77485380D01*
X98804807Y-77419000D01*
X99315193Y-77419000D01*
X99648908Y-77485380D01*
X99648908Y-77485380D01*
G37*
G36*
X29798908Y-77485380D02*
X29965767Y-77518570D01*
X30437299Y-77713885D01*
X30858803Y-77995526D01*
X30861669Y-77997441D01*
X31222559Y-78358331D01*
X31222561Y-78358334D01*
X31506115Y-78782701D01*
X31701430Y-79254233D01*
X31801000Y-79754809D01*
X31801000Y-80265191D01*
X31701430Y-80765767D01*
X31506115Y-81237299D01*
X31224474Y-81658803D01*
X31222559Y-81661669D01*
X30861669Y-82022559D01*
X30861666Y-82022561D01*
X30437299Y-82306115D01*
X29965767Y-82501430D01*
X29798908Y-82534620D01*
X29465193Y-82601000D01*
X28954807Y-82601000D01*
X28621092Y-82534620D01*
X28454233Y-82501430D01*
X27982701Y-82306115D01*
X27558334Y-82022561D01*
X27558331Y-82022559D01*
X27197441Y-81661669D01*
X27195526Y-81658803D01*
X26913885Y-81237299D01*
X26718570Y-80765767D01*
X26619000Y-80265191D01*
X26619000Y-79754809D01*
X26718570Y-79254233D01*
X26913885Y-78782701D01*
X27197439Y-78358334D01*
X27197441Y-78358331D01*
X27558331Y-77997441D01*
X27561197Y-77995526D01*
X27982701Y-77713885D01*
X28454233Y-77518570D01*
X28621092Y-77485380D01*
X28954807Y-77419000D01*
X29465193Y-77419000D01*
X29798908Y-77485380D01*
X29798908Y-77485380D01*
G37*
G36*
X70054993Y-74051206D02*
X70113075Y-74062759D01*
X70161149Y-74082672D01*
X70277210Y-74130746D01*
X70424931Y-74229450D01*
X70550550Y-74355069D01*
X70649254Y-74502790D01*
X70717241Y-74666926D01*
X70751900Y-74841169D01*
X70751900Y-75018831D01*
X70717241Y-75193074D01*
X70649254Y-75357210D01*
X70550550Y-75504931D01*
X70424931Y-75630550D01*
X70277210Y-75729254D01*
X70161149Y-75777328D01*
X70113075Y-75797241D01*
X70054993Y-75808794D01*
X69938831Y-75831900D01*
X69761169Y-75831900D01*
X69645007Y-75808794D01*
X69586925Y-75797241D01*
X69538851Y-75777328D01*
X69422790Y-75729254D01*
X69275069Y-75630550D01*
X69149450Y-75504931D01*
X69050746Y-75357210D01*
X68982759Y-75193074D01*
X68948100Y-75018831D01*
X68948100Y-74841169D01*
X68982759Y-74666926D01*
X69050746Y-74502790D01*
X69149450Y-74355069D01*
X69275069Y-74229450D01*
X69422790Y-74130746D01*
X69538851Y-74082672D01*
X69586925Y-74062759D01*
X69645007Y-74051206D01*
X69761169Y-74028100D01*
X69938831Y-74028100D01*
X70054993Y-74051206D01*
X70054993Y-74051206D01*
G37*
G36*
X64974993Y-74051206D02*
X65033075Y-74062759D01*
X65081149Y-74082672D01*
X65197210Y-74130746D01*
X65344931Y-74229450D01*
X65470550Y-74355069D01*
X65569254Y-74502790D01*
X65637241Y-74666926D01*
X65671900Y-74841169D01*
X65671900Y-75018831D01*
X65637241Y-75193074D01*
X65569254Y-75357210D01*
X65470550Y-75504931D01*
X65344931Y-75630550D01*
X65197210Y-75729254D01*
X65081149Y-75777328D01*
X65033075Y-75797241D01*
X64974993Y-75808794D01*
X64858831Y-75831900D01*
X64681169Y-75831900D01*
X64565007Y-75808794D01*
X64506925Y-75797241D01*
X64458851Y-75777328D01*
X64342790Y-75729254D01*
X64195069Y-75630550D01*
X64069450Y-75504931D01*
X63970746Y-75357210D01*
X63902759Y-75193074D01*
X63868100Y-75018831D01*
X63868100Y-74841169D01*
X63902759Y-74666926D01*
X63970746Y-74502790D01*
X64069450Y-74355069D01*
X64195069Y-74229450D01*
X64342790Y-74130746D01*
X64458851Y-74082672D01*
X64506925Y-74062759D01*
X64565007Y-74051206D01*
X64681169Y-74028100D01*
X64858831Y-74028100D01*
X64974993Y-74051206D01*
X64974993Y-74051206D01*
G37*
G36*
X92947142Y-74148242D02*
X93095102Y-74209530D01*
X93124911Y-74229448D01*
X93228257Y-74298501D01*
X93341499Y-74411743D01*
X93342191Y-74412779D01*
X93430470Y-74544898D01*
X93491758Y-74692858D01*
X93523000Y-74849925D01*
X93523000Y-75010075D01*
X93491758Y-75167142D01*
X93430470Y-75315102D01*
X93341498Y-75448258D01*
X93228258Y-75561498D01*
X93095102Y-75650470D01*
X92947142Y-75711758D01*
X92790075Y-75743000D01*
X92629925Y-75743000D01*
X92472858Y-75711758D01*
X92324898Y-75650470D01*
X92191742Y-75561498D01*
X92078502Y-75448258D01*
X91989530Y-75315102D01*
X91928242Y-75167142D01*
X91897000Y-75010075D01*
X91897000Y-74849925D01*
X91928242Y-74692858D01*
X91989530Y-74544898D01*
X92077809Y-74412779D01*
X92078501Y-74411743D01*
X92191743Y-74298501D01*
X92295089Y-74229448D01*
X92324898Y-74209530D01*
X92472858Y-74148242D01*
X92629925Y-74117000D01*
X92790075Y-74117000D01*
X92947142Y-74148242D01*
X92947142Y-74148242D01*
G37*
G36*
X77707142Y-74148242D02*
X77855102Y-74209530D01*
X77884911Y-74229448D01*
X77988257Y-74298501D01*
X78101499Y-74411743D01*
X78102191Y-74412779D01*
X78190470Y-74544898D01*
X78251758Y-74692858D01*
X78283000Y-74849925D01*
X78283000Y-75010075D01*
X78251758Y-75167142D01*
X78190470Y-75315102D01*
X78101498Y-75448258D01*
X77988258Y-75561498D01*
X77855102Y-75650470D01*
X77707142Y-75711758D01*
X77550075Y-75743000D01*
X77389925Y-75743000D01*
X77232858Y-75711758D01*
X77084898Y-75650470D01*
X76951742Y-75561498D01*
X76838502Y-75448258D01*
X76749530Y-75315102D01*
X76688242Y-75167142D01*
X76657000Y-75010075D01*
X76657000Y-74849925D01*
X76688242Y-74692858D01*
X76749530Y-74544898D01*
X76837809Y-74412779D01*
X76838501Y-74411743D01*
X76951743Y-74298501D01*
X77055089Y-74229448D01*
X77084898Y-74209530D01*
X77232858Y-74148242D01*
X77389925Y-74117000D01*
X77550075Y-74117000D01*
X77707142Y-74148242D01*
X77707142Y-74148242D01*
G37*
G36*
X33130442Y-72765518D02*
X33196627Y-72772037D01*
X33309853Y-72806384D01*
X33366467Y-72823557D01*
X33505087Y-72897652D01*
X33522991Y-72907222D01*
X33524253Y-72908258D01*
X33660186Y-73019814D01*
X33718238Y-73090552D01*
X33772778Y-73157009D01*
X33772779Y-73157011D01*
X33856443Y-73313533D01*
X33856443Y-73313534D01*
X33907963Y-73483373D01*
X33925359Y-73660000D01*
X33907963Y-73836627D01*
X33873616Y-73949853D01*
X33856443Y-74006467D01*
X33826354Y-74062759D01*
X33772778Y-74162991D01*
X33743448Y-74198729D01*
X33660186Y-74300186D01*
X33558729Y-74383448D01*
X33522991Y-74412778D01*
X33522989Y-74412779D01*
X33366467Y-74496443D01*
X33345543Y-74502790D01*
X33196627Y-74547963D01*
X33130442Y-74554482D01*
X33064260Y-74561000D01*
X32975740Y-74561000D01*
X32909558Y-74554482D01*
X32843373Y-74547963D01*
X32694457Y-74502790D01*
X32673533Y-74496443D01*
X32517011Y-74412779D01*
X32517009Y-74412778D01*
X32481271Y-74383448D01*
X32379814Y-74300186D01*
X32296552Y-74198729D01*
X32267222Y-74162991D01*
X32213646Y-74062759D01*
X32183557Y-74006467D01*
X32166384Y-73949853D01*
X32132037Y-73836627D01*
X32114641Y-73660000D01*
X32132037Y-73483373D01*
X32183557Y-73313534D01*
X32183557Y-73313533D01*
X32267221Y-73157011D01*
X32267222Y-73157009D01*
X32321762Y-73090552D01*
X32379814Y-73019814D01*
X32515747Y-72908258D01*
X32517009Y-72907222D01*
X32534913Y-72897652D01*
X32673533Y-72823557D01*
X32730147Y-72806384D01*
X32843373Y-72772037D01*
X32909558Y-72765518D01*
X32975740Y-72759000D01*
X33064260Y-72759000D01*
X33130442Y-72765518D01*
X33130442Y-72765518D01*
G37*
G36*
X59894993Y-71511206D02*
X59953075Y-71522759D01*
X59992892Y-71539252D01*
X60117210Y-71590746D01*
X60264931Y-71689450D01*
X60390550Y-71815069D01*
X60489254Y-71962790D01*
X60557241Y-72126926D01*
X60591900Y-72301169D01*
X60591900Y-72478831D01*
X60557241Y-72653074D01*
X60489254Y-72817210D01*
X60390550Y-72964931D01*
X60264931Y-73090550D01*
X60117210Y-73189254D01*
X60001149Y-73237328D01*
X59953075Y-73257241D01*
X59894993Y-73268794D01*
X59778831Y-73291900D01*
X59601169Y-73291900D01*
X59485007Y-73268794D01*
X59426925Y-73257241D01*
X59378851Y-73237328D01*
X59262790Y-73189254D01*
X59115069Y-73090550D01*
X58989450Y-72964931D01*
X58890746Y-72817210D01*
X58822759Y-72653074D01*
X58788100Y-72478831D01*
X58788100Y-72301169D01*
X58822759Y-72126926D01*
X58890746Y-71962790D01*
X58989450Y-71815069D01*
X59115069Y-71689450D01*
X59262790Y-71590746D01*
X59387108Y-71539252D01*
X59426925Y-71522759D01*
X59485007Y-71511206D01*
X59601169Y-71488100D01*
X59778831Y-71488100D01*
X59894993Y-71511206D01*
X59894993Y-71511206D01*
G37*
G36*
X54814993Y-71511206D02*
X54873075Y-71522759D01*
X54912892Y-71539252D01*
X55037210Y-71590746D01*
X55184931Y-71689450D01*
X55310550Y-71815069D01*
X55409254Y-71962790D01*
X55477241Y-72126926D01*
X55511900Y-72301169D01*
X55511900Y-72478831D01*
X55477241Y-72653074D01*
X55409254Y-72817210D01*
X55310550Y-72964931D01*
X55184931Y-73090550D01*
X55037210Y-73189254D01*
X54921149Y-73237328D01*
X54873075Y-73257241D01*
X54814993Y-73268794D01*
X54698831Y-73291900D01*
X54521169Y-73291900D01*
X54405007Y-73268794D01*
X54346925Y-73257241D01*
X54298851Y-73237328D01*
X54182790Y-73189254D01*
X54035069Y-73090550D01*
X53909450Y-72964931D01*
X53810746Y-72817210D01*
X53742759Y-72653074D01*
X53708100Y-72478831D01*
X53708100Y-72301169D01*
X53742759Y-72126926D01*
X53810746Y-71962790D01*
X53909450Y-71815069D01*
X54035069Y-71689450D01*
X54182790Y-71590746D01*
X54307108Y-71539252D01*
X54346925Y-71522759D01*
X54405007Y-71511206D01*
X54521169Y-71488100D01*
X54698831Y-71488100D01*
X54814993Y-71511206D01*
X54814993Y-71511206D01*
G37*
G36*
X70054993Y-71511206D02*
X70113075Y-71522759D01*
X70152892Y-71539252D01*
X70277210Y-71590746D01*
X70424931Y-71689450D01*
X70550550Y-71815069D01*
X70649254Y-71962790D01*
X70717241Y-72126926D01*
X70751900Y-72301169D01*
X70751900Y-72478831D01*
X70717241Y-72653074D01*
X70649254Y-72817210D01*
X70550550Y-72964931D01*
X70424931Y-73090550D01*
X70277210Y-73189254D01*
X70161149Y-73237328D01*
X70113075Y-73257241D01*
X70054993Y-73268794D01*
X69938831Y-73291900D01*
X69761169Y-73291900D01*
X69645007Y-73268794D01*
X69586925Y-73257241D01*
X69538851Y-73237328D01*
X69422790Y-73189254D01*
X69275069Y-73090550D01*
X69149450Y-72964931D01*
X69050746Y-72817210D01*
X68982759Y-72653074D01*
X68948100Y-72478831D01*
X68948100Y-72301169D01*
X68982759Y-72126926D01*
X69050746Y-71962790D01*
X69149450Y-71815069D01*
X69275069Y-71689450D01*
X69422790Y-71590746D01*
X69547108Y-71539252D01*
X69586925Y-71522759D01*
X69645007Y-71511206D01*
X69761169Y-71488100D01*
X69938831Y-71488100D01*
X70054993Y-71511206D01*
X70054993Y-71511206D01*
G37*
G36*
X64974993Y-71511206D02*
X65033075Y-71522759D01*
X65072892Y-71539252D01*
X65197210Y-71590746D01*
X65344931Y-71689450D01*
X65470550Y-71815069D01*
X65569254Y-71962790D01*
X65637241Y-72126926D01*
X65671900Y-72301169D01*
X65671900Y-72478831D01*
X65637241Y-72653074D01*
X65569254Y-72817210D01*
X65470550Y-72964931D01*
X65344931Y-73090550D01*
X65197210Y-73189254D01*
X65081149Y-73237328D01*
X65033075Y-73257241D01*
X64974993Y-73268794D01*
X64858831Y-73291900D01*
X64681169Y-73291900D01*
X64565007Y-73268794D01*
X64506925Y-73257241D01*
X64458851Y-73237328D01*
X64342790Y-73189254D01*
X64195069Y-73090550D01*
X64069450Y-72964931D01*
X63970746Y-72817210D01*
X63902759Y-72653074D01*
X63868100Y-72478831D01*
X63868100Y-72301169D01*
X63902759Y-72126926D01*
X63970746Y-71962790D01*
X64069450Y-71815069D01*
X64195069Y-71689450D01*
X64342790Y-71590746D01*
X64467108Y-71539252D01*
X64506925Y-71522759D01*
X64565007Y-71511206D01*
X64681169Y-71488100D01*
X64858831Y-71488100D01*
X64974993Y-71511206D01*
X64974993Y-71511206D01*
G37*
G36*
X92947142Y-71608242D02*
X93095102Y-71669530D01*
X93228258Y-71758502D01*
X93341498Y-71871742D01*
X93430470Y-72004898D01*
X93491758Y-72152858D01*
X93523000Y-72309925D01*
X93523000Y-72470075D01*
X93491758Y-72627142D01*
X93481016Y-72653074D01*
X93430471Y-72775100D01*
X93342191Y-72907222D01*
X93341498Y-72908258D01*
X93228258Y-73021498D01*
X93095102Y-73110470D01*
X92947142Y-73171758D01*
X92790075Y-73203000D01*
X92629925Y-73203000D01*
X92472858Y-73171758D01*
X92324898Y-73110470D01*
X92191742Y-73021498D01*
X92078502Y-72908258D01*
X92077810Y-72907222D01*
X91989529Y-72775100D01*
X91938984Y-72653074D01*
X91928242Y-72627142D01*
X91897000Y-72470075D01*
X91897000Y-72309925D01*
X91928242Y-72152858D01*
X91989530Y-72004898D01*
X92078502Y-71871742D01*
X92191742Y-71758502D01*
X92324898Y-71669530D01*
X92472858Y-71608242D01*
X92629925Y-71577000D01*
X92790075Y-71577000D01*
X92947142Y-71608242D01*
X92947142Y-71608242D01*
G37*
G36*
X77707142Y-71608242D02*
X77855102Y-71669530D01*
X77988258Y-71758502D01*
X78101498Y-71871742D01*
X78190470Y-72004898D01*
X78251758Y-72152858D01*
X78283000Y-72309925D01*
X78283000Y-72470075D01*
X78251758Y-72627142D01*
X78241016Y-72653074D01*
X78190471Y-72775100D01*
X78102191Y-72907222D01*
X78101498Y-72908258D01*
X77988258Y-73021498D01*
X77855102Y-73110470D01*
X77707142Y-73171758D01*
X77550075Y-73203000D01*
X77389925Y-73203000D01*
X77232858Y-73171758D01*
X77084898Y-73110470D01*
X76951742Y-73021498D01*
X76838502Y-72908258D01*
X76837810Y-72907222D01*
X76749529Y-72775100D01*
X76698984Y-72653074D01*
X76688242Y-72627142D01*
X76657000Y-72470075D01*
X76657000Y-72309925D01*
X76688242Y-72152858D01*
X76749530Y-72004898D01*
X76838502Y-71871742D01*
X76951742Y-71758502D01*
X77084898Y-71669530D01*
X77232858Y-71608242D01*
X77389925Y-71577000D01*
X77550075Y-71577000D01*
X77707142Y-71608242D01*
X77707142Y-71608242D01*
G37*
G36*
X33921000Y-72021000D02*
X32119000Y-72021000D01*
X32119000Y-70219000D01*
X33921000Y-70219000D01*
X33921000Y-72021000D01*
X33921000Y-72021000D01*
G37*
G36*
X50928600Y-70379867D02*
X51019059Y-70397860D01*
X51155732Y-70454472D01*
X51212715Y-70492547D01*
X51278738Y-70536662D01*
X51383338Y-70641262D01*
X51383340Y-70641265D01*
X51465528Y-70764268D01*
X51522140Y-70900941D01*
X51551000Y-71046033D01*
X51551000Y-71193967D01*
X51522140Y-71339059D01*
X51465528Y-71475732D01*
X51397863Y-71577000D01*
X51383338Y-71598738D01*
X51278738Y-71703338D01*
X51278735Y-71703340D01*
X51155732Y-71785528D01*
X51019059Y-71842140D01*
X50932004Y-71859456D01*
X50873969Y-71871000D01*
X50726031Y-71871000D01*
X50667996Y-71859456D01*
X50580941Y-71842140D01*
X50444268Y-71785528D01*
X50321265Y-71703340D01*
X50321262Y-71703338D01*
X50216662Y-71598738D01*
X50202137Y-71577000D01*
X50134472Y-71475732D01*
X50077860Y-71339059D01*
X50049000Y-71193967D01*
X50049000Y-71046033D01*
X50077860Y-70900941D01*
X50134472Y-70764268D01*
X50216660Y-70641265D01*
X50216662Y-70641262D01*
X50321262Y-70536662D01*
X50387285Y-70492547D01*
X50444268Y-70454472D01*
X50580941Y-70397860D01*
X50671400Y-70379867D01*
X50726031Y-70369000D01*
X50873969Y-70369000D01*
X50928600Y-70379867D01*
X50928600Y-70379867D01*
G37*
G36*
X43253665Y-70372622D02*
X43327222Y-70379867D01*
X43468786Y-70422810D01*
X43599252Y-70492546D01*
X43713606Y-70586394D01*
X43807454Y-70700748D01*
X43877190Y-70831214D01*
X43920133Y-70972778D01*
X43934633Y-71120000D01*
X43920133Y-71267222D01*
X43877190Y-71408786D01*
X43807454Y-71539252D01*
X43713606Y-71653606D01*
X43599252Y-71747454D01*
X43468786Y-71817190D01*
X43327222Y-71860133D01*
X43253665Y-71867378D01*
X43216888Y-71871000D01*
X43143112Y-71871000D01*
X43106335Y-71867378D01*
X43032778Y-71860133D01*
X42891214Y-71817190D01*
X42760748Y-71747454D01*
X42646394Y-71653606D01*
X42552546Y-71539252D01*
X42482810Y-71408786D01*
X42439867Y-71267222D01*
X42425367Y-71120000D01*
X42439867Y-70972778D01*
X42482810Y-70831214D01*
X42552546Y-70700748D01*
X42646394Y-70586394D01*
X42760748Y-70492546D01*
X42891214Y-70422810D01*
X43032778Y-70379867D01*
X43106335Y-70372622D01*
X43143112Y-70369000D01*
X43216888Y-70369000D01*
X43253665Y-70372622D01*
X43253665Y-70372622D01*
G37*
G36*
X70054993Y-68971206D02*
X70113075Y-68982759D01*
X70152892Y-68999252D01*
X70277210Y-69050746D01*
X70424931Y-69149450D01*
X70550550Y-69275069D01*
X70649254Y-69422790D01*
X70717241Y-69586926D01*
X70751900Y-69761169D01*
X70751900Y-69938831D01*
X70717241Y-70113074D01*
X70649254Y-70277210D01*
X70550550Y-70424931D01*
X70424931Y-70550550D01*
X70277210Y-70649254D01*
X70161149Y-70697328D01*
X70113075Y-70717241D01*
X70054993Y-70728794D01*
X69938831Y-70751900D01*
X69761169Y-70751900D01*
X69645007Y-70728794D01*
X69586925Y-70717241D01*
X69538851Y-70697328D01*
X69422790Y-70649254D01*
X69275069Y-70550550D01*
X69149450Y-70424931D01*
X69050746Y-70277210D01*
X68982759Y-70113074D01*
X68948100Y-69938831D01*
X68948100Y-69761169D01*
X68982759Y-69586926D01*
X69050746Y-69422790D01*
X69149450Y-69275069D01*
X69275069Y-69149450D01*
X69422790Y-69050746D01*
X69547108Y-68999252D01*
X69586925Y-68982759D01*
X69645007Y-68971206D01*
X69761169Y-68948100D01*
X69938831Y-68948100D01*
X70054993Y-68971206D01*
X70054993Y-68971206D01*
G37*
G36*
X54814993Y-68971206D02*
X54873075Y-68982759D01*
X54912892Y-68999252D01*
X55037210Y-69050746D01*
X55184931Y-69149450D01*
X55310550Y-69275069D01*
X55409254Y-69422790D01*
X55477241Y-69586926D01*
X55511900Y-69761169D01*
X55511900Y-69938831D01*
X55477241Y-70113074D01*
X55409254Y-70277210D01*
X55310550Y-70424931D01*
X55184931Y-70550550D01*
X55037210Y-70649254D01*
X54921149Y-70697328D01*
X54873075Y-70717241D01*
X54814993Y-70728794D01*
X54698831Y-70751900D01*
X54521169Y-70751900D01*
X54405007Y-70728794D01*
X54346925Y-70717241D01*
X54298851Y-70697328D01*
X54182790Y-70649254D01*
X54035069Y-70550550D01*
X53909450Y-70424931D01*
X53810746Y-70277210D01*
X53742759Y-70113074D01*
X53708100Y-69938831D01*
X53708100Y-69761169D01*
X53742759Y-69586926D01*
X53810746Y-69422790D01*
X53909450Y-69275069D01*
X54035069Y-69149450D01*
X54182790Y-69050746D01*
X54307108Y-68999252D01*
X54346925Y-68982759D01*
X54405007Y-68971206D01*
X54521169Y-68948100D01*
X54698831Y-68948100D01*
X54814993Y-68971206D01*
X54814993Y-68971206D01*
G37*
G36*
X59894993Y-68971206D02*
X59953075Y-68982759D01*
X59992892Y-68999252D01*
X60117210Y-69050746D01*
X60264931Y-69149450D01*
X60390550Y-69275069D01*
X60489254Y-69422790D01*
X60557241Y-69586926D01*
X60591900Y-69761169D01*
X60591900Y-69938831D01*
X60557241Y-70113074D01*
X60489254Y-70277210D01*
X60390550Y-70424931D01*
X60264931Y-70550550D01*
X60117210Y-70649254D01*
X60001149Y-70697328D01*
X59953075Y-70717241D01*
X59894993Y-70728794D01*
X59778831Y-70751900D01*
X59601169Y-70751900D01*
X59485007Y-70728794D01*
X59426925Y-70717241D01*
X59378851Y-70697328D01*
X59262790Y-70649254D01*
X59115069Y-70550550D01*
X58989450Y-70424931D01*
X58890746Y-70277210D01*
X58822759Y-70113074D01*
X58788100Y-69938831D01*
X58788100Y-69761169D01*
X58822759Y-69586926D01*
X58890746Y-69422790D01*
X58989450Y-69275069D01*
X59115069Y-69149450D01*
X59262790Y-69050746D01*
X59387108Y-68999252D01*
X59426925Y-68982759D01*
X59485007Y-68971206D01*
X59601169Y-68948100D01*
X59778831Y-68948100D01*
X59894993Y-68971206D01*
X59894993Y-68971206D01*
G37*
G36*
X64974993Y-68971206D02*
X65033075Y-68982759D01*
X65072892Y-68999252D01*
X65197210Y-69050746D01*
X65344931Y-69149450D01*
X65470550Y-69275069D01*
X65569254Y-69422790D01*
X65637241Y-69586926D01*
X65671900Y-69761169D01*
X65671900Y-69938831D01*
X65637241Y-70113074D01*
X65569254Y-70277210D01*
X65470550Y-70424931D01*
X65344931Y-70550550D01*
X65197210Y-70649254D01*
X65081149Y-70697328D01*
X65033075Y-70717241D01*
X64974993Y-70728794D01*
X64858831Y-70751900D01*
X64681169Y-70751900D01*
X64565007Y-70728794D01*
X64506925Y-70717241D01*
X64458851Y-70697328D01*
X64342790Y-70649254D01*
X64195069Y-70550550D01*
X64069450Y-70424931D01*
X63970746Y-70277210D01*
X63902759Y-70113074D01*
X63868100Y-69938831D01*
X63868100Y-69761169D01*
X63902759Y-69586926D01*
X63970746Y-69422790D01*
X64069450Y-69275069D01*
X64195069Y-69149450D01*
X64342790Y-69050746D01*
X64467108Y-68999252D01*
X64506925Y-68982759D01*
X64565007Y-68971206D01*
X64681169Y-68948100D01*
X64858831Y-68948100D01*
X64974993Y-68971206D01*
X64974993Y-68971206D01*
G37*
G36*
X92947142Y-69068242D02*
X93095102Y-69129530D01*
X93228258Y-69218502D01*
X93341498Y-69331742D01*
X93430470Y-69464898D01*
X93491758Y-69612858D01*
X93523000Y-69769925D01*
X93523000Y-69930075D01*
X93491758Y-70087142D01*
X93430470Y-70235102D01*
X93341498Y-70368258D01*
X93228258Y-70481498D01*
X93095102Y-70570470D01*
X92947142Y-70631758D01*
X92790075Y-70663000D01*
X92629925Y-70663000D01*
X92472858Y-70631758D01*
X92324898Y-70570470D01*
X92191742Y-70481498D01*
X92078502Y-70368258D01*
X91989530Y-70235102D01*
X91928242Y-70087142D01*
X91897000Y-69930075D01*
X91897000Y-69769925D01*
X91928242Y-69612858D01*
X91989530Y-69464898D01*
X92078502Y-69331742D01*
X92191742Y-69218502D01*
X92324898Y-69129530D01*
X92472858Y-69068242D01*
X92629925Y-69037000D01*
X92790075Y-69037000D01*
X92947142Y-69068242D01*
X92947142Y-69068242D01*
G37*
G36*
X77707142Y-69068242D02*
X77855102Y-69129530D01*
X77988258Y-69218502D01*
X78101498Y-69331742D01*
X78190470Y-69464898D01*
X78251758Y-69612858D01*
X78283000Y-69769925D01*
X78283000Y-69930075D01*
X78251758Y-70087142D01*
X78190470Y-70235102D01*
X78101498Y-70368258D01*
X77988258Y-70481498D01*
X77855102Y-70570470D01*
X77707142Y-70631758D01*
X77550075Y-70663000D01*
X77389925Y-70663000D01*
X77232858Y-70631758D01*
X77084898Y-70570470D01*
X76951742Y-70481498D01*
X76838502Y-70368258D01*
X76749530Y-70235102D01*
X76688242Y-70087142D01*
X76657000Y-69930075D01*
X76657000Y-69769925D01*
X76688242Y-69612858D01*
X76749530Y-69464898D01*
X76838502Y-69331742D01*
X76951742Y-69218502D01*
X77084898Y-69129530D01*
X77232858Y-69068242D01*
X77389925Y-69037000D01*
X77550075Y-69037000D01*
X77707142Y-69068242D01*
X77707142Y-69068242D01*
G37*
G36*
X33921000Y-69481000D02*
X32119000Y-69481000D01*
X32119000Y-67679000D01*
X33921000Y-67679000D01*
X33921000Y-69481000D01*
X33921000Y-69481000D01*
G37*
G36*
X43253665Y-67832622D02*
X43327222Y-67839867D01*
X43468786Y-67882810D01*
X43599252Y-67952546D01*
X43713606Y-68046394D01*
X43807454Y-68160748D01*
X43877190Y-68291214D01*
X43920133Y-68432778D01*
X43934633Y-68580000D01*
X43920133Y-68727222D01*
X43877190Y-68868786D01*
X43807454Y-68999252D01*
X43713606Y-69113606D01*
X43599252Y-69207454D01*
X43468786Y-69277190D01*
X43327222Y-69320133D01*
X43253665Y-69327378D01*
X43216888Y-69331000D01*
X43143112Y-69331000D01*
X43106335Y-69327378D01*
X43032778Y-69320133D01*
X42891214Y-69277190D01*
X42760748Y-69207454D01*
X42646394Y-69113606D01*
X42552546Y-68999252D01*
X42482810Y-68868786D01*
X42439867Y-68727222D01*
X42425367Y-68580000D01*
X42439867Y-68432778D01*
X42482810Y-68291214D01*
X42552546Y-68160748D01*
X42646394Y-68046394D01*
X42760748Y-67952546D01*
X42891214Y-67882810D01*
X43032778Y-67839867D01*
X43106335Y-67832622D01*
X43143112Y-67829000D01*
X43216888Y-67829000D01*
X43253665Y-67832622D01*
X43253665Y-67832622D01*
G37*
G36*
X50928600Y-67839867D02*
X51019059Y-67857860D01*
X51155732Y-67914472D01*
X51212715Y-67952547D01*
X51278738Y-67996662D01*
X51383338Y-68101262D01*
X51383340Y-68101265D01*
X51465528Y-68224268D01*
X51522140Y-68360941D01*
X51551000Y-68506033D01*
X51551000Y-68653967D01*
X51522140Y-68799059D01*
X51465528Y-68935732D01*
X51397863Y-69037000D01*
X51383338Y-69058738D01*
X51278738Y-69163338D01*
X51278735Y-69163340D01*
X51155732Y-69245528D01*
X51019059Y-69302140D01*
X50932004Y-69319456D01*
X50873969Y-69331000D01*
X50726031Y-69331000D01*
X50667996Y-69319456D01*
X50580941Y-69302140D01*
X50444268Y-69245528D01*
X50321265Y-69163340D01*
X50321262Y-69163338D01*
X50216662Y-69058738D01*
X50202137Y-69037000D01*
X50134472Y-68935732D01*
X50077860Y-68799059D01*
X50049000Y-68653967D01*
X50049000Y-68506033D01*
X50077860Y-68360941D01*
X50134472Y-68224268D01*
X50216660Y-68101265D01*
X50216662Y-68101262D01*
X50321262Y-67996662D01*
X50387285Y-67952547D01*
X50444268Y-67914472D01*
X50580941Y-67857860D01*
X50671400Y-67839867D01*
X50726031Y-67829000D01*
X50873969Y-67829000D01*
X50928600Y-67839867D01*
X50928600Y-67839867D01*
G37*
G36*
X54814993Y-66431206D02*
X54873075Y-66442759D01*
X54921149Y-66462672D01*
X55037210Y-66510746D01*
X55184931Y-66609450D01*
X55310550Y-66735069D01*
X55409254Y-66882790D01*
X55477241Y-67046926D01*
X55511900Y-67221169D01*
X55511900Y-67398831D01*
X55477241Y-67573074D01*
X55409254Y-67737210D01*
X55310550Y-67884931D01*
X55184931Y-68010550D01*
X55037210Y-68109254D01*
X54921149Y-68157328D01*
X54873075Y-68177241D01*
X54814993Y-68188794D01*
X54698831Y-68211900D01*
X54521169Y-68211900D01*
X54405007Y-68188794D01*
X54346925Y-68177241D01*
X54298851Y-68157328D01*
X54182790Y-68109254D01*
X54035069Y-68010550D01*
X53909450Y-67884931D01*
X53810746Y-67737210D01*
X53742759Y-67573074D01*
X53708100Y-67398831D01*
X53708100Y-67221169D01*
X53742759Y-67046926D01*
X53810746Y-66882790D01*
X53909450Y-66735069D01*
X54035069Y-66609450D01*
X54182790Y-66510746D01*
X54298851Y-66462672D01*
X54346925Y-66442759D01*
X54405007Y-66431206D01*
X54521169Y-66408100D01*
X54698831Y-66408100D01*
X54814993Y-66431206D01*
X54814993Y-66431206D01*
G37*
G36*
X59894993Y-66431206D02*
X59953075Y-66442759D01*
X60001149Y-66462672D01*
X60117210Y-66510746D01*
X60264931Y-66609450D01*
X60390550Y-66735069D01*
X60489254Y-66882790D01*
X60557241Y-67046926D01*
X60591900Y-67221169D01*
X60591900Y-67398831D01*
X60557241Y-67573074D01*
X60489254Y-67737210D01*
X60390550Y-67884931D01*
X60264931Y-68010550D01*
X60117210Y-68109254D01*
X60001149Y-68157328D01*
X59953075Y-68177241D01*
X59894993Y-68188794D01*
X59778831Y-68211900D01*
X59601169Y-68211900D01*
X59485007Y-68188794D01*
X59426925Y-68177241D01*
X59378851Y-68157328D01*
X59262790Y-68109254D01*
X59115069Y-68010550D01*
X58989450Y-67884931D01*
X58890746Y-67737210D01*
X58822759Y-67573074D01*
X58788100Y-67398831D01*
X58788100Y-67221169D01*
X58822759Y-67046926D01*
X58890746Y-66882790D01*
X58989450Y-66735069D01*
X59115069Y-66609450D01*
X59262790Y-66510746D01*
X59378851Y-66462672D01*
X59426925Y-66442759D01*
X59485007Y-66431206D01*
X59601169Y-66408100D01*
X59778831Y-66408100D01*
X59894993Y-66431206D01*
X59894993Y-66431206D01*
G37*
G36*
X77707142Y-66528242D02*
X77855102Y-66589530D01*
X77884911Y-66609448D01*
X77988257Y-66678501D01*
X78101499Y-66791743D01*
X78102191Y-66792779D01*
X78190470Y-66924898D01*
X78251758Y-67072858D01*
X78283000Y-67229925D01*
X78283000Y-67390075D01*
X78251758Y-67547142D01*
X78190470Y-67695102D01*
X78101498Y-67828258D01*
X77988258Y-67941498D01*
X77855102Y-68030470D01*
X77707142Y-68091758D01*
X77550075Y-68123000D01*
X77389925Y-68123000D01*
X77232858Y-68091758D01*
X77084898Y-68030470D01*
X76951742Y-67941498D01*
X76838502Y-67828258D01*
X76749530Y-67695102D01*
X76688242Y-67547142D01*
X76657000Y-67390075D01*
X76657000Y-67229925D01*
X76688242Y-67072858D01*
X76749530Y-66924898D01*
X76837809Y-66792779D01*
X76838501Y-66791743D01*
X76951743Y-66678501D01*
X77055089Y-66609448D01*
X77084898Y-66589530D01*
X77232858Y-66528242D01*
X77389925Y-66497000D01*
X77550075Y-66497000D01*
X77707142Y-66528242D01*
X77707142Y-66528242D01*
G37*
G36*
X92947142Y-66528242D02*
X93095102Y-66589530D01*
X93124911Y-66609448D01*
X93228257Y-66678501D01*
X93341499Y-66791743D01*
X93342191Y-66792779D01*
X93430470Y-66924898D01*
X93491758Y-67072858D01*
X93523000Y-67229925D01*
X93523000Y-67390075D01*
X93491758Y-67547142D01*
X93430470Y-67695102D01*
X93341498Y-67828258D01*
X93228258Y-67941498D01*
X93095102Y-68030470D01*
X92947142Y-68091758D01*
X92790075Y-68123000D01*
X92629925Y-68123000D01*
X92472858Y-68091758D01*
X92324898Y-68030470D01*
X92191742Y-67941498D01*
X92078502Y-67828258D01*
X91989530Y-67695102D01*
X91928242Y-67547142D01*
X91897000Y-67390075D01*
X91897000Y-67229925D01*
X91928242Y-67072858D01*
X91989530Y-66924898D01*
X92077809Y-66792779D01*
X92078501Y-66791743D01*
X92191743Y-66678501D01*
X92295089Y-66609448D01*
X92324898Y-66589530D01*
X92472858Y-66528242D01*
X92629925Y-66497000D01*
X92790075Y-66497000D01*
X92947142Y-66528242D01*
X92947142Y-66528242D01*
G37*
G36*
X33130442Y-65145518D02*
X33196627Y-65152037D01*
X33309853Y-65186384D01*
X33366467Y-65203557D01*
X33444146Y-65245078D01*
X33522991Y-65287222D01*
X33524253Y-65288258D01*
X33660186Y-65399814D01*
X33734584Y-65490470D01*
X33772778Y-65537009D01*
X33772779Y-65537011D01*
X33856443Y-65693533D01*
X33856443Y-65693534D01*
X33907963Y-65863373D01*
X33925359Y-66040000D01*
X33907963Y-66216627D01*
X33873616Y-66329853D01*
X33856443Y-66386467D01*
X33826354Y-66442759D01*
X33772778Y-66542991D01*
X33743448Y-66578729D01*
X33660186Y-66680186D01*
X33558729Y-66763448D01*
X33522991Y-66792778D01*
X33522989Y-66792779D01*
X33366467Y-66876443D01*
X33345543Y-66882790D01*
X33196627Y-66927963D01*
X33130442Y-66934482D01*
X33064260Y-66941000D01*
X32975740Y-66941000D01*
X32909558Y-66934482D01*
X32843373Y-66927963D01*
X32694457Y-66882790D01*
X32673533Y-66876443D01*
X32517011Y-66792779D01*
X32517009Y-66792778D01*
X32481271Y-66763448D01*
X32379814Y-66680186D01*
X32296552Y-66578729D01*
X32267222Y-66542991D01*
X32213646Y-66442759D01*
X32183557Y-66386467D01*
X32166384Y-66329853D01*
X32132037Y-66216627D01*
X32114641Y-66040000D01*
X32132037Y-65863373D01*
X32183557Y-65693534D01*
X32183557Y-65693533D01*
X32267221Y-65537011D01*
X32267222Y-65537009D01*
X32305416Y-65490470D01*
X32379814Y-65399814D01*
X32515747Y-65288258D01*
X32517009Y-65287222D01*
X32595854Y-65245078D01*
X32673533Y-65203557D01*
X32730147Y-65186384D01*
X32843373Y-65152037D01*
X32909558Y-65145518D01*
X32975740Y-65139000D01*
X33064260Y-65139000D01*
X33130442Y-65145518D01*
X33130442Y-65145518D01*
G37*
G36*
X64974993Y-63891206D02*
X65033075Y-63902759D01*
X65081149Y-63922672D01*
X65197210Y-63970746D01*
X65344931Y-64069450D01*
X65470550Y-64195069D01*
X65569254Y-64342790D01*
X65637241Y-64506926D01*
X65671900Y-64681169D01*
X65671900Y-64858831D01*
X65637241Y-65033074D01*
X65569254Y-65197210D01*
X65470550Y-65344931D01*
X65344931Y-65470550D01*
X65197210Y-65569254D01*
X65081149Y-65617328D01*
X65033075Y-65637241D01*
X64974993Y-65648794D01*
X64858831Y-65671900D01*
X64681169Y-65671900D01*
X64565007Y-65648794D01*
X64506925Y-65637241D01*
X64458851Y-65617328D01*
X64342790Y-65569254D01*
X64195069Y-65470550D01*
X64069450Y-65344931D01*
X63970746Y-65197210D01*
X63902759Y-65033074D01*
X63868100Y-64858831D01*
X63868100Y-64681169D01*
X63902759Y-64506926D01*
X63970746Y-64342790D01*
X64069450Y-64195069D01*
X64195069Y-64069450D01*
X64342790Y-63970746D01*
X64458851Y-63922672D01*
X64506925Y-63902759D01*
X64565007Y-63891206D01*
X64681169Y-63868100D01*
X64858831Y-63868100D01*
X64974993Y-63891206D01*
X64974993Y-63891206D01*
G37*
G36*
X70054993Y-63891206D02*
X70113075Y-63902759D01*
X70161149Y-63922672D01*
X70277210Y-63970746D01*
X70424931Y-64069450D01*
X70550550Y-64195069D01*
X70649254Y-64342790D01*
X70717241Y-64506926D01*
X70751900Y-64681169D01*
X70751900Y-64858831D01*
X70717241Y-65033074D01*
X70649254Y-65197210D01*
X70550550Y-65344931D01*
X70424931Y-65470550D01*
X70277210Y-65569254D01*
X70161149Y-65617328D01*
X70113075Y-65637241D01*
X70054993Y-65648794D01*
X69938831Y-65671900D01*
X69761169Y-65671900D01*
X69645007Y-65648794D01*
X69586925Y-65637241D01*
X69538851Y-65617328D01*
X69422790Y-65569254D01*
X69275069Y-65470550D01*
X69149450Y-65344931D01*
X69050746Y-65197210D01*
X68982759Y-65033074D01*
X68948100Y-64858831D01*
X68948100Y-64681169D01*
X68982759Y-64506926D01*
X69050746Y-64342790D01*
X69149450Y-64195069D01*
X69275069Y-64069450D01*
X69422790Y-63970746D01*
X69538851Y-63922672D01*
X69586925Y-63902759D01*
X69645007Y-63891206D01*
X69761169Y-63868100D01*
X69938831Y-63868100D01*
X70054993Y-63891206D01*
X70054993Y-63891206D01*
G37*
G36*
X42158228Y-63951703D02*
X42313100Y-64015853D01*
X42452481Y-64108985D01*
X42571015Y-64227519D01*
X42664147Y-64366900D01*
X42728297Y-64521772D01*
X42761000Y-64686184D01*
X42761000Y-64853816D01*
X42728297Y-65018228D01*
X42664147Y-65173100D01*
X42571015Y-65312481D01*
X42452481Y-65431015D01*
X42313100Y-65524147D01*
X42158228Y-65588297D01*
X41993816Y-65621000D01*
X41826184Y-65621000D01*
X41661772Y-65588297D01*
X41506900Y-65524147D01*
X41367519Y-65431015D01*
X41248985Y-65312481D01*
X41155853Y-65173100D01*
X41091703Y-65018228D01*
X41059000Y-64853816D01*
X41059000Y-64686184D01*
X41091703Y-64521772D01*
X41155853Y-64366900D01*
X41248985Y-64227519D01*
X41367519Y-64108985D01*
X41506900Y-64015853D01*
X41661772Y-63951703D01*
X41826184Y-63919000D01*
X41993816Y-63919000D01*
X42158228Y-63951703D01*
X42158228Y-63951703D01*
G37*
G36*
X49696821Y-63931313D02*
X49696824Y-63931314D01*
X49696825Y-63931314D01*
X49857239Y-63979975D01*
X49857241Y-63979976D01*
X49857244Y-63979977D01*
X50005078Y-64058995D01*
X50134659Y-64165341D01*
X50241005Y-64294922D01*
X50320023Y-64442756D01*
X50320024Y-64442759D01*
X50320025Y-64442761D01*
X50368686Y-64603175D01*
X50368687Y-64603179D01*
X50385117Y-64770000D01*
X50368687Y-64936821D01*
X50368686Y-64936824D01*
X50368686Y-64936825D01*
X50343993Y-65018228D01*
X50320023Y-65097244D01*
X50241005Y-65245078D01*
X50134659Y-65374659D01*
X50005078Y-65481005D01*
X49857244Y-65560023D01*
X49857241Y-65560024D01*
X49857239Y-65560025D01*
X49696825Y-65608686D01*
X49696824Y-65608686D01*
X49696821Y-65608687D01*
X49571804Y-65621000D01*
X49488196Y-65621000D01*
X49363179Y-65608687D01*
X49363176Y-65608686D01*
X49363175Y-65608686D01*
X49202761Y-65560025D01*
X49202759Y-65560024D01*
X49202756Y-65560023D01*
X49054922Y-65481005D01*
X48925341Y-65374659D01*
X48818995Y-65245078D01*
X48739977Y-65097244D01*
X48716008Y-65018228D01*
X48691314Y-64936825D01*
X48691314Y-64936824D01*
X48691313Y-64936821D01*
X48674883Y-64770000D01*
X48691313Y-64603179D01*
X48691314Y-64603175D01*
X48739975Y-64442761D01*
X48739976Y-64442759D01*
X48739977Y-64442756D01*
X48818995Y-64294922D01*
X48925341Y-64165341D01*
X49054922Y-64058995D01*
X49202756Y-63979977D01*
X49202759Y-63979976D01*
X49202761Y-63979975D01*
X49363175Y-63931314D01*
X49363176Y-63931314D01*
X49363179Y-63931313D01*
X49488196Y-63919000D01*
X49571804Y-63919000D01*
X49696821Y-63931313D01*
X49696821Y-63931313D01*
G37*
G36*
X92947142Y-63988242D02*
X93095102Y-64049530D01*
X93228258Y-64138502D01*
X93341498Y-64251742D01*
X93430470Y-64384898D01*
X93491758Y-64532858D01*
X93523000Y-64689925D01*
X93523000Y-64850075D01*
X93491758Y-65007142D01*
X93481016Y-65033074D01*
X93430471Y-65155100D01*
X93342191Y-65287222D01*
X93341498Y-65288258D01*
X93228258Y-65401498D01*
X93095102Y-65490470D01*
X92947142Y-65551758D01*
X92790075Y-65583000D01*
X92629925Y-65583000D01*
X92472858Y-65551758D01*
X92324898Y-65490470D01*
X92191742Y-65401498D01*
X92078502Y-65288258D01*
X92077810Y-65287222D01*
X91989529Y-65155100D01*
X91938984Y-65033074D01*
X91928242Y-65007142D01*
X91897000Y-64850075D01*
X91897000Y-64689925D01*
X91928242Y-64532858D01*
X91989530Y-64384898D01*
X92078502Y-64251742D01*
X92191742Y-64138502D01*
X92324898Y-64049530D01*
X92472858Y-63988242D01*
X92629925Y-63957000D01*
X92790075Y-63957000D01*
X92947142Y-63988242D01*
X92947142Y-63988242D01*
G37*
G36*
X77707142Y-63988242D02*
X77855102Y-64049530D01*
X77988258Y-64138502D01*
X78101498Y-64251742D01*
X78190470Y-64384898D01*
X78251758Y-64532858D01*
X78283000Y-64689925D01*
X78283000Y-64850075D01*
X78251758Y-65007142D01*
X78241016Y-65033074D01*
X78190471Y-65155100D01*
X78102191Y-65287222D01*
X78101498Y-65288258D01*
X77988258Y-65401498D01*
X77855102Y-65490470D01*
X77707142Y-65551758D01*
X77550075Y-65583000D01*
X77389925Y-65583000D01*
X77232858Y-65551758D01*
X77084898Y-65490470D01*
X76951742Y-65401498D01*
X76838502Y-65288258D01*
X76837810Y-65287222D01*
X76749529Y-65155100D01*
X76698984Y-65033074D01*
X76688242Y-65007142D01*
X76657000Y-64850075D01*
X76657000Y-64689925D01*
X76688242Y-64532858D01*
X76749530Y-64384898D01*
X76838502Y-64251742D01*
X76951742Y-64138502D01*
X77084898Y-64049530D01*
X77232858Y-63988242D01*
X77389925Y-63957000D01*
X77550075Y-63957000D01*
X77707142Y-63988242D01*
X77707142Y-63988242D01*
G37*
G36*
X59894993Y-61351206D02*
X59953075Y-61362759D01*
X60001149Y-61382672D01*
X60117210Y-61430746D01*
X60264931Y-61529450D01*
X60390550Y-61655069D01*
X60489254Y-61802790D01*
X60557241Y-61966926D01*
X60591900Y-62141169D01*
X60591900Y-62318831D01*
X60557241Y-62493074D01*
X60489254Y-62657210D01*
X60390550Y-62804931D01*
X60264931Y-62930550D01*
X60117210Y-63029254D01*
X60001149Y-63077328D01*
X59953075Y-63097241D01*
X59894993Y-63108794D01*
X59778831Y-63131900D01*
X59601169Y-63131900D01*
X59485007Y-63108794D01*
X59426925Y-63097241D01*
X59378851Y-63077328D01*
X59262790Y-63029254D01*
X59115069Y-62930550D01*
X58989450Y-62804931D01*
X58890746Y-62657210D01*
X58822759Y-62493074D01*
X58788100Y-62318831D01*
X58788100Y-62141169D01*
X58822759Y-61966926D01*
X58890746Y-61802790D01*
X58989450Y-61655069D01*
X59115069Y-61529450D01*
X59262790Y-61430746D01*
X59378851Y-61382672D01*
X59426925Y-61362759D01*
X59485007Y-61351206D01*
X59601169Y-61328100D01*
X59778831Y-61328100D01*
X59894993Y-61351206D01*
X59894993Y-61351206D01*
G37*
G36*
X54814993Y-61351206D02*
X54873075Y-61362759D01*
X54921149Y-61382672D01*
X55037210Y-61430746D01*
X55184931Y-61529450D01*
X55310550Y-61655069D01*
X55409254Y-61802790D01*
X55477241Y-61966926D01*
X55511900Y-62141169D01*
X55511900Y-62318831D01*
X55477241Y-62493074D01*
X55409254Y-62657210D01*
X55310550Y-62804931D01*
X55184931Y-62930550D01*
X55037210Y-63029254D01*
X54921149Y-63077328D01*
X54873075Y-63097241D01*
X54814993Y-63108794D01*
X54698831Y-63131900D01*
X54521169Y-63131900D01*
X54405007Y-63108794D01*
X54346925Y-63097241D01*
X54298851Y-63077328D01*
X54182790Y-63029254D01*
X54035069Y-62930550D01*
X53909450Y-62804931D01*
X53810746Y-62657210D01*
X53742759Y-62493074D01*
X53708100Y-62318831D01*
X53708100Y-62141169D01*
X53742759Y-61966926D01*
X53810746Y-61802790D01*
X53909450Y-61655069D01*
X54035069Y-61529450D01*
X54182790Y-61430746D01*
X54298851Y-61382672D01*
X54346925Y-61362759D01*
X54405007Y-61351206D01*
X54521169Y-61328100D01*
X54698831Y-61328100D01*
X54814993Y-61351206D01*
X54814993Y-61351206D01*
G37*
G36*
X77707142Y-61448242D02*
X77855102Y-61509530D01*
X77988258Y-61598502D01*
X78101498Y-61711742D01*
X78190470Y-61844898D01*
X78251758Y-61992858D01*
X78283000Y-62149925D01*
X78283000Y-62310075D01*
X78251758Y-62467142D01*
X78190470Y-62615102D01*
X78101498Y-62748258D01*
X77988258Y-62861498D01*
X77855102Y-62950470D01*
X77707142Y-63011758D01*
X77550075Y-63043000D01*
X77389925Y-63043000D01*
X77232858Y-63011758D01*
X77084898Y-62950470D01*
X76951742Y-62861498D01*
X76838502Y-62748258D01*
X76749530Y-62615102D01*
X76688242Y-62467142D01*
X76657000Y-62310075D01*
X76657000Y-62149925D01*
X76688242Y-61992858D01*
X76749530Y-61844898D01*
X76838502Y-61711742D01*
X76951742Y-61598502D01*
X77084898Y-61509530D01*
X77232858Y-61448242D01*
X77389925Y-61417000D01*
X77550075Y-61417000D01*
X77707142Y-61448242D01*
X77707142Y-61448242D01*
G37*
G36*
X92947142Y-61448242D02*
X93095102Y-61509530D01*
X93228258Y-61598502D01*
X93341498Y-61711742D01*
X93430470Y-61844898D01*
X93491758Y-61992858D01*
X93523000Y-62149925D01*
X93523000Y-62310075D01*
X93491758Y-62467142D01*
X93430470Y-62615102D01*
X93341498Y-62748258D01*
X93228258Y-62861498D01*
X93095102Y-62950470D01*
X92947142Y-63011758D01*
X92790075Y-63043000D01*
X92629925Y-63043000D01*
X92472858Y-63011758D01*
X92324898Y-62950470D01*
X92191742Y-62861498D01*
X92078502Y-62748258D01*
X91989530Y-62615102D01*
X91928242Y-62467142D01*
X91897000Y-62310075D01*
X91897000Y-62149925D01*
X91928242Y-61992858D01*
X91989530Y-61844898D01*
X92078502Y-61711742D01*
X92191742Y-61598502D01*
X92324898Y-61509530D01*
X92472858Y-61448242D01*
X92629925Y-61417000D01*
X92790075Y-61417000D01*
X92947142Y-61448242D01*
X92947142Y-61448242D01*
G37*
G36*
X33297396Y-60045546D02*
X33470466Y-60117234D01*
X33626230Y-60221312D01*
X33758688Y-60353770D01*
X33862766Y-60509534D01*
X33934454Y-60682604D01*
X33971000Y-60866333D01*
X33971000Y-61053667D01*
X33934454Y-61237396D01*
X33862766Y-61410466D01*
X33758688Y-61566230D01*
X33626230Y-61698688D01*
X33470466Y-61802766D01*
X33297396Y-61874454D01*
X33113667Y-61911000D01*
X32926333Y-61911000D01*
X32742604Y-61874454D01*
X32569534Y-61802766D01*
X32413770Y-61698688D01*
X32281312Y-61566230D01*
X32177234Y-61410466D01*
X32105546Y-61237396D01*
X32069000Y-61053667D01*
X32069000Y-60866333D01*
X32105546Y-60682604D01*
X32177234Y-60509534D01*
X32281312Y-60353770D01*
X32413770Y-60221312D01*
X32569534Y-60117234D01*
X32742604Y-60045546D01*
X32926333Y-60009000D01*
X33113667Y-60009000D01*
X33297396Y-60045546D01*
X33297396Y-60045546D01*
G37*
G36*
X73826821Y-58851313D02*
X73826824Y-58851314D01*
X73826825Y-58851314D01*
X73987239Y-58899975D01*
X73987241Y-58899976D01*
X73987244Y-58899977D01*
X74135078Y-58978995D01*
X74264659Y-59085341D01*
X74371005Y-59214922D01*
X74450023Y-59362756D01*
X74450024Y-59362759D01*
X74450025Y-59362761D01*
X74498686Y-59523175D01*
X74498687Y-59523179D01*
X74515117Y-59690000D01*
X74498687Y-59856821D01*
X74498686Y-59856824D01*
X74498686Y-59856825D01*
X74473993Y-59938228D01*
X74450023Y-60017244D01*
X74371005Y-60165078D01*
X74264659Y-60294659D01*
X74135078Y-60401005D01*
X73987244Y-60480023D01*
X73987241Y-60480024D01*
X73987239Y-60480025D01*
X73826825Y-60528686D01*
X73826824Y-60528686D01*
X73826821Y-60528687D01*
X73701804Y-60541000D01*
X73618196Y-60541000D01*
X73493179Y-60528687D01*
X73493176Y-60528686D01*
X73493175Y-60528686D01*
X73332761Y-60480025D01*
X73332759Y-60480024D01*
X73332756Y-60480023D01*
X73184922Y-60401005D01*
X73055341Y-60294659D01*
X72948995Y-60165078D01*
X72869977Y-60017244D01*
X72846008Y-59938228D01*
X72821314Y-59856825D01*
X72821314Y-59856824D01*
X72821313Y-59856821D01*
X72804883Y-59690000D01*
X72821313Y-59523179D01*
X72821314Y-59523175D01*
X72869975Y-59362761D01*
X72869976Y-59362759D01*
X72869977Y-59362756D01*
X72948995Y-59214922D01*
X73055341Y-59085341D01*
X73184922Y-58978995D01*
X73332756Y-58899977D01*
X73332759Y-58899976D01*
X73332761Y-58899975D01*
X73493175Y-58851314D01*
X73493176Y-58851314D01*
X73493179Y-58851313D01*
X73618196Y-58839000D01*
X73701804Y-58839000D01*
X73826821Y-58851313D01*
X73826821Y-58851313D01*
G37*
G36*
X66288228Y-58871703D02*
X66443100Y-58935853D01*
X66582481Y-59028985D01*
X66701015Y-59147519D01*
X66794147Y-59286900D01*
X66858297Y-59441772D01*
X66891000Y-59606184D01*
X66891000Y-59773816D01*
X66858297Y-59938228D01*
X66794147Y-60093100D01*
X66701015Y-60232481D01*
X66582481Y-60351015D01*
X66443100Y-60444147D01*
X66288228Y-60508297D01*
X66123816Y-60541000D01*
X65956184Y-60541000D01*
X65791772Y-60508297D01*
X65636900Y-60444147D01*
X65497519Y-60351015D01*
X65378985Y-60232481D01*
X65285853Y-60093100D01*
X65221703Y-59938228D01*
X65189000Y-59773816D01*
X65189000Y-59606184D01*
X65221703Y-59441772D01*
X65285853Y-59286900D01*
X65378985Y-59147519D01*
X65497519Y-59028985D01*
X65636900Y-58935853D01*
X65791772Y-58871703D01*
X65956184Y-58839000D01*
X66123816Y-58839000D01*
X66288228Y-58871703D01*
X66288228Y-58871703D01*
G37*
G36*
X77707142Y-58908242D02*
X77855102Y-58969530D01*
X77988258Y-59058502D01*
X78101498Y-59171742D01*
X78190470Y-59304898D01*
X78251758Y-59452858D01*
X78283000Y-59609925D01*
X78283000Y-59770075D01*
X78251758Y-59927142D01*
X78190470Y-60075102D01*
X78101498Y-60208258D01*
X77988258Y-60321498D01*
X77855102Y-60410470D01*
X77707142Y-60471758D01*
X77550075Y-60503000D01*
X77389925Y-60503000D01*
X77232858Y-60471758D01*
X77084898Y-60410470D01*
X76951742Y-60321498D01*
X76838502Y-60208258D01*
X76749530Y-60075102D01*
X76688242Y-59927142D01*
X76657000Y-59770075D01*
X76657000Y-59609925D01*
X76688242Y-59452858D01*
X76749530Y-59304898D01*
X76838502Y-59171742D01*
X76951742Y-59058502D01*
X77084898Y-58969530D01*
X77232858Y-58908242D01*
X77389925Y-58877000D01*
X77550075Y-58877000D01*
X77707142Y-58908242D01*
X77707142Y-58908242D01*
G37*
G36*
X92947142Y-58908242D02*
X93095102Y-58969530D01*
X93228258Y-59058502D01*
X93341498Y-59171742D01*
X93430470Y-59304898D01*
X93491758Y-59452858D01*
X93523000Y-59609925D01*
X93523000Y-59770075D01*
X93491758Y-59927142D01*
X93430470Y-60075102D01*
X93341498Y-60208258D01*
X93228258Y-60321498D01*
X93095102Y-60410470D01*
X92947142Y-60471758D01*
X92790075Y-60503000D01*
X92629925Y-60503000D01*
X92472858Y-60471758D01*
X92324898Y-60410470D01*
X92191742Y-60321498D01*
X92078502Y-60208258D01*
X91989530Y-60075102D01*
X91928242Y-59927142D01*
X91897000Y-59770075D01*
X91897000Y-59609925D01*
X91928242Y-59452858D01*
X91989530Y-59304898D01*
X92078502Y-59171742D01*
X92191742Y-59058502D01*
X92324898Y-58969530D01*
X92472858Y-58908242D01*
X92629925Y-58877000D01*
X92790075Y-58877000D01*
X92947142Y-58908242D01*
X92947142Y-58908242D01*
G37*
G36*
X49696821Y-58216313D02*
X49696824Y-58216314D01*
X49696825Y-58216314D01*
X49857239Y-58264975D01*
X49857241Y-58264976D01*
X49857244Y-58264977D01*
X50005078Y-58343995D01*
X50134659Y-58450341D01*
X50241005Y-58579922D01*
X50320023Y-58727756D01*
X50320024Y-58727759D01*
X50320025Y-58727761D01*
X50365296Y-58877000D01*
X50368687Y-58888179D01*
X50385117Y-59055000D01*
X50368687Y-59221821D01*
X50368686Y-59221824D01*
X50368686Y-59221825D01*
X50325934Y-59362761D01*
X50320023Y-59382244D01*
X50241005Y-59530078D01*
X50134659Y-59659659D01*
X50005078Y-59766005D01*
X49857244Y-59845023D01*
X49857241Y-59845024D01*
X49857239Y-59845025D01*
X49696825Y-59893686D01*
X49696824Y-59893686D01*
X49696821Y-59893687D01*
X49571804Y-59906000D01*
X49488196Y-59906000D01*
X49363179Y-59893687D01*
X49363176Y-59893686D01*
X49363175Y-59893686D01*
X49202761Y-59845025D01*
X49202759Y-59845024D01*
X49202756Y-59845023D01*
X49054922Y-59766005D01*
X48925341Y-59659659D01*
X48818995Y-59530078D01*
X48739977Y-59382244D01*
X48734067Y-59362761D01*
X48691314Y-59221825D01*
X48691314Y-59221824D01*
X48691313Y-59221821D01*
X48674883Y-59055000D01*
X48691313Y-58888179D01*
X48694704Y-58877000D01*
X48739975Y-58727761D01*
X48739976Y-58727759D01*
X48739977Y-58727756D01*
X48818995Y-58579922D01*
X48925341Y-58450341D01*
X49054922Y-58343995D01*
X49202756Y-58264977D01*
X49202759Y-58264976D01*
X49202761Y-58264975D01*
X49363175Y-58216314D01*
X49363176Y-58216314D01*
X49363179Y-58216313D01*
X49488196Y-58204000D01*
X49571804Y-58204000D01*
X49696821Y-58216313D01*
X49696821Y-58216313D01*
G37*
G36*
X42158228Y-58236703D02*
X42313100Y-58300853D01*
X42452481Y-58393985D01*
X42571015Y-58512519D01*
X42664147Y-58651900D01*
X42728297Y-58806772D01*
X42761000Y-58971184D01*
X42761000Y-59138816D01*
X42728297Y-59303228D01*
X42664147Y-59458100D01*
X42571015Y-59597481D01*
X42452481Y-59716015D01*
X42313100Y-59809147D01*
X42158228Y-59873297D01*
X41993816Y-59906000D01*
X41826184Y-59906000D01*
X41661772Y-59873297D01*
X41506900Y-59809147D01*
X41367519Y-59716015D01*
X41248985Y-59597481D01*
X41155853Y-59458100D01*
X41091703Y-59303228D01*
X41059000Y-59138816D01*
X41059000Y-58971184D01*
X41091703Y-58806772D01*
X41155853Y-58651900D01*
X41248985Y-58512519D01*
X41367519Y-58393985D01*
X41506900Y-58300853D01*
X41661772Y-58236703D01*
X41826184Y-58204000D01*
X41993816Y-58204000D01*
X42158228Y-58236703D01*
X42158228Y-58236703D01*
G37*
G36*
X33971000Y-59371000D02*
X32069000Y-59371000D01*
X32069000Y-57469000D01*
X33971000Y-57469000D01*
X33971000Y-59371000D01*
X33971000Y-59371000D01*
G37*
G36*
X92947142Y-56368242D02*
X93095102Y-56429530D01*
X93228258Y-56518502D01*
X93341498Y-56631742D01*
X93430470Y-56764898D01*
X93491758Y-56912858D01*
X93523000Y-57069925D01*
X93523000Y-57230075D01*
X93491758Y-57387142D01*
X93430470Y-57535102D01*
X93341498Y-57668258D01*
X93228258Y-57781498D01*
X93095102Y-57870470D01*
X92947142Y-57931758D01*
X92790075Y-57963000D01*
X92629925Y-57963000D01*
X92472858Y-57931758D01*
X92324898Y-57870470D01*
X92191742Y-57781498D01*
X92078502Y-57668258D01*
X91989530Y-57535102D01*
X91928242Y-57387142D01*
X91897000Y-57230075D01*
X91897000Y-57069925D01*
X91928242Y-56912858D01*
X91989530Y-56764898D01*
X92078502Y-56631742D01*
X92191742Y-56518502D01*
X92324898Y-56429530D01*
X92472858Y-56368242D01*
X92629925Y-56337000D01*
X92790075Y-56337000D01*
X92947142Y-56368242D01*
X92947142Y-56368242D01*
G37*
G36*
X77707142Y-56368242D02*
X77855102Y-56429530D01*
X77988258Y-56518502D01*
X78101498Y-56631742D01*
X78190470Y-56764898D01*
X78251758Y-56912858D01*
X78283000Y-57069925D01*
X78283000Y-57230075D01*
X78251758Y-57387142D01*
X78190470Y-57535102D01*
X78101498Y-57668258D01*
X77988258Y-57781498D01*
X77855102Y-57870470D01*
X77707142Y-57931758D01*
X77550075Y-57963000D01*
X77389925Y-57963000D01*
X77232858Y-57931758D01*
X77084898Y-57870470D01*
X76951742Y-57781498D01*
X76838502Y-57668258D01*
X76749530Y-57535102D01*
X76688242Y-57387142D01*
X76657000Y-57230075D01*
X76657000Y-57069925D01*
X76688242Y-56912858D01*
X76749530Y-56764898D01*
X76838502Y-56631742D01*
X76951742Y-56518502D01*
X77084898Y-56429530D01*
X77232858Y-56368242D01*
X77389925Y-56337000D01*
X77550075Y-56337000D01*
X77707142Y-56368242D01*
X77707142Y-56368242D01*
G37*
G36*
X73826821Y-54406313D02*
X73826824Y-54406314D01*
X73826825Y-54406314D01*
X73987239Y-54454975D01*
X73987241Y-54454976D01*
X73987244Y-54454977D01*
X74135078Y-54533995D01*
X74264659Y-54640341D01*
X74371005Y-54769922D01*
X74450023Y-54917756D01*
X74450024Y-54917759D01*
X74450025Y-54917761D01*
X74498686Y-55078175D01*
X74498687Y-55078179D01*
X74515117Y-55245000D01*
X74498687Y-55411821D01*
X74498686Y-55411824D01*
X74498686Y-55411825D01*
X74473993Y-55493228D01*
X74450023Y-55572244D01*
X74371005Y-55720078D01*
X74264659Y-55849659D01*
X74135078Y-55956005D01*
X73987244Y-56035023D01*
X73987241Y-56035024D01*
X73987239Y-56035025D01*
X73826825Y-56083686D01*
X73826824Y-56083686D01*
X73826821Y-56083687D01*
X73701804Y-56096000D01*
X73618196Y-56096000D01*
X73493179Y-56083687D01*
X73493176Y-56083686D01*
X73493175Y-56083686D01*
X73332761Y-56035025D01*
X73332759Y-56035024D01*
X73332756Y-56035023D01*
X73184922Y-55956005D01*
X73055341Y-55849659D01*
X72948995Y-55720078D01*
X72869977Y-55572244D01*
X72846008Y-55493228D01*
X72821314Y-55411825D01*
X72821314Y-55411824D01*
X72821313Y-55411821D01*
X72804883Y-55245000D01*
X72821313Y-55078179D01*
X72821314Y-55078175D01*
X72869975Y-54917761D01*
X72869976Y-54917759D01*
X72869977Y-54917756D01*
X72948995Y-54769922D01*
X73055341Y-54640341D01*
X73184922Y-54533995D01*
X73332756Y-54454977D01*
X73332759Y-54454976D01*
X73332761Y-54454975D01*
X73493175Y-54406314D01*
X73493176Y-54406314D01*
X73493179Y-54406313D01*
X73618196Y-54394000D01*
X73701804Y-54394000D01*
X73826821Y-54406313D01*
X73826821Y-54406313D01*
G37*
G36*
X66288228Y-54426703D02*
X66443100Y-54490853D01*
X66582481Y-54583985D01*
X66701015Y-54702519D01*
X66794147Y-54841900D01*
X66858297Y-54996772D01*
X66891000Y-55161184D01*
X66891000Y-55328816D01*
X66858297Y-55493228D01*
X66794147Y-55648100D01*
X66701015Y-55787481D01*
X66582481Y-55906015D01*
X66443100Y-55999147D01*
X66288228Y-56063297D01*
X66123816Y-56096000D01*
X65956184Y-56096000D01*
X65791772Y-56063297D01*
X65636900Y-55999147D01*
X65497519Y-55906015D01*
X65378985Y-55787481D01*
X65285853Y-55648100D01*
X65221703Y-55493228D01*
X65189000Y-55328816D01*
X65189000Y-55161184D01*
X65221703Y-54996772D01*
X65285853Y-54841900D01*
X65378985Y-54702519D01*
X65497519Y-54583985D01*
X65636900Y-54490853D01*
X65791772Y-54426703D01*
X65956184Y-54394000D01*
X66123816Y-54394000D01*
X66288228Y-54426703D01*
X66288228Y-54426703D01*
G37*
G36*
X77707142Y-53828242D02*
X77855102Y-53889530D01*
X77988258Y-53978502D01*
X78101498Y-54091742D01*
X78190470Y-54224898D01*
X78251758Y-54372858D01*
X78283000Y-54529925D01*
X78283000Y-54690075D01*
X78251758Y-54847142D01*
X78190470Y-54995102D01*
X78101498Y-55128258D01*
X77988258Y-55241498D01*
X77855102Y-55330470D01*
X77707142Y-55391758D01*
X77550075Y-55423000D01*
X77389925Y-55423000D01*
X77232858Y-55391758D01*
X77084898Y-55330470D01*
X76951742Y-55241498D01*
X76838502Y-55128258D01*
X76749530Y-54995102D01*
X76688242Y-54847142D01*
X76657000Y-54690075D01*
X76657000Y-54529925D01*
X76688242Y-54372858D01*
X76749530Y-54224898D01*
X76838502Y-54091742D01*
X76951742Y-53978502D01*
X77084898Y-53889530D01*
X77232858Y-53828242D01*
X77389925Y-53797000D01*
X77550075Y-53797000D01*
X77707142Y-53828242D01*
X77707142Y-53828242D01*
G37*
G36*
X92947142Y-53828242D02*
X93095102Y-53889530D01*
X93228258Y-53978502D01*
X93341498Y-54091742D01*
X93430470Y-54224898D01*
X93491758Y-54372858D01*
X93523000Y-54529925D01*
X93523000Y-54690075D01*
X93491758Y-54847142D01*
X93430470Y-54995102D01*
X93341498Y-55128258D01*
X93228258Y-55241498D01*
X93095102Y-55330470D01*
X92947142Y-55391758D01*
X92790075Y-55423000D01*
X92629925Y-55423000D01*
X92472858Y-55391758D01*
X92324898Y-55330470D01*
X92191742Y-55241498D01*
X92078502Y-55128258D01*
X91989530Y-54995102D01*
X91928242Y-54847142D01*
X91897000Y-54690075D01*
X91897000Y-54529925D01*
X91928242Y-54372858D01*
X91989530Y-54224898D01*
X92078502Y-54091742D01*
X92191742Y-53978502D01*
X92324898Y-53889530D01*
X92472858Y-53828242D01*
X92629925Y-53797000D01*
X92790075Y-53797000D01*
X92947142Y-53828242D01*
X92947142Y-53828242D01*
G37*
G36*
X44527993Y-52842206D02*
X44586075Y-52853759D01*
X44634149Y-52873672D01*
X44750210Y-52921746D01*
X44897931Y-53020450D01*
X45023550Y-53146069D01*
X45122254Y-53293790D01*
X45190241Y-53457926D01*
X45224900Y-53632169D01*
X45224900Y-53809831D01*
X45209047Y-53889529D01*
X45191350Y-53978502D01*
X45190241Y-53984074D01*
X45122254Y-54148210D01*
X45023550Y-54295931D01*
X44897931Y-54421550D01*
X44750210Y-54520254D01*
X44634149Y-54568328D01*
X44586075Y-54588241D01*
X44527993Y-54599794D01*
X44411831Y-54622900D01*
X44234169Y-54622900D01*
X44118007Y-54599794D01*
X44059925Y-54588241D01*
X44011851Y-54568328D01*
X43895790Y-54520254D01*
X43748069Y-54421550D01*
X43622450Y-54295931D01*
X43523746Y-54148210D01*
X43455759Y-53984074D01*
X43454651Y-53978502D01*
X43436953Y-53889529D01*
X43421100Y-53809831D01*
X43421100Y-53632169D01*
X43455759Y-53457926D01*
X43523746Y-53293790D01*
X43622450Y-53146069D01*
X43748069Y-53020450D01*
X43895790Y-52921746D01*
X44011851Y-52873672D01*
X44059925Y-52853759D01*
X44118007Y-52842206D01*
X44234169Y-52819100D01*
X44411831Y-52819100D01*
X44527993Y-52842206D01*
X44527993Y-52842206D01*
G37*
G36*
X47067993Y-52842206D02*
X47126075Y-52853759D01*
X47174149Y-52873672D01*
X47290210Y-52921746D01*
X47437931Y-53020450D01*
X47563550Y-53146069D01*
X47662254Y-53293790D01*
X47730241Y-53457926D01*
X47764900Y-53632169D01*
X47764900Y-53809831D01*
X47749047Y-53889529D01*
X47731350Y-53978502D01*
X47730241Y-53984074D01*
X47662254Y-54148210D01*
X47563550Y-54295931D01*
X47437931Y-54421550D01*
X47290210Y-54520254D01*
X47174149Y-54568328D01*
X47126075Y-54588241D01*
X47067993Y-54599794D01*
X46951831Y-54622900D01*
X46774169Y-54622900D01*
X46658007Y-54599794D01*
X46599925Y-54588241D01*
X46551851Y-54568328D01*
X46435790Y-54520254D01*
X46288069Y-54421550D01*
X46162450Y-54295931D01*
X46063746Y-54148210D01*
X45995759Y-53984074D01*
X45994651Y-53978502D01*
X45976953Y-53889529D01*
X45961100Y-53809831D01*
X45961100Y-53632169D01*
X45995759Y-53457926D01*
X46063746Y-53293790D01*
X46162450Y-53146069D01*
X46288069Y-53020450D01*
X46435790Y-52921746D01*
X46551851Y-52873672D01*
X46599925Y-52853759D01*
X46658007Y-52842206D01*
X46774169Y-52819100D01*
X46951831Y-52819100D01*
X47067993Y-52842206D01*
X47067993Y-52842206D01*
G37*
G36*
X41987993Y-52842206D02*
X42046075Y-52853759D01*
X42094149Y-52873672D01*
X42210210Y-52921746D01*
X42357931Y-53020450D01*
X42483550Y-53146069D01*
X42582254Y-53293790D01*
X42650241Y-53457926D01*
X42684900Y-53632169D01*
X42684900Y-53809831D01*
X42669047Y-53889529D01*
X42651350Y-53978502D01*
X42650241Y-53984074D01*
X42582254Y-54148210D01*
X42483550Y-54295931D01*
X42357931Y-54421550D01*
X42210210Y-54520254D01*
X42094149Y-54568328D01*
X42046075Y-54588241D01*
X41987993Y-54599794D01*
X41871831Y-54622900D01*
X41694169Y-54622900D01*
X41578007Y-54599794D01*
X41519925Y-54588241D01*
X41471851Y-54568328D01*
X41355790Y-54520254D01*
X41208069Y-54421550D01*
X41082450Y-54295931D01*
X40983746Y-54148210D01*
X40915759Y-53984074D01*
X40914651Y-53978502D01*
X40896953Y-53889529D01*
X40881100Y-53809831D01*
X40881100Y-53632169D01*
X40915759Y-53457926D01*
X40983746Y-53293790D01*
X41082450Y-53146069D01*
X41208069Y-53020450D01*
X41355790Y-52921746D01*
X41471851Y-52873672D01*
X41519925Y-52853759D01*
X41578007Y-52842206D01*
X41694169Y-52819100D01*
X41871831Y-52819100D01*
X41987993Y-52842206D01*
X41987993Y-52842206D01*
G37*
G36*
X33297396Y-52425546D02*
X33470466Y-52497234D01*
X33626230Y-52601312D01*
X33758688Y-52733770D01*
X33862766Y-52889534D01*
X33934454Y-53062604D01*
X33971000Y-53246333D01*
X33971000Y-53433667D01*
X33934454Y-53617396D01*
X33862766Y-53790466D01*
X33758688Y-53946230D01*
X33626230Y-54078688D01*
X33470466Y-54182766D01*
X33297396Y-54254454D01*
X33113667Y-54291000D01*
X32926333Y-54291000D01*
X32742604Y-54254454D01*
X32569534Y-54182766D01*
X32413770Y-54078688D01*
X32281312Y-53946230D01*
X32177234Y-53790466D01*
X32105546Y-53617396D01*
X32069000Y-53433667D01*
X32069000Y-53246333D01*
X32105546Y-53062604D01*
X32177234Y-52889534D01*
X32281312Y-52733770D01*
X32413770Y-52601312D01*
X32569534Y-52497234D01*
X32742604Y-52425546D01*
X32926333Y-52389000D01*
X33113667Y-52389000D01*
X33297396Y-52425546D01*
X33297396Y-52425546D01*
G37*
G36*
X77707142Y-51288242D02*
X77855102Y-51349530D01*
X77988258Y-51438502D01*
X78101498Y-51551742D01*
X78190470Y-51684898D01*
X78251758Y-51832858D01*
X78283000Y-51989925D01*
X78283000Y-52150075D01*
X78251758Y-52307142D01*
X78190470Y-52455102D01*
X78101498Y-52588258D01*
X77988258Y-52701498D01*
X77855102Y-52790470D01*
X77707142Y-52851758D01*
X77550075Y-52883000D01*
X77389925Y-52883000D01*
X77232858Y-52851758D01*
X77084898Y-52790470D01*
X76951742Y-52701498D01*
X76838502Y-52588258D01*
X76749530Y-52455102D01*
X76688242Y-52307142D01*
X76657000Y-52150075D01*
X76657000Y-51989925D01*
X76688242Y-51832858D01*
X76749530Y-51684898D01*
X76838502Y-51551742D01*
X76951742Y-51438502D01*
X77084898Y-51349530D01*
X77232858Y-51288242D01*
X77389925Y-51257000D01*
X77550075Y-51257000D01*
X77707142Y-51288242D01*
X77707142Y-51288242D01*
G37*
G36*
X92947142Y-51288242D02*
X93095102Y-51349530D01*
X93228258Y-51438502D01*
X93341498Y-51551742D01*
X93430470Y-51684898D01*
X93491758Y-51832858D01*
X93523000Y-51989925D01*
X93523000Y-52150075D01*
X93491758Y-52307142D01*
X93430470Y-52455102D01*
X93341498Y-52588258D01*
X93228258Y-52701498D01*
X93095102Y-52790470D01*
X92947142Y-52851758D01*
X92790075Y-52883000D01*
X92629925Y-52883000D01*
X92472858Y-52851758D01*
X92324898Y-52790470D01*
X92191742Y-52701498D01*
X92078502Y-52588258D01*
X91989530Y-52455102D01*
X91928242Y-52307142D01*
X91897000Y-52150075D01*
X91897000Y-51989925D01*
X91928242Y-51832858D01*
X91989530Y-51684898D01*
X92078502Y-51551742D01*
X92191742Y-51438502D01*
X92324898Y-51349530D01*
X92472858Y-51288242D01*
X92629925Y-51257000D01*
X92790075Y-51257000D01*
X92947142Y-51288242D01*
X92947142Y-51288242D01*
G37*
G36*
X33971000Y-51751000D02*
X32069000Y-51751000D01*
X32069000Y-49849000D01*
X33971000Y-49849000D01*
X33971000Y-51751000D01*
X33971000Y-51751000D01*
G37*
G36*
X92947142Y-48748242D02*
X93095102Y-48809530D01*
X93228258Y-48898502D01*
X93341498Y-49011742D01*
X93430470Y-49144898D01*
X93491758Y-49292858D01*
X93523000Y-49449925D01*
X93523000Y-49610075D01*
X93491758Y-49767142D01*
X93430470Y-49915102D01*
X93341498Y-50048258D01*
X93228258Y-50161498D01*
X93095102Y-50250470D01*
X92947142Y-50311758D01*
X92790075Y-50343000D01*
X92629925Y-50343000D01*
X92472858Y-50311758D01*
X92324898Y-50250470D01*
X92191742Y-50161498D01*
X92078502Y-50048258D01*
X91989530Y-49915102D01*
X91928242Y-49767142D01*
X91897000Y-49610075D01*
X91897000Y-49449925D01*
X91928242Y-49292858D01*
X91989530Y-49144898D01*
X92078502Y-49011742D01*
X92191742Y-48898502D01*
X92324898Y-48809530D01*
X92472858Y-48748242D01*
X92629925Y-48717000D01*
X92790075Y-48717000D01*
X92947142Y-48748242D01*
X92947142Y-48748242D01*
G37*
G36*
X77707142Y-48748242D02*
X77855102Y-48809530D01*
X77988258Y-48898502D01*
X78101498Y-49011742D01*
X78190470Y-49144898D01*
X78251758Y-49292858D01*
X78283000Y-49449925D01*
X78283000Y-49610075D01*
X78251758Y-49767142D01*
X78190470Y-49915102D01*
X78101498Y-50048258D01*
X77988258Y-50161498D01*
X77855102Y-50250470D01*
X77707142Y-50311758D01*
X77550075Y-50343000D01*
X77389925Y-50343000D01*
X77232858Y-50311758D01*
X77084898Y-50250470D01*
X76951742Y-50161498D01*
X76838502Y-50048258D01*
X76749530Y-49915102D01*
X76688242Y-49767142D01*
X76657000Y-49610075D01*
X76657000Y-49449925D01*
X76688242Y-49292858D01*
X76749530Y-49144898D01*
X76838502Y-49011742D01*
X76951742Y-48898502D01*
X77084898Y-48809530D01*
X77232858Y-48748242D01*
X77389925Y-48717000D01*
X77550075Y-48717000D01*
X77707142Y-48748242D01*
X77707142Y-48748242D01*
G37*
G36*
X72500442Y-46095518D02*
X72566627Y-46102037D01*
X72679853Y-46136384D01*
X72736467Y-46153557D01*
X72838774Y-46208242D01*
X72892991Y-46237222D01*
X72928729Y-46266552D01*
X73030186Y-46349814D01*
X73113448Y-46451271D01*
X73142778Y-46487009D01*
X73142779Y-46487011D01*
X73226443Y-46643533D01*
X73226443Y-46643534D01*
X73277963Y-46813373D01*
X73295359Y-46990000D01*
X73277963Y-47166627D01*
X73243616Y-47279853D01*
X73226443Y-47336467D01*
X73152348Y-47475087D01*
X73142778Y-47492991D01*
X73113448Y-47528729D01*
X73030186Y-47630186D01*
X72932358Y-47710470D01*
X72892991Y-47742778D01*
X72892989Y-47742779D01*
X72736467Y-47826443D01*
X72679853Y-47843616D01*
X72566627Y-47877963D01*
X72500443Y-47884481D01*
X72434260Y-47891000D01*
X72345740Y-47891000D01*
X72279557Y-47884481D01*
X72213373Y-47877963D01*
X72100147Y-47843616D01*
X72043533Y-47826443D01*
X71887011Y-47742779D01*
X71887009Y-47742778D01*
X71847642Y-47710470D01*
X71749814Y-47630186D01*
X71666552Y-47528729D01*
X71637222Y-47492991D01*
X71627652Y-47475087D01*
X71553557Y-47336467D01*
X71536384Y-47279853D01*
X71502037Y-47166627D01*
X71484641Y-46990000D01*
X71502037Y-46813373D01*
X71553557Y-46643534D01*
X71553557Y-46643533D01*
X71637221Y-46487011D01*
X71637222Y-46487009D01*
X71666552Y-46451271D01*
X71749814Y-46349814D01*
X71851271Y-46266552D01*
X71887009Y-46237222D01*
X71941226Y-46208242D01*
X72043533Y-46153557D01*
X72100147Y-46136384D01*
X72213373Y-46102037D01*
X72279558Y-46095518D01*
X72345740Y-46089000D01*
X72434260Y-46089000D01*
X72500442Y-46095518D01*
X72500442Y-46095518D01*
G37*
G36*
X92947142Y-46208242D02*
X93095102Y-46269530D01*
X93158387Y-46311816D01*
X93228257Y-46358501D01*
X93341499Y-46471743D01*
X93379229Y-46528210D01*
X93430470Y-46604898D01*
X93491758Y-46752858D01*
X93523000Y-46909925D01*
X93523000Y-47070075D01*
X93491758Y-47227142D01*
X93446474Y-47336466D01*
X93430471Y-47375100D01*
X93341499Y-47508257D01*
X93228257Y-47621499D01*
X93162130Y-47665683D01*
X93095102Y-47710470D01*
X92947142Y-47771758D01*
X92790075Y-47803000D01*
X92629925Y-47803000D01*
X92472858Y-47771758D01*
X92324898Y-47710470D01*
X92257870Y-47665683D01*
X92191743Y-47621499D01*
X92078501Y-47508257D01*
X91989529Y-47375100D01*
X91973526Y-47336466D01*
X91928242Y-47227142D01*
X91897000Y-47070075D01*
X91897000Y-46909925D01*
X91928242Y-46752858D01*
X91989530Y-46604898D01*
X92040771Y-46528210D01*
X92078501Y-46471743D01*
X92191743Y-46358501D01*
X92261613Y-46311816D01*
X92324898Y-46269530D01*
X92472858Y-46208242D01*
X92629925Y-46177000D01*
X92790075Y-46177000D01*
X92947142Y-46208242D01*
X92947142Y-46208242D01*
G37*
G36*
X78283000Y-47803000D02*
X76657000Y-47803000D01*
X76657000Y-46177000D01*
X78283000Y-46177000D01*
X78283000Y-47803000D01*
X78283000Y-47803000D01*
G37*
G36*
X55366228Y-45409703D02*
X55521100Y-45473853D01*
X55660481Y-45566985D01*
X55779015Y-45685519D01*
X55872147Y-45824900D01*
X55936297Y-45979772D01*
X55969000Y-46144184D01*
X55969000Y-46311816D01*
X55936297Y-46476228D01*
X55872147Y-46631100D01*
X55779015Y-46770481D01*
X55660481Y-46889015D01*
X55521100Y-46982147D01*
X55366228Y-47046297D01*
X55201816Y-47079000D01*
X55034184Y-47079000D01*
X54869772Y-47046297D01*
X54714900Y-46982147D01*
X54575519Y-46889015D01*
X54456985Y-46770481D01*
X54363853Y-46631100D01*
X54299703Y-46476228D01*
X54267000Y-46311816D01*
X54267000Y-46144184D01*
X54299703Y-45979772D01*
X54363853Y-45824900D01*
X54456985Y-45685519D01*
X54575519Y-45566985D01*
X54714900Y-45473853D01*
X54869772Y-45409703D01*
X55034184Y-45377000D01*
X55201816Y-45377000D01*
X55366228Y-45409703D01*
X55366228Y-45409703D01*
G37*
G36*
X62904821Y-45389313D02*
X62904824Y-45389314D01*
X62904825Y-45389314D01*
X63065239Y-45437975D01*
X63065241Y-45437976D01*
X63065244Y-45437977D01*
X63213078Y-45516995D01*
X63342659Y-45623341D01*
X63449005Y-45752922D01*
X63528023Y-45900756D01*
X63528024Y-45900759D01*
X63528025Y-45900761D01*
X63557339Y-45997396D01*
X63576687Y-46061179D01*
X63593117Y-46228000D01*
X63576687Y-46394821D01*
X63576686Y-46394824D01*
X63576686Y-46394825D01*
X63548722Y-46487011D01*
X63528023Y-46555244D01*
X63449005Y-46703078D01*
X63342659Y-46832659D01*
X63213078Y-46939005D01*
X63065244Y-47018023D01*
X63065241Y-47018024D01*
X63065239Y-47018025D01*
X62904825Y-47066686D01*
X62904824Y-47066686D01*
X62904821Y-47066687D01*
X62779804Y-47079000D01*
X62696196Y-47079000D01*
X62571179Y-47066687D01*
X62571176Y-47066686D01*
X62571175Y-47066686D01*
X62410761Y-47018025D01*
X62410759Y-47018024D01*
X62410756Y-47018023D01*
X62262922Y-46939005D01*
X62133341Y-46832659D01*
X62026995Y-46703078D01*
X61947977Y-46555244D01*
X61927279Y-46487011D01*
X61899314Y-46394825D01*
X61899314Y-46394824D01*
X61899313Y-46394821D01*
X61882883Y-46228000D01*
X61899313Y-46061179D01*
X61918661Y-45997396D01*
X61947975Y-45900761D01*
X61947976Y-45900759D01*
X61947977Y-45900756D01*
X62026995Y-45752922D01*
X62133341Y-45623341D01*
X62262922Y-45516995D01*
X62410756Y-45437977D01*
X62410759Y-45437976D01*
X62410761Y-45437975D01*
X62571175Y-45389314D01*
X62571176Y-45389314D01*
X62571179Y-45389313D01*
X62696196Y-45377000D01*
X62779804Y-45377000D01*
X62904821Y-45389313D01*
X62904821Y-45389313D01*
G37*
G36*
X47067993Y-45222206D02*
X47126075Y-45233759D01*
X47174149Y-45253672D01*
X47290210Y-45301746D01*
X47437931Y-45400450D01*
X47563550Y-45526069D01*
X47662254Y-45673790D01*
X47695031Y-45752922D01*
X47724846Y-45824900D01*
X47730241Y-45837926D01*
X47764900Y-46012169D01*
X47764900Y-46189831D01*
X47755473Y-46237222D01*
X47731350Y-46358502D01*
X47730241Y-46364074D01*
X47662254Y-46528210D01*
X47563550Y-46675931D01*
X47437931Y-46801550D01*
X47290210Y-46900254D01*
X47196656Y-46939005D01*
X47126075Y-46968241D01*
X47067993Y-46979794D01*
X46951831Y-47002900D01*
X46774169Y-47002900D01*
X46658007Y-46979794D01*
X46599925Y-46968241D01*
X46529344Y-46939005D01*
X46435790Y-46900254D01*
X46288069Y-46801550D01*
X46162450Y-46675931D01*
X46063746Y-46528210D01*
X45995759Y-46364074D01*
X45994651Y-46358502D01*
X45970527Y-46237222D01*
X45961100Y-46189831D01*
X45961100Y-46012169D01*
X45995759Y-45837926D01*
X46001155Y-45824900D01*
X46030969Y-45752922D01*
X46063746Y-45673790D01*
X46162450Y-45526069D01*
X46288069Y-45400450D01*
X46435790Y-45301746D01*
X46551851Y-45253672D01*
X46599925Y-45233759D01*
X46658007Y-45222206D01*
X46774169Y-45199100D01*
X46951831Y-45199100D01*
X47067993Y-45222206D01*
X47067993Y-45222206D01*
G37*
G36*
X44527993Y-45222206D02*
X44586075Y-45233759D01*
X44634149Y-45253672D01*
X44750210Y-45301746D01*
X44897931Y-45400450D01*
X45023550Y-45526069D01*
X45122254Y-45673790D01*
X45155031Y-45752922D01*
X45184846Y-45824900D01*
X45190241Y-45837926D01*
X45224900Y-46012169D01*
X45224900Y-46189831D01*
X45215473Y-46237222D01*
X45191350Y-46358502D01*
X45190241Y-46364074D01*
X45122254Y-46528210D01*
X45023550Y-46675931D01*
X44897931Y-46801550D01*
X44750210Y-46900254D01*
X44656656Y-46939005D01*
X44586075Y-46968241D01*
X44527993Y-46979794D01*
X44411831Y-47002900D01*
X44234169Y-47002900D01*
X44118007Y-46979794D01*
X44059925Y-46968241D01*
X43989344Y-46939005D01*
X43895790Y-46900254D01*
X43748069Y-46801550D01*
X43622450Y-46675931D01*
X43523746Y-46528210D01*
X43455759Y-46364074D01*
X43454651Y-46358502D01*
X43430527Y-46237222D01*
X43421100Y-46189831D01*
X43421100Y-46012169D01*
X43455759Y-45837926D01*
X43461155Y-45824900D01*
X43490969Y-45752922D01*
X43523746Y-45673790D01*
X43622450Y-45526069D01*
X43748069Y-45400450D01*
X43895790Y-45301746D01*
X44011851Y-45253672D01*
X44059925Y-45233759D01*
X44118007Y-45222206D01*
X44234169Y-45199100D01*
X44411831Y-45199100D01*
X44527993Y-45222206D01*
X44527993Y-45222206D01*
G37*
G36*
X41987993Y-45222206D02*
X42046075Y-45233759D01*
X42094149Y-45253672D01*
X42210210Y-45301746D01*
X42357931Y-45400450D01*
X42483550Y-45526069D01*
X42582254Y-45673790D01*
X42615031Y-45752922D01*
X42644846Y-45824900D01*
X42650241Y-45837926D01*
X42684900Y-46012169D01*
X42684900Y-46189831D01*
X42675473Y-46237222D01*
X42651350Y-46358502D01*
X42650241Y-46364074D01*
X42582254Y-46528210D01*
X42483550Y-46675931D01*
X42357931Y-46801550D01*
X42210210Y-46900254D01*
X42116656Y-46939005D01*
X42046075Y-46968241D01*
X41987993Y-46979794D01*
X41871831Y-47002900D01*
X41694169Y-47002900D01*
X41578007Y-46979794D01*
X41519925Y-46968241D01*
X41449344Y-46939005D01*
X41355790Y-46900254D01*
X41208069Y-46801550D01*
X41082450Y-46675931D01*
X40983746Y-46528210D01*
X40915759Y-46364074D01*
X40914651Y-46358502D01*
X40890527Y-46237222D01*
X40881100Y-46189831D01*
X40881100Y-46012169D01*
X40915759Y-45837926D01*
X40921155Y-45824900D01*
X40950969Y-45752922D01*
X40983746Y-45673790D01*
X41082450Y-45526069D01*
X41208069Y-45400450D01*
X41355790Y-45301746D01*
X41471851Y-45253672D01*
X41519925Y-45233759D01*
X41578007Y-45222206D01*
X41694169Y-45199100D01*
X41871831Y-45199100D01*
X41987993Y-45222206D01*
X41987993Y-45222206D01*
G37*
G36*
X33297396Y-44805546D02*
X33470466Y-44877234D01*
X33626230Y-44981312D01*
X33758688Y-45113770D01*
X33862766Y-45269534D01*
X33934454Y-45442604D01*
X33971000Y-45626333D01*
X33971000Y-45813667D01*
X33934454Y-45997396D01*
X33862766Y-46170466D01*
X33758688Y-46326230D01*
X33626230Y-46458688D01*
X33470466Y-46562766D01*
X33297396Y-46634454D01*
X33113667Y-46671000D01*
X32926333Y-46671000D01*
X32742604Y-46634454D01*
X32569534Y-46562766D01*
X32413770Y-46458688D01*
X32281312Y-46326230D01*
X32177234Y-46170466D01*
X32105546Y-45997396D01*
X32069000Y-45813667D01*
X32069000Y-45626333D01*
X32105546Y-45442604D01*
X32177234Y-45269534D01*
X32281312Y-45113770D01*
X32413770Y-44981312D01*
X32569534Y-44877234D01*
X32742604Y-44805546D01*
X32926333Y-44769000D01*
X33113667Y-44769000D01*
X33297396Y-44805546D01*
X33297396Y-44805546D01*
G37*
G36*
X73291000Y-45351000D02*
X71489000Y-45351000D01*
X71489000Y-43549000D01*
X73291000Y-43549000D01*
X73291000Y-45351000D01*
X73291000Y-45351000D01*
G37*
G36*
X92947142Y-43668242D02*
X93095102Y-43729530D01*
X93228258Y-43818502D01*
X93341498Y-43931742D01*
X93430470Y-44064898D01*
X93491758Y-44212858D01*
X93523000Y-44369925D01*
X93523000Y-44530075D01*
X93491758Y-44687142D01*
X93430470Y-44835102D01*
X93341498Y-44968258D01*
X93228258Y-45081498D01*
X93095102Y-45170470D01*
X92947142Y-45231758D01*
X92790075Y-45263000D01*
X92629925Y-45263000D01*
X92472858Y-45231758D01*
X92324898Y-45170470D01*
X92191742Y-45081498D01*
X92078502Y-44968258D01*
X91989530Y-44835102D01*
X91928242Y-44687142D01*
X91897000Y-44530075D01*
X91897000Y-44369925D01*
X91928242Y-44212858D01*
X91989530Y-44064898D01*
X92078502Y-43931742D01*
X92191742Y-43818502D01*
X92324898Y-43729530D01*
X92472858Y-43668242D01*
X92629925Y-43637000D01*
X92790075Y-43637000D01*
X92947142Y-43668242D01*
X92947142Y-43668242D01*
G37*
G36*
X77707142Y-43668242D02*
X77855102Y-43729530D01*
X77988258Y-43818502D01*
X78101498Y-43931742D01*
X78190470Y-44064898D01*
X78251758Y-44212858D01*
X78283000Y-44369925D01*
X78283000Y-44530075D01*
X78251758Y-44687142D01*
X78190470Y-44835102D01*
X78101498Y-44968258D01*
X77988258Y-45081498D01*
X77855102Y-45170470D01*
X77707142Y-45231758D01*
X77550075Y-45263000D01*
X77389925Y-45263000D01*
X77232858Y-45231758D01*
X77084898Y-45170470D01*
X76951742Y-45081498D01*
X76838502Y-44968258D01*
X76749530Y-44835102D01*
X76688242Y-44687142D01*
X76657000Y-44530075D01*
X76657000Y-44369925D01*
X76688242Y-44212858D01*
X76749530Y-44064898D01*
X76838502Y-43931742D01*
X76951742Y-43818502D01*
X77084898Y-43729530D01*
X77232858Y-43668242D01*
X77389925Y-43637000D01*
X77550075Y-43637000D01*
X77707142Y-43668242D01*
X77707142Y-43668242D01*
G37*
G36*
X33971000Y-44131000D02*
X32069000Y-44131000D01*
X32069000Y-42229000D01*
X33971000Y-42229000D01*
X33971000Y-44131000D01*
X33971000Y-44131000D01*
G37*
G36*
X93523000Y-42723000D02*
X91897000Y-42723000D01*
X91897000Y-41097000D01*
X93523000Y-41097000D01*
X93523000Y-42723000D01*
X93523000Y-42723000D01*
G37*
G36*
X77707142Y-41128242D02*
X77855102Y-41189530D01*
X77988258Y-41278502D01*
X78101498Y-41391742D01*
X78190470Y-41524898D01*
X78251758Y-41672858D01*
X78283000Y-41829925D01*
X78283000Y-41990075D01*
X78251758Y-42147142D01*
X78190470Y-42295102D01*
X78101498Y-42428258D01*
X77988258Y-42541498D01*
X77855102Y-42630470D01*
X77707142Y-42691758D01*
X77550075Y-42723000D01*
X77389925Y-42723000D01*
X77232858Y-42691758D01*
X77084898Y-42630470D01*
X76951742Y-42541498D01*
X76838502Y-42428258D01*
X76749530Y-42295102D01*
X76688242Y-42147142D01*
X76657000Y-41990075D01*
X76657000Y-41829925D01*
X76688242Y-41672858D01*
X76749530Y-41524898D01*
X76838502Y-41391742D01*
X76951742Y-41278502D01*
X77084898Y-41189530D01*
X77232858Y-41128242D01*
X77389925Y-41097000D01*
X77550075Y-41097000D01*
X77707142Y-41128242D01*
X77707142Y-41128242D01*
G37*
G36*
X66306000Y-40271000D02*
X64504000Y-40271000D01*
X64504000Y-38469000D01*
X66306000Y-38469000D01*
X66306000Y-40271000D01*
X66306000Y-40271000D01*
G37*
G36*
X52815443Y-38475519D02*
X52881627Y-38482037D01*
X52994853Y-38516384D01*
X53051467Y-38533557D01*
X53153774Y-38588242D01*
X53207991Y-38617222D01*
X53243729Y-38646552D01*
X53345186Y-38729814D01*
X53428448Y-38831271D01*
X53457778Y-38867009D01*
X53457779Y-38867011D01*
X53541443Y-39023533D01*
X53541443Y-39023534D01*
X53592963Y-39193373D01*
X53610359Y-39370000D01*
X53592963Y-39546627D01*
X53558616Y-39659853D01*
X53541443Y-39716467D01*
X53467348Y-39855087D01*
X53457778Y-39872991D01*
X53428448Y-39908729D01*
X53345186Y-40010186D01*
X53247358Y-40090470D01*
X53207991Y-40122778D01*
X53207989Y-40122779D01*
X53051467Y-40206443D01*
X52994853Y-40223616D01*
X52881627Y-40257963D01*
X52815443Y-40264481D01*
X52749260Y-40271000D01*
X52660740Y-40271000D01*
X52594557Y-40264481D01*
X52528373Y-40257963D01*
X52415147Y-40223616D01*
X52358533Y-40206443D01*
X52202011Y-40122779D01*
X52202009Y-40122778D01*
X52162642Y-40090470D01*
X52064814Y-40010186D01*
X51981552Y-39908729D01*
X51952222Y-39872991D01*
X51942652Y-39855087D01*
X51868557Y-39716467D01*
X51851384Y-39659853D01*
X51817037Y-39546627D01*
X51799641Y-39370000D01*
X51817037Y-39193373D01*
X51868557Y-39023534D01*
X51868557Y-39023533D01*
X51952221Y-38867011D01*
X51952222Y-38867009D01*
X51981552Y-38831271D01*
X52064814Y-38729814D01*
X52166271Y-38646552D01*
X52202009Y-38617222D01*
X52256226Y-38588242D01*
X52358533Y-38533557D01*
X52415147Y-38516384D01*
X52528373Y-38482037D01*
X52594557Y-38475519D01*
X52660740Y-38469000D01*
X52749260Y-38469000D01*
X52815443Y-38475519D01*
X52815443Y-38475519D01*
G37*
G36*
X62975443Y-38475519D02*
X63041627Y-38482037D01*
X63154853Y-38516384D01*
X63211467Y-38533557D01*
X63313774Y-38588242D01*
X63367991Y-38617222D01*
X63403729Y-38646552D01*
X63505186Y-38729814D01*
X63588448Y-38831271D01*
X63617778Y-38867009D01*
X63617779Y-38867011D01*
X63701443Y-39023533D01*
X63701443Y-39023534D01*
X63752963Y-39193373D01*
X63770359Y-39370000D01*
X63752963Y-39546627D01*
X63718616Y-39659853D01*
X63701443Y-39716467D01*
X63627348Y-39855087D01*
X63617778Y-39872991D01*
X63588448Y-39908729D01*
X63505186Y-40010186D01*
X63407358Y-40090470D01*
X63367991Y-40122778D01*
X63367989Y-40122779D01*
X63211467Y-40206443D01*
X63154853Y-40223616D01*
X63041627Y-40257963D01*
X62975443Y-40264481D01*
X62909260Y-40271000D01*
X62820740Y-40271000D01*
X62754557Y-40264481D01*
X62688373Y-40257963D01*
X62575147Y-40223616D01*
X62518533Y-40206443D01*
X62362011Y-40122779D01*
X62362009Y-40122778D01*
X62322642Y-40090470D01*
X62224814Y-40010186D01*
X62141552Y-39908729D01*
X62112222Y-39872991D01*
X62102652Y-39855087D01*
X62028557Y-39716467D01*
X62011384Y-39659853D01*
X61977037Y-39546627D01*
X61959641Y-39370000D01*
X61977037Y-39193373D01*
X62028557Y-39023534D01*
X62028557Y-39023533D01*
X62112221Y-38867011D01*
X62112222Y-38867009D01*
X62141552Y-38831271D01*
X62224814Y-38729814D01*
X62326271Y-38646552D01*
X62362009Y-38617222D01*
X62416226Y-38588242D01*
X62518533Y-38533557D01*
X62575147Y-38516384D01*
X62688373Y-38482037D01*
X62754557Y-38475519D01*
X62820740Y-38469000D01*
X62909260Y-38469000D01*
X62975443Y-38475519D01*
X62975443Y-38475519D01*
G37*
G36*
X60435443Y-38475519D02*
X60501627Y-38482037D01*
X60614853Y-38516384D01*
X60671467Y-38533557D01*
X60773774Y-38588242D01*
X60827991Y-38617222D01*
X60863729Y-38646552D01*
X60965186Y-38729814D01*
X61048448Y-38831271D01*
X61077778Y-38867009D01*
X61077779Y-38867011D01*
X61161443Y-39023533D01*
X61161443Y-39023534D01*
X61212963Y-39193373D01*
X61230359Y-39370000D01*
X61212963Y-39546627D01*
X61178616Y-39659853D01*
X61161443Y-39716467D01*
X61087348Y-39855087D01*
X61077778Y-39872991D01*
X61048448Y-39908729D01*
X60965186Y-40010186D01*
X60867358Y-40090470D01*
X60827991Y-40122778D01*
X60827989Y-40122779D01*
X60671467Y-40206443D01*
X60614853Y-40223616D01*
X60501627Y-40257963D01*
X60435443Y-40264481D01*
X60369260Y-40271000D01*
X60280740Y-40271000D01*
X60214557Y-40264481D01*
X60148373Y-40257963D01*
X60035147Y-40223616D01*
X59978533Y-40206443D01*
X59822011Y-40122779D01*
X59822009Y-40122778D01*
X59782642Y-40090470D01*
X59684814Y-40010186D01*
X59601552Y-39908729D01*
X59572222Y-39872991D01*
X59562652Y-39855087D01*
X59488557Y-39716467D01*
X59471384Y-39659853D01*
X59437037Y-39546627D01*
X59419641Y-39370000D01*
X59437037Y-39193373D01*
X59488557Y-39023534D01*
X59488557Y-39023533D01*
X59572221Y-38867011D01*
X59572222Y-38867009D01*
X59601552Y-38831271D01*
X59684814Y-38729814D01*
X59786271Y-38646552D01*
X59822009Y-38617222D01*
X59876226Y-38588242D01*
X59978533Y-38533557D01*
X60035147Y-38516384D01*
X60148373Y-38482037D01*
X60214557Y-38475519D01*
X60280740Y-38469000D01*
X60369260Y-38469000D01*
X60435443Y-38475519D01*
X60435443Y-38475519D01*
G37*
G36*
X57895443Y-38475519D02*
X57961627Y-38482037D01*
X58074853Y-38516384D01*
X58131467Y-38533557D01*
X58233774Y-38588242D01*
X58287991Y-38617222D01*
X58323729Y-38646552D01*
X58425186Y-38729814D01*
X58508448Y-38831271D01*
X58537778Y-38867009D01*
X58537779Y-38867011D01*
X58621443Y-39023533D01*
X58621443Y-39023534D01*
X58672963Y-39193373D01*
X58690359Y-39370000D01*
X58672963Y-39546627D01*
X58638616Y-39659853D01*
X58621443Y-39716467D01*
X58547348Y-39855087D01*
X58537778Y-39872991D01*
X58508448Y-39908729D01*
X58425186Y-40010186D01*
X58327358Y-40090470D01*
X58287991Y-40122778D01*
X58287989Y-40122779D01*
X58131467Y-40206443D01*
X58074853Y-40223616D01*
X57961627Y-40257963D01*
X57895443Y-40264481D01*
X57829260Y-40271000D01*
X57740740Y-40271000D01*
X57674557Y-40264481D01*
X57608373Y-40257963D01*
X57495147Y-40223616D01*
X57438533Y-40206443D01*
X57282011Y-40122779D01*
X57282009Y-40122778D01*
X57242642Y-40090470D01*
X57144814Y-40010186D01*
X57061552Y-39908729D01*
X57032222Y-39872991D01*
X57022652Y-39855087D01*
X56948557Y-39716467D01*
X56931384Y-39659853D01*
X56897037Y-39546627D01*
X56879641Y-39370000D01*
X56897037Y-39193373D01*
X56948557Y-39023534D01*
X56948557Y-39023533D01*
X57032221Y-38867011D01*
X57032222Y-38867009D01*
X57061552Y-38831271D01*
X57144814Y-38729814D01*
X57246271Y-38646552D01*
X57282009Y-38617222D01*
X57336226Y-38588242D01*
X57438533Y-38533557D01*
X57495147Y-38516384D01*
X57608373Y-38482037D01*
X57674557Y-38475519D01*
X57740740Y-38469000D01*
X57829260Y-38469000D01*
X57895443Y-38475519D01*
X57895443Y-38475519D01*
G37*
G36*
X45986000Y-40271000D02*
X44184000Y-40271000D01*
X44184000Y-38469000D01*
X45986000Y-38469000D01*
X45986000Y-40271000D01*
X45986000Y-40271000D01*
G37*
G36*
X47735443Y-38475519D02*
X47801627Y-38482037D01*
X47914853Y-38516384D01*
X47971467Y-38533557D01*
X48073774Y-38588242D01*
X48127991Y-38617222D01*
X48163729Y-38646552D01*
X48265186Y-38729814D01*
X48348448Y-38831271D01*
X48377778Y-38867009D01*
X48377779Y-38867011D01*
X48461443Y-39023533D01*
X48461443Y-39023534D01*
X48512963Y-39193373D01*
X48530359Y-39370000D01*
X48512963Y-39546627D01*
X48478616Y-39659853D01*
X48461443Y-39716467D01*
X48387348Y-39855087D01*
X48377778Y-39872991D01*
X48348448Y-39908729D01*
X48265186Y-40010186D01*
X48167358Y-40090470D01*
X48127991Y-40122778D01*
X48127989Y-40122779D01*
X47971467Y-40206443D01*
X47914853Y-40223616D01*
X47801627Y-40257963D01*
X47735443Y-40264481D01*
X47669260Y-40271000D01*
X47580740Y-40271000D01*
X47514557Y-40264481D01*
X47448373Y-40257963D01*
X47335147Y-40223616D01*
X47278533Y-40206443D01*
X47122011Y-40122779D01*
X47122009Y-40122778D01*
X47082642Y-40090470D01*
X46984814Y-40010186D01*
X46901552Y-39908729D01*
X46872222Y-39872991D01*
X46862652Y-39855087D01*
X46788557Y-39716467D01*
X46771384Y-39659853D01*
X46737037Y-39546627D01*
X46719641Y-39370000D01*
X46737037Y-39193373D01*
X46788557Y-39023534D01*
X46788557Y-39023533D01*
X46872221Y-38867011D01*
X46872222Y-38867009D01*
X46901552Y-38831271D01*
X46984814Y-38729814D01*
X47086271Y-38646552D01*
X47122009Y-38617222D01*
X47176226Y-38588242D01*
X47278533Y-38533557D01*
X47335147Y-38516384D01*
X47448373Y-38482037D01*
X47514557Y-38475519D01*
X47580740Y-38469000D01*
X47669260Y-38469000D01*
X47735443Y-38475519D01*
X47735443Y-38475519D01*
G37*
G36*
X50275443Y-38475519D02*
X50341627Y-38482037D01*
X50454853Y-38516384D01*
X50511467Y-38533557D01*
X50613774Y-38588242D01*
X50667991Y-38617222D01*
X50703729Y-38646552D01*
X50805186Y-38729814D01*
X50888448Y-38831271D01*
X50917778Y-38867009D01*
X50917779Y-38867011D01*
X51001443Y-39023533D01*
X51001443Y-39023534D01*
X51052963Y-39193373D01*
X51070359Y-39370000D01*
X51052963Y-39546627D01*
X51018616Y-39659853D01*
X51001443Y-39716467D01*
X50927348Y-39855087D01*
X50917778Y-39872991D01*
X50888448Y-39908729D01*
X50805186Y-40010186D01*
X50707358Y-40090470D01*
X50667991Y-40122778D01*
X50667989Y-40122779D01*
X50511467Y-40206443D01*
X50454853Y-40223616D01*
X50341627Y-40257963D01*
X50275443Y-40264481D01*
X50209260Y-40271000D01*
X50120740Y-40271000D01*
X50054557Y-40264481D01*
X49988373Y-40257963D01*
X49875147Y-40223616D01*
X49818533Y-40206443D01*
X49662011Y-40122779D01*
X49662009Y-40122778D01*
X49622642Y-40090470D01*
X49524814Y-40010186D01*
X49441552Y-39908729D01*
X49412222Y-39872991D01*
X49402652Y-39855087D01*
X49328557Y-39716467D01*
X49311384Y-39659853D01*
X49277037Y-39546627D01*
X49259641Y-39370000D01*
X49277037Y-39193373D01*
X49328557Y-39023534D01*
X49328557Y-39023533D01*
X49412221Y-38867011D01*
X49412222Y-38867009D01*
X49441552Y-38831271D01*
X49524814Y-38729814D01*
X49626271Y-38646552D01*
X49662009Y-38617222D01*
X49716226Y-38588242D01*
X49818533Y-38533557D01*
X49875147Y-38516384D01*
X49988373Y-38482037D01*
X50054557Y-38475519D01*
X50120740Y-38469000D01*
X50209260Y-38469000D01*
X50275443Y-38475519D01*
X50275443Y-38475519D01*
G37*
G36*
X55355443Y-38475519D02*
X55421627Y-38482037D01*
X55534853Y-38516384D01*
X55591467Y-38533557D01*
X55693774Y-38588242D01*
X55747991Y-38617222D01*
X55783729Y-38646552D01*
X55885186Y-38729814D01*
X55968448Y-38831271D01*
X55997778Y-38867009D01*
X55997779Y-38867011D01*
X56081443Y-39023533D01*
X56081443Y-39023534D01*
X56132963Y-39193373D01*
X56150359Y-39370000D01*
X56132963Y-39546627D01*
X56098616Y-39659853D01*
X56081443Y-39716467D01*
X56007348Y-39855087D01*
X55997778Y-39872991D01*
X55968448Y-39908729D01*
X55885186Y-40010186D01*
X55787358Y-40090470D01*
X55747991Y-40122778D01*
X55747989Y-40122779D01*
X55591467Y-40206443D01*
X55534853Y-40223616D01*
X55421627Y-40257963D01*
X55355443Y-40264481D01*
X55289260Y-40271000D01*
X55200740Y-40271000D01*
X55134557Y-40264481D01*
X55068373Y-40257963D01*
X54955147Y-40223616D01*
X54898533Y-40206443D01*
X54742011Y-40122779D01*
X54742009Y-40122778D01*
X54702642Y-40090470D01*
X54604814Y-40010186D01*
X54521552Y-39908729D01*
X54492222Y-39872991D01*
X54482652Y-39855087D01*
X54408557Y-39716467D01*
X54391384Y-39659853D01*
X54357037Y-39546627D01*
X54339641Y-39370000D01*
X54357037Y-39193373D01*
X54408557Y-39023534D01*
X54408557Y-39023533D01*
X54492221Y-38867011D01*
X54492222Y-38867009D01*
X54521552Y-38831271D01*
X54604814Y-38729814D01*
X54706271Y-38646552D01*
X54742009Y-38617222D01*
X54796226Y-38588242D01*
X54898533Y-38533557D01*
X54955147Y-38516384D01*
X55068373Y-38482037D01*
X55134557Y-38475519D01*
X55200740Y-38469000D01*
X55289260Y-38469000D01*
X55355443Y-38475519D01*
X55355443Y-38475519D01*
G37*
G36*
X83363000Y-40183000D02*
X81737000Y-40183000D01*
X81737000Y-38557000D01*
X83363000Y-38557000D01*
X83363000Y-40183000D01*
X83363000Y-40183000D01*
G37*
G36*
X77707142Y-38588242D02*
X77855102Y-38649530D01*
X77922130Y-38694317D01*
X77988257Y-38738501D01*
X78101499Y-38851743D01*
X78145683Y-38917870D01*
X78190470Y-38984898D01*
X78251758Y-39132858D01*
X78283000Y-39289925D01*
X78283000Y-39450075D01*
X78251758Y-39607142D01*
X78206474Y-39716466D01*
X78190471Y-39755100D01*
X78101499Y-39888257D01*
X77988257Y-40001499D01*
X77922130Y-40045683D01*
X77855102Y-40090470D01*
X77707142Y-40151758D01*
X77550075Y-40183000D01*
X77389925Y-40183000D01*
X77232858Y-40151758D01*
X77084898Y-40090470D01*
X77017870Y-40045683D01*
X76951743Y-40001499D01*
X76838501Y-39888257D01*
X76749529Y-39755100D01*
X76733526Y-39716466D01*
X76688242Y-39607142D01*
X76657000Y-39450075D01*
X76657000Y-39289925D01*
X76688242Y-39132858D01*
X76749530Y-38984898D01*
X76794317Y-38917870D01*
X76838501Y-38851743D01*
X76951743Y-38738501D01*
X77017870Y-38694317D01*
X77084898Y-38649530D01*
X77232858Y-38588242D01*
X77389925Y-38557000D01*
X77550075Y-38557000D01*
X77707142Y-38588242D01*
X77707142Y-38588242D01*
G37*
G36*
X92947142Y-38588242D02*
X93095102Y-38649530D01*
X93162130Y-38694317D01*
X93228257Y-38738501D01*
X93341499Y-38851743D01*
X93385683Y-38917870D01*
X93430470Y-38984898D01*
X93491758Y-39132858D01*
X93523000Y-39289925D01*
X93523000Y-39450075D01*
X93491758Y-39607142D01*
X93446474Y-39716466D01*
X93430471Y-39755100D01*
X93341499Y-39888257D01*
X93228257Y-40001499D01*
X93162130Y-40045683D01*
X93095102Y-40090470D01*
X92947142Y-40151758D01*
X92790075Y-40183000D01*
X92629925Y-40183000D01*
X92472858Y-40151758D01*
X92324898Y-40090470D01*
X92257870Y-40045683D01*
X92191743Y-40001499D01*
X92078501Y-39888257D01*
X91989529Y-39755100D01*
X91973526Y-39716466D01*
X91928242Y-39607142D01*
X91897000Y-39450075D01*
X91897000Y-39289925D01*
X91928242Y-39132858D01*
X91989530Y-38984898D01*
X92034317Y-38917870D01*
X92078501Y-38851743D01*
X92191743Y-38738501D01*
X92257870Y-38694317D01*
X92324898Y-38649530D01*
X92472858Y-38588242D01*
X92629925Y-38557000D01*
X92790075Y-38557000D01*
X92947142Y-38588242D01*
X92947142Y-38588242D01*
G37*
G36*
X87867142Y-38588242D02*
X88015102Y-38649530D01*
X88082130Y-38694317D01*
X88148257Y-38738501D01*
X88261499Y-38851743D01*
X88305683Y-38917870D01*
X88350470Y-38984898D01*
X88411758Y-39132858D01*
X88443000Y-39289925D01*
X88443000Y-39450075D01*
X88411758Y-39607142D01*
X88366474Y-39716466D01*
X88350471Y-39755100D01*
X88261499Y-39888257D01*
X88148257Y-40001499D01*
X88082130Y-40045683D01*
X88015102Y-40090470D01*
X87867142Y-40151758D01*
X87710075Y-40183000D01*
X87549925Y-40183000D01*
X87392858Y-40151758D01*
X87244898Y-40090470D01*
X87177870Y-40045683D01*
X87111743Y-40001499D01*
X86998501Y-39888257D01*
X86909529Y-39755100D01*
X86893526Y-39716466D01*
X86848242Y-39607142D01*
X86817000Y-39450075D01*
X86817000Y-39289925D01*
X86848242Y-39132858D01*
X86909530Y-38984898D01*
X86954317Y-38917870D01*
X86998501Y-38851743D01*
X87111743Y-38738501D01*
X87177870Y-38694317D01*
X87244898Y-38649530D01*
X87392858Y-38588242D01*
X87549925Y-38557000D01*
X87710075Y-38557000D01*
X87867142Y-38588242D01*
X87867142Y-38588242D01*
G37*
G36*
X85327142Y-38588242D02*
X85475102Y-38649530D01*
X85542130Y-38694317D01*
X85608257Y-38738501D01*
X85721499Y-38851743D01*
X85765683Y-38917870D01*
X85810470Y-38984898D01*
X85871758Y-39132858D01*
X85903000Y-39289925D01*
X85903000Y-39450075D01*
X85871758Y-39607142D01*
X85826474Y-39716466D01*
X85810471Y-39755100D01*
X85721499Y-39888257D01*
X85608257Y-40001499D01*
X85542130Y-40045683D01*
X85475102Y-40090470D01*
X85327142Y-40151758D01*
X85170075Y-40183000D01*
X85009925Y-40183000D01*
X84852858Y-40151758D01*
X84704898Y-40090470D01*
X84637870Y-40045683D01*
X84571743Y-40001499D01*
X84458501Y-39888257D01*
X84369529Y-39755100D01*
X84353526Y-39716466D01*
X84308242Y-39607142D01*
X84277000Y-39450075D01*
X84277000Y-39289925D01*
X84308242Y-39132858D01*
X84369530Y-38984898D01*
X84414317Y-38917870D01*
X84458501Y-38851743D01*
X84571743Y-38738501D01*
X84637870Y-38694317D01*
X84704898Y-38649530D01*
X84852858Y-38588242D01*
X85009925Y-38557000D01*
X85170075Y-38557000D01*
X85327142Y-38588242D01*
X85327142Y-38588242D01*
G37*
G36*
X87867142Y-36048242D02*
X88015102Y-36109530D01*
X88082130Y-36154317D01*
X88148257Y-36198501D01*
X88261499Y-36311743D01*
X88262191Y-36312779D01*
X88350470Y-36444898D01*
X88411758Y-36592858D01*
X88443000Y-36749925D01*
X88443000Y-36910075D01*
X88411758Y-37067142D01*
X88350470Y-37215102D01*
X88261498Y-37348258D01*
X88148258Y-37461498D01*
X88015102Y-37550470D01*
X87867142Y-37611758D01*
X87710075Y-37643000D01*
X87549925Y-37643000D01*
X87392858Y-37611758D01*
X87244898Y-37550470D01*
X87111742Y-37461498D01*
X86998502Y-37348258D01*
X86909530Y-37215102D01*
X86848242Y-37067142D01*
X86817000Y-36910075D01*
X86817000Y-36749925D01*
X86848242Y-36592858D01*
X86909530Y-36444898D01*
X86997809Y-36312779D01*
X86998501Y-36311743D01*
X87111743Y-36198501D01*
X87177870Y-36154317D01*
X87244898Y-36109530D01*
X87392858Y-36048242D01*
X87549925Y-36017000D01*
X87710075Y-36017000D01*
X87867142Y-36048242D01*
X87867142Y-36048242D01*
G37*
G36*
X82787142Y-36048242D02*
X82935102Y-36109530D01*
X83002130Y-36154317D01*
X83068257Y-36198501D01*
X83181499Y-36311743D01*
X83182191Y-36312779D01*
X83270470Y-36444898D01*
X83331758Y-36592858D01*
X83363000Y-36749925D01*
X83363000Y-36910075D01*
X83331758Y-37067142D01*
X83270470Y-37215102D01*
X83181498Y-37348258D01*
X83068258Y-37461498D01*
X82935102Y-37550470D01*
X82787142Y-37611758D01*
X82630075Y-37643000D01*
X82469925Y-37643000D01*
X82312858Y-37611758D01*
X82164898Y-37550470D01*
X82031742Y-37461498D01*
X81918502Y-37348258D01*
X81829530Y-37215102D01*
X81768242Y-37067142D01*
X81737000Y-36910075D01*
X81737000Y-36749925D01*
X81768242Y-36592858D01*
X81829530Y-36444898D01*
X81917809Y-36312779D01*
X81918501Y-36311743D01*
X82031743Y-36198501D01*
X82097870Y-36154317D01*
X82164898Y-36109530D01*
X82312858Y-36048242D01*
X82469925Y-36017000D01*
X82630075Y-36017000D01*
X82787142Y-36048242D01*
X82787142Y-36048242D01*
G37*
G36*
X85327142Y-36048242D02*
X85475102Y-36109530D01*
X85542130Y-36154317D01*
X85608257Y-36198501D01*
X85721499Y-36311743D01*
X85722191Y-36312779D01*
X85810470Y-36444898D01*
X85871758Y-36592858D01*
X85903000Y-36749925D01*
X85903000Y-36910075D01*
X85871758Y-37067142D01*
X85810470Y-37215102D01*
X85721498Y-37348258D01*
X85608258Y-37461498D01*
X85475102Y-37550470D01*
X85327142Y-37611758D01*
X85170075Y-37643000D01*
X85009925Y-37643000D01*
X84852858Y-37611758D01*
X84704898Y-37550470D01*
X84571742Y-37461498D01*
X84458502Y-37348258D01*
X84369530Y-37215102D01*
X84308242Y-37067142D01*
X84277000Y-36910075D01*
X84277000Y-36749925D01*
X84308242Y-36592858D01*
X84369530Y-36444898D01*
X84457809Y-36312779D01*
X84458501Y-36311743D01*
X84571743Y-36198501D01*
X84637870Y-36154317D01*
X84704898Y-36109530D01*
X84852858Y-36048242D01*
X85009925Y-36017000D01*
X85170075Y-36017000D01*
X85327142Y-36048242D01*
X85327142Y-36048242D01*
G37*
G36*
X47735443Y-34665519D02*
X47801627Y-34672037D01*
X47914853Y-34706384D01*
X47971467Y-34723557D01*
X48110087Y-34797652D01*
X48127991Y-34807222D01*
X48163729Y-34836552D01*
X48265186Y-34919814D01*
X48348448Y-35021271D01*
X48377778Y-35057009D01*
X48377779Y-35057011D01*
X48461443Y-35213533D01*
X48461443Y-35213534D01*
X48512963Y-35383373D01*
X48530359Y-35560000D01*
X48512963Y-35736627D01*
X48478616Y-35849853D01*
X48461443Y-35906467D01*
X48402361Y-36017000D01*
X48377778Y-36062991D01*
X48348448Y-36098729D01*
X48265186Y-36200186D01*
X48163729Y-36283448D01*
X48127991Y-36312778D01*
X48127989Y-36312779D01*
X47971467Y-36396443D01*
X47914853Y-36413616D01*
X47801627Y-36447963D01*
X47735442Y-36454482D01*
X47669260Y-36461000D01*
X47580740Y-36461000D01*
X47514558Y-36454482D01*
X47448373Y-36447963D01*
X47335147Y-36413616D01*
X47278533Y-36396443D01*
X47122011Y-36312779D01*
X47122009Y-36312778D01*
X47086271Y-36283448D01*
X46984814Y-36200186D01*
X46901552Y-36098729D01*
X46872222Y-36062991D01*
X46847639Y-36017000D01*
X46788557Y-35906467D01*
X46771384Y-35849853D01*
X46737037Y-35736627D01*
X46719641Y-35560000D01*
X46737037Y-35383373D01*
X46788557Y-35213534D01*
X46788557Y-35213533D01*
X46872221Y-35057011D01*
X46872222Y-35057009D01*
X46901552Y-35021271D01*
X46984814Y-34919814D01*
X47086271Y-34836552D01*
X47122009Y-34807222D01*
X47139913Y-34797652D01*
X47278533Y-34723557D01*
X47335147Y-34706384D01*
X47448373Y-34672037D01*
X47514557Y-34665519D01*
X47580740Y-34659000D01*
X47669260Y-34659000D01*
X47735443Y-34665519D01*
X47735443Y-34665519D01*
G37*
G36*
X62975443Y-34665519D02*
X63041627Y-34672037D01*
X63154853Y-34706384D01*
X63211467Y-34723557D01*
X63350087Y-34797652D01*
X63367991Y-34807222D01*
X63403729Y-34836552D01*
X63505186Y-34919814D01*
X63588448Y-35021271D01*
X63617778Y-35057009D01*
X63617779Y-35057011D01*
X63701443Y-35213533D01*
X63701443Y-35213534D01*
X63752963Y-35383373D01*
X63770359Y-35560000D01*
X63752963Y-35736627D01*
X63718616Y-35849853D01*
X63701443Y-35906467D01*
X63642361Y-36017000D01*
X63617778Y-36062991D01*
X63588448Y-36098729D01*
X63505186Y-36200186D01*
X63403729Y-36283448D01*
X63367991Y-36312778D01*
X63367989Y-36312779D01*
X63211467Y-36396443D01*
X63154853Y-36413616D01*
X63041627Y-36447963D01*
X62975442Y-36454482D01*
X62909260Y-36461000D01*
X62820740Y-36461000D01*
X62754558Y-36454482D01*
X62688373Y-36447963D01*
X62575147Y-36413616D01*
X62518533Y-36396443D01*
X62362011Y-36312779D01*
X62362009Y-36312778D01*
X62326271Y-36283448D01*
X62224814Y-36200186D01*
X62141552Y-36098729D01*
X62112222Y-36062991D01*
X62087639Y-36017000D01*
X62028557Y-35906467D01*
X62011384Y-35849853D01*
X61977037Y-35736627D01*
X61959641Y-35560000D01*
X61977037Y-35383373D01*
X62028557Y-35213534D01*
X62028557Y-35213533D01*
X62112221Y-35057011D01*
X62112222Y-35057009D01*
X62141552Y-35021271D01*
X62224814Y-34919814D01*
X62326271Y-34836552D01*
X62362009Y-34807222D01*
X62379913Y-34797652D01*
X62518533Y-34723557D01*
X62575147Y-34706384D01*
X62688373Y-34672037D01*
X62754557Y-34665519D01*
X62820740Y-34659000D01*
X62909260Y-34659000D01*
X62975443Y-34665519D01*
X62975443Y-34665519D01*
G37*
G36*
X57895443Y-34665519D02*
X57961627Y-34672037D01*
X58074853Y-34706384D01*
X58131467Y-34723557D01*
X58270087Y-34797652D01*
X58287991Y-34807222D01*
X58323729Y-34836552D01*
X58425186Y-34919814D01*
X58508448Y-35021271D01*
X58537778Y-35057009D01*
X58537779Y-35057011D01*
X58621443Y-35213533D01*
X58621443Y-35213534D01*
X58672963Y-35383373D01*
X58690359Y-35560000D01*
X58672963Y-35736627D01*
X58638616Y-35849853D01*
X58621443Y-35906467D01*
X58562361Y-36017000D01*
X58537778Y-36062991D01*
X58508448Y-36098729D01*
X58425186Y-36200186D01*
X58323729Y-36283448D01*
X58287991Y-36312778D01*
X58287989Y-36312779D01*
X58131467Y-36396443D01*
X58074853Y-36413616D01*
X57961627Y-36447963D01*
X57895442Y-36454482D01*
X57829260Y-36461000D01*
X57740740Y-36461000D01*
X57674558Y-36454482D01*
X57608373Y-36447963D01*
X57495147Y-36413616D01*
X57438533Y-36396443D01*
X57282011Y-36312779D01*
X57282009Y-36312778D01*
X57246271Y-36283448D01*
X57144814Y-36200186D01*
X57061552Y-36098729D01*
X57032222Y-36062991D01*
X57007639Y-36017000D01*
X56948557Y-35906467D01*
X56931384Y-35849853D01*
X56897037Y-35736627D01*
X56879641Y-35560000D01*
X56897037Y-35383373D01*
X56948557Y-35213534D01*
X56948557Y-35213533D01*
X57032221Y-35057011D01*
X57032222Y-35057009D01*
X57061552Y-35021271D01*
X57144814Y-34919814D01*
X57246271Y-34836552D01*
X57282009Y-34807222D01*
X57299913Y-34797652D01*
X57438533Y-34723557D01*
X57495147Y-34706384D01*
X57608373Y-34672037D01*
X57674557Y-34665519D01*
X57740740Y-34659000D01*
X57829260Y-34659000D01*
X57895443Y-34665519D01*
X57895443Y-34665519D01*
G37*
G36*
X55355443Y-34665519D02*
X55421627Y-34672037D01*
X55534853Y-34706384D01*
X55591467Y-34723557D01*
X55730087Y-34797652D01*
X55747991Y-34807222D01*
X55783729Y-34836552D01*
X55885186Y-34919814D01*
X55968448Y-35021271D01*
X55997778Y-35057009D01*
X55997779Y-35057011D01*
X56081443Y-35213533D01*
X56081443Y-35213534D01*
X56132963Y-35383373D01*
X56150359Y-35560000D01*
X56132963Y-35736627D01*
X56098616Y-35849853D01*
X56081443Y-35906467D01*
X56022361Y-36017000D01*
X55997778Y-36062991D01*
X55968448Y-36098729D01*
X55885186Y-36200186D01*
X55783729Y-36283448D01*
X55747991Y-36312778D01*
X55747989Y-36312779D01*
X55591467Y-36396443D01*
X55534853Y-36413616D01*
X55421627Y-36447963D01*
X55355442Y-36454482D01*
X55289260Y-36461000D01*
X55200740Y-36461000D01*
X55134558Y-36454482D01*
X55068373Y-36447963D01*
X54955147Y-36413616D01*
X54898533Y-36396443D01*
X54742011Y-36312779D01*
X54742009Y-36312778D01*
X54706271Y-36283448D01*
X54604814Y-36200186D01*
X54521552Y-36098729D01*
X54492222Y-36062991D01*
X54467639Y-36017000D01*
X54408557Y-35906467D01*
X54391384Y-35849853D01*
X54357037Y-35736627D01*
X54339641Y-35560000D01*
X54357037Y-35383373D01*
X54408557Y-35213534D01*
X54408557Y-35213533D01*
X54492221Y-35057011D01*
X54492222Y-35057009D01*
X54521552Y-35021271D01*
X54604814Y-34919814D01*
X54706271Y-34836552D01*
X54742009Y-34807222D01*
X54759913Y-34797652D01*
X54898533Y-34723557D01*
X54955147Y-34706384D01*
X55068373Y-34672037D01*
X55134557Y-34665519D01*
X55200740Y-34659000D01*
X55289260Y-34659000D01*
X55355443Y-34665519D01*
X55355443Y-34665519D01*
G37*
G36*
X52815443Y-34665519D02*
X52881627Y-34672037D01*
X52994853Y-34706384D01*
X53051467Y-34723557D01*
X53190087Y-34797652D01*
X53207991Y-34807222D01*
X53243729Y-34836552D01*
X53345186Y-34919814D01*
X53428448Y-35021271D01*
X53457778Y-35057009D01*
X53457779Y-35057011D01*
X53541443Y-35213533D01*
X53541443Y-35213534D01*
X53592963Y-35383373D01*
X53610359Y-35560000D01*
X53592963Y-35736627D01*
X53558616Y-35849853D01*
X53541443Y-35906467D01*
X53482361Y-36017000D01*
X53457778Y-36062991D01*
X53428448Y-36098729D01*
X53345186Y-36200186D01*
X53243729Y-36283448D01*
X53207991Y-36312778D01*
X53207989Y-36312779D01*
X53051467Y-36396443D01*
X52994853Y-36413616D01*
X52881627Y-36447963D01*
X52815442Y-36454482D01*
X52749260Y-36461000D01*
X52660740Y-36461000D01*
X52594558Y-36454482D01*
X52528373Y-36447963D01*
X52415147Y-36413616D01*
X52358533Y-36396443D01*
X52202011Y-36312779D01*
X52202009Y-36312778D01*
X52166271Y-36283448D01*
X52064814Y-36200186D01*
X51981552Y-36098729D01*
X51952222Y-36062991D01*
X51927639Y-36017000D01*
X51868557Y-35906467D01*
X51851384Y-35849853D01*
X51817037Y-35736627D01*
X51799641Y-35560000D01*
X51817037Y-35383373D01*
X51868557Y-35213534D01*
X51868557Y-35213533D01*
X51952221Y-35057011D01*
X51952222Y-35057009D01*
X51981552Y-35021271D01*
X52064814Y-34919814D01*
X52166271Y-34836552D01*
X52202009Y-34807222D01*
X52219913Y-34797652D01*
X52358533Y-34723557D01*
X52415147Y-34706384D01*
X52528373Y-34672037D01*
X52594557Y-34665519D01*
X52660740Y-34659000D01*
X52749260Y-34659000D01*
X52815443Y-34665519D01*
X52815443Y-34665519D01*
G37*
G36*
X50275443Y-34665519D02*
X50341627Y-34672037D01*
X50454853Y-34706384D01*
X50511467Y-34723557D01*
X50650087Y-34797652D01*
X50667991Y-34807222D01*
X50703729Y-34836552D01*
X50805186Y-34919814D01*
X50888448Y-35021271D01*
X50917778Y-35057009D01*
X50917779Y-35057011D01*
X51001443Y-35213533D01*
X51001443Y-35213534D01*
X51052963Y-35383373D01*
X51070359Y-35560000D01*
X51052963Y-35736627D01*
X51018616Y-35849853D01*
X51001443Y-35906467D01*
X50942361Y-36017000D01*
X50917778Y-36062991D01*
X50888448Y-36098729D01*
X50805186Y-36200186D01*
X50703729Y-36283448D01*
X50667991Y-36312778D01*
X50667989Y-36312779D01*
X50511467Y-36396443D01*
X50454853Y-36413616D01*
X50341627Y-36447963D01*
X50275442Y-36454482D01*
X50209260Y-36461000D01*
X50120740Y-36461000D01*
X50054558Y-36454482D01*
X49988373Y-36447963D01*
X49875147Y-36413616D01*
X49818533Y-36396443D01*
X49662011Y-36312779D01*
X49662009Y-36312778D01*
X49626271Y-36283448D01*
X49524814Y-36200186D01*
X49441552Y-36098729D01*
X49412222Y-36062991D01*
X49387639Y-36017000D01*
X49328557Y-35906467D01*
X49311384Y-35849853D01*
X49277037Y-35736627D01*
X49259641Y-35560000D01*
X49277037Y-35383373D01*
X49328557Y-35213534D01*
X49328557Y-35213533D01*
X49412221Y-35057011D01*
X49412222Y-35057009D01*
X49441552Y-35021271D01*
X49524814Y-34919814D01*
X49626271Y-34836552D01*
X49662009Y-34807222D01*
X49679913Y-34797652D01*
X49818533Y-34723557D01*
X49875147Y-34706384D01*
X49988373Y-34672037D01*
X50054557Y-34665519D01*
X50120740Y-34659000D01*
X50209260Y-34659000D01*
X50275443Y-34665519D01*
X50275443Y-34665519D01*
G37*
G36*
X45986000Y-36461000D02*
X44184000Y-36461000D01*
X44184000Y-34659000D01*
X45986000Y-34659000D01*
X45986000Y-36461000D01*
X45986000Y-36461000D01*
G37*
G36*
X60435443Y-34665519D02*
X60501627Y-34672037D01*
X60614853Y-34706384D01*
X60671467Y-34723557D01*
X60810087Y-34797652D01*
X60827991Y-34807222D01*
X60863729Y-34836552D01*
X60965186Y-34919814D01*
X61048448Y-35021271D01*
X61077778Y-35057009D01*
X61077779Y-35057011D01*
X61161443Y-35213533D01*
X61161443Y-35213534D01*
X61212963Y-35383373D01*
X61230359Y-35560000D01*
X61212963Y-35736627D01*
X61178616Y-35849853D01*
X61161443Y-35906467D01*
X61102361Y-36017000D01*
X61077778Y-36062991D01*
X61048448Y-36098729D01*
X60965186Y-36200186D01*
X60863729Y-36283448D01*
X60827991Y-36312778D01*
X60827989Y-36312779D01*
X60671467Y-36396443D01*
X60614853Y-36413616D01*
X60501627Y-36447963D01*
X60435442Y-36454482D01*
X60369260Y-36461000D01*
X60280740Y-36461000D01*
X60214558Y-36454482D01*
X60148373Y-36447963D01*
X60035147Y-36413616D01*
X59978533Y-36396443D01*
X59822011Y-36312779D01*
X59822009Y-36312778D01*
X59786271Y-36283448D01*
X59684814Y-36200186D01*
X59601552Y-36098729D01*
X59572222Y-36062991D01*
X59547639Y-36017000D01*
X59488557Y-35906467D01*
X59471384Y-35849853D01*
X59437037Y-35736627D01*
X59419641Y-35560000D01*
X59437037Y-35383373D01*
X59488557Y-35213534D01*
X59488557Y-35213533D01*
X59572221Y-35057011D01*
X59572222Y-35057009D01*
X59601552Y-35021271D01*
X59684814Y-34919814D01*
X59786271Y-34836552D01*
X59822009Y-34807222D01*
X59839913Y-34797652D01*
X59978533Y-34723557D01*
X60035147Y-34706384D01*
X60148373Y-34672037D01*
X60214557Y-34665519D01*
X60280740Y-34659000D01*
X60369260Y-34659000D01*
X60435443Y-34665519D01*
X60435443Y-34665519D01*
G37*
G36*
X99648908Y-30495380D02*
X99815767Y-30528570D01*
X100287299Y-30723885D01*
X100708803Y-31005526D01*
X100711669Y-31007441D01*
X101072559Y-31368331D01*
X101072561Y-31368334D01*
X101356115Y-31792701D01*
X101551430Y-32264233D01*
X101651000Y-32764809D01*
X101651000Y-33275191D01*
X101551430Y-33775767D01*
X101356115Y-34247299D01*
X101081024Y-34659000D01*
X101072559Y-34671669D01*
X100711669Y-35032559D01*
X100711666Y-35032561D01*
X100287299Y-35316115D01*
X99815767Y-35511430D01*
X99648908Y-35544620D01*
X99315193Y-35611000D01*
X98804807Y-35611000D01*
X98471092Y-35544620D01*
X98304233Y-35511430D01*
X97832701Y-35316115D01*
X97408334Y-35032561D01*
X97408331Y-35032559D01*
X97047441Y-34671669D01*
X97038976Y-34659000D01*
X96763885Y-34247299D01*
X96568570Y-33775767D01*
X96469000Y-33275191D01*
X96469000Y-32764809D01*
X96568570Y-32264233D01*
X96763885Y-31792701D01*
X97047439Y-31368334D01*
X97047441Y-31368331D01*
X97408331Y-31007441D01*
X97411197Y-31005526D01*
X97832701Y-30723885D01*
X98304233Y-30528570D01*
X98471092Y-30495380D01*
X98804807Y-30429000D01*
X99315193Y-30429000D01*
X99648908Y-30495380D01*
X99648908Y-30495380D01*
G37*
G36*
X29798908Y-30495380D02*
X29965767Y-30528570D01*
X30437299Y-30723885D01*
X30858803Y-31005526D01*
X30861669Y-31007441D01*
X31222559Y-31368331D01*
X31222561Y-31368334D01*
X31506115Y-31792701D01*
X31701430Y-32264233D01*
X31801000Y-32764809D01*
X31801000Y-33275191D01*
X31701430Y-33775767D01*
X31506115Y-34247299D01*
X31231024Y-34659000D01*
X31222559Y-34671669D01*
X30861669Y-35032559D01*
X30861666Y-35032561D01*
X30437299Y-35316115D01*
X29965767Y-35511430D01*
X29798908Y-35544620D01*
X29465193Y-35611000D01*
X28954807Y-35611000D01*
X28621092Y-35544620D01*
X28454233Y-35511430D01*
X27982701Y-35316115D01*
X27558334Y-35032561D01*
X27558331Y-35032559D01*
X27197441Y-34671669D01*
X27188976Y-34659000D01*
X26913885Y-34247299D01*
X26718570Y-33775767D01*
X26619000Y-33275191D01*
X26619000Y-32764809D01*
X26718570Y-32264233D01*
X26913885Y-31792701D01*
X27197439Y-31368334D01*
X27197441Y-31368331D01*
X27558331Y-31007441D01*
X27561197Y-31005526D01*
X27982701Y-30723885D01*
X28454233Y-30528570D01*
X28621092Y-30495380D01*
X28954807Y-30429000D01*
X29465193Y-30429000D01*
X29798908Y-30495380D01*
X29798908Y-30495380D01*
G37*
M02*
