M48
;DRILL file {KiCad (5.0.2)-1} date 10/15/2020 1:04:24 AM
;FORMAT={-:-/ absolute / inch / decimal}
FMAT,2
INCH,TZ
T1C0.0200
T2C0.0276
T3C0.0300
T4C0.0315
T5C0.0350
T6C0.0354
T7C0.0394
T8C0.1250
%
G90
G05
T1
X2.075Y-2.175
T2
X1.7Y-2.8
X2.Y-2.8
X1.7Y-2.7
X2.Y-2.7
T3
X2.15Y-2.45
X3.05Y-1.55
X3.05Y-1.65
X3.05Y-1.75
X3.05Y-1.85
X3.05Y-1.95
X3.05Y-2.05
X3.05Y-2.15
X3.05Y-2.25
X3.05Y-2.35
X3.05Y-2.45
X3.05Y-2.55
X3.05Y-2.65
X3.05Y-2.75
X3.05Y-2.85
X3.05Y-2.95
X3.25Y-1.45
X3.25Y-1.55
X3.35Y-1.45
X3.35Y-1.55
X3.45Y-1.45
X3.45Y-1.55
X3.65Y-1.55
X3.65Y-1.65
X3.65Y-1.75
X3.65Y-1.85
X3.65Y-1.95
X3.65Y-2.05
X3.65Y-2.15
X3.65Y-2.25
X3.65Y-2.35
X3.65Y-2.45
X3.65Y-2.55
X3.65Y-2.65
X3.65Y-2.75
X3.65Y-2.85
X3.65Y-2.95
X2.55Y-2.55
T4
X2.6Y-2.175
X2.9Y-2.175
X2.17Y-1.82
X2.47Y-1.82
X1.65Y-2.325
X1.95Y-2.325
X1.65Y-2.55
X1.95Y-2.55
X2.6Y-2.35
X2.9Y-2.35
T5
X1.645Y-1.815
X1.645Y-2.115
X1.745Y-1.815
X1.745Y-2.115
X1.845Y-1.815
X1.845Y-2.115
X2.55Y-2.75
X2.55Y-2.85
X2.55Y-2.95
X2.75Y-2.55
X2.75Y-2.75
X2.75Y-2.85
X2.75Y-2.95
X2.15Y-2.65
X2.15Y-2.75
X2.15Y-2.85
X2.35Y-2.45
X2.35Y-2.65
X2.35Y-2.75
X2.35Y-2.85
T6
X1.3Y-2.
X1.3Y-2.1
X1.3Y-2.3
X1.3Y-2.4
X1.3Y-1.7
X1.3Y-1.8
T7
X1.3Y-2.6
X1.3Y-2.7
X1.775Y-1.55
X1.875Y-1.55
X1.975Y-1.55
X2.075Y-1.55
X2.175Y-1.55
X2.275Y-1.55
X2.375Y-1.55
X2.475Y-1.55
X1.3Y-2.8
X1.3Y-2.9
X2.85Y-1.75
X2.85Y-1.85
X1.775Y-1.4
X1.875Y-1.4
X1.975Y-1.4
X2.075Y-1.4
X2.175Y-1.4
X2.275Y-1.4
X2.375Y-1.4
X2.475Y-1.4
X2.575Y-1.55
T8
X1.15Y-3.15
X1.15Y-1.3
X3.9Y-1.3
X3.9Y-3.15
T0
M30
