G04 #@! TF.GenerationSoftware,KiCad,Pcbnew,(5.0.2)-1*
G04 #@! TF.CreationDate,2020-10-15T01:05:58-04:00*
G04 #@! TF.ProjectId,Sequencer,53657175-656e-4636-9572-2e6b69636164,TTGO V-2.8*
G04 #@! TF.SameCoordinates,Original*
G04 #@! TF.FileFunction,Legend,Bot*
G04 #@! TF.FilePolarity,Positive*
%FSLAX46Y46*%
G04 Gerber Fmt 4.6, Leading zero omitted, Abs format (unit mm)*
G04 Created by KiCad (PCBNEW (5.0.2)-1) date 10/15/2020 1:05:58 AM*
%MOMM*%
%LPD*%
G01*
G04 APERTURE LIST*
%ADD10C,0.300000*%
G04 APERTURE END LIST*
D10*
X81078571Y-53570714D02*
X82578571Y-53927857D01*
X81507142Y-54213571D01*
X82578571Y-54499285D01*
X81078571Y-54856428D01*
X82150000Y-55356428D02*
X82150000Y-56070714D01*
X82578571Y-55213571D02*
X81078571Y-55713571D01*
X82578571Y-56213571D01*
X81221428Y-56642142D02*
X81150000Y-56713571D01*
X81078571Y-56856428D01*
X81078571Y-57213571D01*
X81150000Y-57356428D01*
X81221428Y-57427857D01*
X81364285Y-57499285D01*
X81507142Y-57499285D01*
X81721428Y-57427857D01*
X82578571Y-56570714D01*
X82578571Y-57499285D01*
X81792857Y-58642142D02*
X81792857Y-58142142D01*
X82578571Y-58142142D02*
X81078571Y-58142142D01*
X81078571Y-58856428D01*
X81078571Y-59285000D02*
X81078571Y-60285000D01*
X82578571Y-59285000D01*
X82578571Y-60285000D01*
X81078571Y-60713571D02*
X82578571Y-61070714D01*
X81507142Y-61356428D01*
X82578571Y-61642142D01*
X81078571Y-61999285D01*
X84342857Y-46320714D02*
X84342857Y-45820714D01*
X85128571Y-45820714D02*
X83628571Y-45820714D01*
X83628571Y-46535000D01*
X83628571Y-46892142D02*
X83628571Y-47749285D01*
X85128571Y-47320714D02*
X83628571Y-47320714D01*
X84557142Y-48249285D02*
X84557142Y-49392142D01*
X84271428Y-50320714D02*
X84200000Y-50177857D01*
X84128571Y-50106428D01*
X83985714Y-50035000D01*
X83914285Y-50035000D01*
X83771428Y-50106428D01*
X83700000Y-50177857D01*
X83628571Y-50320714D01*
X83628571Y-50606428D01*
X83700000Y-50749285D01*
X83771428Y-50820714D01*
X83914285Y-50892142D01*
X83985714Y-50892142D01*
X84128571Y-50820714D01*
X84200000Y-50749285D01*
X84271428Y-50606428D01*
X84271428Y-50320714D01*
X84342857Y-50177857D01*
X84414285Y-50106428D01*
X84557142Y-50035000D01*
X84842857Y-50035000D01*
X84985714Y-50106428D01*
X85057142Y-50177857D01*
X85128571Y-50320714D01*
X85128571Y-50606428D01*
X85057142Y-50749285D01*
X84985714Y-50820714D01*
X84842857Y-50892142D01*
X84557142Y-50892142D01*
X84414285Y-50820714D01*
X84342857Y-50749285D01*
X84271428Y-50606428D01*
X85128571Y-51606428D02*
X85128571Y-51892142D01*
X85057142Y-52035000D01*
X84985714Y-52106428D01*
X84771428Y-52249285D01*
X84485714Y-52320714D01*
X83914285Y-52320714D01*
X83771428Y-52249285D01*
X83700000Y-52177857D01*
X83628571Y-52035000D01*
X83628571Y-51749285D01*
X83700000Y-51606428D01*
X83771428Y-51535000D01*
X83914285Y-51463571D01*
X84271428Y-51463571D01*
X84414285Y-51535000D01*
X84485714Y-51606428D01*
X84557142Y-51749285D01*
X84557142Y-52035000D01*
X84485714Y-52177857D01*
X84414285Y-52249285D01*
X84271428Y-52320714D01*
X85128571Y-53749285D02*
X85128571Y-52892142D01*
X85128571Y-53320714D02*
X83628571Y-53320714D01*
X83842857Y-53177857D01*
X83985714Y-53035000D01*
X84057142Y-52892142D01*
X84700000Y-55463571D02*
X84700000Y-56177857D01*
X85128571Y-55320714D02*
X83628571Y-55820714D01*
X85128571Y-56320714D01*
X85128571Y-56820714D02*
X83628571Y-56820714D01*
X84700000Y-57320714D01*
X83628571Y-57820714D01*
X85128571Y-57820714D01*
X85128571Y-58535000D02*
X83628571Y-58535000D01*
X83628571Y-59106428D01*
X83700000Y-59249285D01*
X83771428Y-59320714D01*
X83914285Y-59392142D01*
X84128571Y-59392142D01*
X84271428Y-59320714D01*
X84342857Y-59249285D01*
X84414285Y-59106428D01*
X84414285Y-58535000D01*
X83557142Y-61106428D02*
X85485714Y-59820714D01*
X85128571Y-61606428D02*
X83628571Y-61606428D01*
X83628571Y-62177857D01*
X83700000Y-62320714D01*
X83771428Y-62392142D01*
X83914285Y-62463571D01*
X84128571Y-62463571D01*
X84271428Y-62392142D01*
X84342857Y-62320714D01*
X84414285Y-62177857D01*
X84414285Y-61606428D01*
X85128571Y-63963571D02*
X84414285Y-63463571D01*
X85128571Y-63106428D02*
X83628571Y-63106428D01*
X83628571Y-63677857D01*
X83700000Y-63820714D01*
X83771428Y-63892142D01*
X83914285Y-63963571D01*
X84128571Y-63963571D01*
X84271428Y-63892142D01*
X84342857Y-63820714D01*
X84414285Y-63677857D01*
X84414285Y-63106428D01*
X84342857Y-64606428D02*
X84342857Y-65106428D01*
X85128571Y-65320714D02*
X85128571Y-64606428D01*
X83628571Y-64606428D01*
X83628571Y-65320714D01*
X84700000Y-65892142D02*
X84700000Y-66606428D01*
X85128571Y-65749285D02*
X83628571Y-66249285D01*
X85128571Y-66749285D01*
X85128571Y-67249285D02*
X83628571Y-67249285D01*
X84700000Y-67749285D01*
X83628571Y-68249285D01*
X85128571Y-68249285D01*
X85128571Y-68963571D02*
X83628571Y-68963571D01*
X83628571Y-69535000D01*
X83700000Y-69677857D01*
X83771428Y-69749285D01*
X83914285Y-69820714D01*
X84128571Y-69820714D01*
X84271428Y-69749285D01*
X84342857Y-69677857D01*
X84414285Y-69535000D01*
X84414285Y-68963571D01*
X87607142Y-51463571D02*
X87678571Y-51677857D01*
X87678571Y-52035000D01*
X87607142Y-52177857D01*
X87535714Y-52249285D01*
X87392857Y-52320714D01*
X87250000Y-52320714D01*
X87107142Y-52249285D01*
X87035714Y-52177857D01*
X86964285Y-52035000D01*
X86892857Y-51749285D01*
X86821428Y-51606428D01*
X86750000Y-51535000D01*
X86607142Y-51463571D01*
X86464285Y-51463571D01*
X86321428Y-51535000D01*
X86250000Y-51606428D01*
X86178571Y-51749285D01*
X86178571Y-52106428D01*
X86250000Y-52320714D01*
X86892857Y-52963571D02*
X86892857Y-53463571D01*
X87678571Y-53677857D02*
X87678571Y-52963571D01*
X86178571Y-52963571D01*
X86178571Y-53677857D01*
X87821428Y-55320714D02*
X87750000Y-55177857D01*
X87607142Y-55035000D01*
X87392857Y-54820714D01*
X87321428Y-54677857D01*
X87321428Y-54535000D01*
X87678571Y-54606428D02*
X87607142Y-54463571D01*
X87464285Y-54320714D01*
X87178571Y-54249285D01*
X86678571Y-54249285D01*
X86392857Y-54320714D01*
X86250000Y-54463571D01*
X86178571Y-54606428D01*
X86178571Y-54892142D01*
X86250000Y-55035000D01*
X86392857Y-55177857D01*
X86678571Y-55249285D01*
X87178571Y-55249285D01*
X87464285Y-55177857D01*
X87607142Y-55035000D01*
X87678571Y-54892142D01*
X87678571Y-54606428D01*
X86178571Y-55892142D02*
X87392857Y-55892142D01*
X87535714Y-55963571D01*
X87607142Y-56035000D01*
X87678571Y-56177857D01*
X87678571Y-56463571D01*
X87607142Y-56606428D01*
X87535714Y-56677857D01*
X87392857Y-56749285D01*
X86178571Y-56749285D01*
X86892857Y-57463571D02*
X86892857Y-57963571D01*
X87678571Y-58177857D02*
X87678571Y-57463571D01*
X86178571Y-57463571D01*
X86178571Y-58177857D01*
X87678571Y-58820714D02*
X86178571Y-58820714D01*
X87678571Y-59677857D01*
X86178571Y-59677857D01*
X87535714Y-61249285D02*
X87607142Y-61177857D01*
X87678571Y-60963571D01*
X87678571Y-60820714D01*
X87607142Y-60606428D01*
X87464285Y-60463571D01*
X87321428Y-60392142D01*
X87035714Y-60320714D01*
X86821428Y-60320714D01*
X86535714Y-60392142D01*
X86392857Y-60463571D01*
X86250000Y-60606428D01*
X86178571Y-60820714D01*
X86178571Y-60963571D01*
X86250000Y-61177857D01*
X86321428Y-61249285D01*
X86892857Y-61892142D02*
X86892857Y-62392142D01*
X87678571Y-62606428D02*
X87678571Y-61892142D01*
X86178571Y-61892142D01*
X86178571Y-62606428D01*
X87678571Y-64106428D02*
X86964285Y-63606428D01*
X87678571Y-63249285D02*
X86178571Y-63249285D01*
X86178571Y-63820714D01*
X86250000Y-63963571D01*
X86321428Y-64035000D01*
X86464285Y-64106428D01*
X86678571Y-64106428D01*
X86821428Y-64035000D01*
X86892857Y-63963571D01*
X86964285Y-63820714D01*
X86964285Y-63249285D01*
X88728571Y-50856428D02*
X90228571Y-51356428D01*
X88728571Y-51856428D01*
X89442857Y-52356428D02*
X89442857Y-52856428D01*
X90228571Y-53070714D02*
X90228571Y-52356428D01*
X88728571Y-52356428D01*
X88728571Y-53070714D01*
X90228571Y-54570714D02*
X89514285Y-54070714D01*
X90228571Y-53713571D02*
X88728571Y-53713571D01*
X88728571Y-54285000D01*
X88800000Y-54427857D01*
X88871428Y-54499285D01*
X89014285Y-54570714D01*
X89228571Y-54570714D01*
X89371428Y-54499285D01*
X89442857Y-54427857D01*
X89514285Y-54285000D01*
X89514285Y-53713571D01*
X90157142Y-55142142D02*
X90228571Y-55356428D01*
X90228571Y-55713571D01*
X90157142Y-55856428D01*
X90085714Y-55927857D01*
X89942857Y-55999285D01*
X89800000Y-55999285D01*
X89657142Y-55927857D01*
X89585714Y-55856428D01*
X89514285Y-55713571D01*
X89442857Y-55427857D01*
X89371428Y-55285000D01*
X89300000Y-55213571D01*
X89157142Y-55142142D01*
X89014285Y-55142142D01*
X88871428Y-55213571D01*
X88800000Y-55285000D01*
X88728571Y-55427857D01*
X88728571Y-55785000D01*
X88800000Y-55999285D01*
X90228571Y-56642142D02*
X88728571Y-56642142D01*
X88728571Y-57642142D02*
X88728571Y-57927857D01*
X88800000Y-58070714D01*
X88942857Y-58213571D01*
X89228571Y-58285000D01*
X89728571Y-58285000D01*
X90014285Y-58213571D01*
X90157142Y-58070714D01*
X90228571Y-57927857D01*
X90228571Y-57642142D01*
X90157142Y-57499285D01*
X90014285Y-57356428D01*
X89728571Y-57285000D01*
X89228571Y-57285000D01*
X88942857Y-57356428D01*
X88800000Y-57499285D01*
X88728571Y-57642142D01*
X90228571Y-58927857D02*
X88728571Y-58927857D01*
X90228571Y-59785000D01*
X88728571Y-59785000D01*
X90228571Y-62427857D02*
X90228571Y-61570714D01*
X90228571Y-61999285D02*
X88728571Y-61999285D01*
X88942857Y-61856428D01*
X89085714Y-61713571D01*
X89157142Y-61570714D01*
X90085714Y-63070714D02*
X90157142Y-63142142D01*
X90228571Y-63070714D01*
X90157142Y-62999285D01*
X90085714Y-63070714D01*
X90228571Y-63070714D01*
X90228571Y-64570714D02*
X90228571Y-63713571D01*
X90228571Y-64142142D02*
X88728571Y-64142142D01*
X88942857Y-63999285D01*
X89085714Y-63856428D01*
X89157142Y-63713571D01*
M02*
